<?xml version="1.0" encoding="UTF-8"?>
<svg version="1.1" xmlns="http://www.w3.org/2000/svg" width="1920" height="1080">
<path d="M0 0 C633.6 0 1267.2 0 1920 0 C1920 356.4 1920 712.8 1920 1080 C1286.4 1080 652.8 1080 0 1080 C0 723.6 0 367.2 0 0 Z " fill="#592034" transform="translate(0,0)"/>
<path d="M0 0 C1.0647052 -0.00261841 2.1294104 -0.00523682 3.22637939 -0.00793457 C18.80698967 -0.01199845 34.23761778 0.60157777 49.75 2.0625 C51.04251678 2.18025284 51.04251678 2.18025284 52.36114502 2.30038452 C63.87082169 3.37650375 75.01850255 5.31088147 86.28991699 7.85800171 C89.53420236 8.56517842 92.79597581 9.15442087 96.0625 9.75 C104.05017101 11.35094046 111.67774331 13.69635298 119.375 16.3125 C120.21482422 16.59222656 121.05464844 16.87195313 121.91992188 17.16015625 C140.75995127 23.48121186 158.24371991 31.21283234 173.375 44.3125 C174.20386719 45.01761719 175.03273438 45.72273438 175.88671875 46.44921875 C186.29820634 56.01223197 191.73330954 67.4176266 192.55900443 81.43659961 C192.6342006 84.91084071 192.64645753 88.3798018 192.63569641 91.85484314 C192.6387232 93.19222191 192.6426153 94.52959895 192.64728898 95.86697298 C192.65750968 99.513093 192.65540243 103.15911403 192.65110838 106.80524194 C192.64863035 110.74874754 192.65766858 114.69222996 192.66514587 118.63572693 C192.67786453 126.34992777 192.67969015 134.06409376 192.67734561 141.77830332 C192.67555931 148.05082535 192.67731876 154.32333684 192.68157005 160.59585762 C192.68216524 161.4901196 192.68276043 162.38438158 192.68337366 163.3057424 C192.68458546 165.12268475 192.68579959 166.9396271 192.68701603 168.75656945 C192.69788041 185.77729922 192.69573415 202.79800914 192.68963119 219.81874002 C192.68446157 235.37488809 192.69572062 250.93097355 192.71472941 266.48710924 C192.7341207 282.47945684 192.74236163 298.47177484 192.73860615 314.46413428 C192.73669626 323.43493655 192.73916117 332.40568553 192.75332069 341.3764782 C192.76525184 349.0123941 192.76661987 356.64822387 192.75453053 364.284141 C192.74865435 368.1762972 192.74750737 372.068296 192.75953293 375.96044159 C192.77043385 379.53019685 192.76723895 383.09966409 192.75327124 386.66940612 C192.74939685 388.55784935 192.76013684 390.44630557 192.77156812 392.33471817 C192.66692929 408.97067628 187.55843003 421.69279473 176.06640625 433.75 C133.56863834 474.21231604 60.52432434 480.01156056 5.15647507 479.81943893 C3.08235043 479.81235432 1.00824729 479.80966942 -1.06588745 479.80715942 C-57.58974887 479.68444283 -128.24411777 473.27621262 -171.1015625 432.00390625 C-180.21093795 422.28817919 -185.73056481 411.88802059 -185.76201439 398.4383831 C-185.76708893 397.28083326 -185.77216347 396.12328342 -185.77739179 394.93065631 C-185.77788955 393.66841491 -185.77838731 392.40617351 -185.77890015 391.10568237 C-185.78291855 389.74374617 -185.7873574 388.38181115 -185.7921797 387.01987755 C-185.80410858 383.28268091 -185.80978504 379.54549716 -185.81436086 375.80828524 C-185.82033081 371.77539511 -185.83193698 367.74252028 -185.84265137 363.7096405 C-185.86714099 353.97377851 -185.88179617 344.23791146 -185.89471143 334.50202817 C-185.89842546 331.75110335 -185.90239851 329.00017903 -185.9064641 326.2492547 C-185.93169947 309.15628659 -185.95374646 292.06331763 -185.96619225 274.97033501 C-185.96912179 271.01375195 -185.97208348 267.05716893 -185.97509766 263.10058594 C-185.97584371 262.11723318 -185.97658976 261.13388043 -185.97735842 260.1207291 C-185.99001107 244.19240828 -186.0232354 228.26419909 -186.06489949 212.33593045 C-186.10734863 195.97310226 -186.13089059 179.61033119 -186.13611281 163.24744809 C-186.13952321 154.06412895 -186.15123488 144.88098442 -186.18421555 135.69771957 C-186.21225798 127.87683718 -186.22319693 120.05616521 -186.21202008 112.23523645 C-186.20684444 108.24781523 -186.20964848 104.26083438 -186.23448563 100.27347755 C-186.25707451 96.6164066 -186.25616484 92.9600899 -186.23728175 89.30300488 C-186.23318451 87.36756797 -186.25355593 85.43212579 -186.27506864 83.49680412 C-186.12683056 67.04643148 -178.00911989 55.40011189 -166.796875 44.0859375 C-132.7898018 12.9265786 -79.5285186 5.60168197 -35.625 1.3125 C-34.20550049 1.16784302 -34.20550049 1.16784302 -32.75732422 1.02026367 C-21.86090443 0.03590455 -10.93267749 0.02578212 0 0 Z " fill="#000000" transform="translate(637.625,352.6875)"/>
<path d="M0 0 C1.01381956 -0.00525911 1.01381956 -0.00525911 2.04812032 -0.01062447 C4.32335894 -0.01996251 6.59834294 -0.01500903 8.87359238 -0.01015663 C10.51714053 -0.01389169 12.16068691 -0.01849264 13.80423045 -0.02388728 C18.32899638 -0.03615069 22.85368856 -0.03585288 27.37846732 -0.03349853 C32.2552262 -0.0330912 37.13196116 -0.04412152 42.00870895 -0.05361366 C51.56671955 -0.07024332 61.12470548 -0.07572411 70.68272933 -0.07683842 C78.45097174 -0.07778803 86.219206 -0.081894 93.98744583 -0.08823967 C116.0029659 -0.10585803 138.01846646 -0.1150777 160.03399363 -0.11357872 C161.81516538 -0.11345885 161.81516538 -0.11345885 163.6323204 -0.11333656 C165.41566261 -0.11321392 165.41566261 -0.11321392 167.23503193 -0.1130888 C186.50288881 -0.1122759 205.77066751 -0.13141307 225.03850177 -0.1596133 C244.81388963 -0.18832837 264.58923934 -0.20215433 284.36464858 -0.20042574 C295.47048984 -0.19976133 306.57624918 -0.20527603 317.68207169 -0.22678185 C327.13828843 -0.2449756 336.59438612 -0.24935588 346.05061278 -0.235763 C350.87589994 -0.22922402 355.70095858 -0.22914964 360.52622414 -0.2464695 C364.94419966 -0.26216437 369.36176476 -0.25937336 373.77973005 -0.24190123 C375.37732146 -0.2388234 376.97494322 -0.24249319 378.57249883 -0.25362138 C393.46754811 -0.35049834 393.46754811 -0.35049834 400.29882431 4.25726891 C405.10435715 9.19268101 407.68387854 14.44551201 407.63940048 21.35443687 C407.63917389 22.53520805 407.6389473 23.71597923 407.63871384 24.93253136 C407.62322998 26.19211662 407.60774612 27.45170189 407.59179306 28.74945641 C407.58754822 30.05053337 407.58330338 31.35161034 407.5789299 32.69211388 C407.5675291 36.13472653 407.53810405 39.57695357 407.50481796 43.0194149 C407.47401348 46.53875069 407.46040251 50.05814938 407.44530869 53.57758141 C407.41322885 60.47098401 407.36050065 67.36406819 407.29882431 74.25726891 C399.37882431 74.25726891 391.45882431 74.25726891 383.29882431 74.25726891 C383.23823837 71.16480797 383.17765244 68.07234703 383.11523056 64.88617516 C383.05349322 61.90429674 382.99008399 58.92245827 382.92650986 55.94061852 C382.88309097 53.86187833 382.84142119 51.78310087 382.80150986 49.70429039 C382.7439751 46.72313746 382.68023312 43.74217341 382.61523056 40.76117516 C382.59016182 39.35805832 382.59016182 39.35805832 382.56458664 37.92659569 C382.54464142 37.06577888 382.5246962 36.20496208 382.50414658 35.31805992 C382.48860229 34.55639015 382.47305801 33.79472038 382.45704269 33.00996971 C382.48503102 31.22991884 382.48503102 31.22991884 381.29882431 30.25726891 C379.30151598 30.15835163 377.30065568 30.13094617 375.30089951 30.13028526 C373.99677612 30.12746544 372.69265274 30.12464561 371.34901047 30.12174034 C369.89022432 30.12368494 368.43143831 30.12573313 366.97265244 30.12787437 C365.44705285 30.1265204 363.92145359 30.12474048 362.39585495 30.12256432 C358.24101275 30.11798956 354.08619527 30.11977971 349.93135262 30.1229434 C345.59294567 30.12546679 341.25454091 30.12312953 336.91613388 30.12155724 C329.62914269 30.11973548 322.34216162 30.12214201 315.05517197 30.12689781 C306.61810575 30.13234044 298.18106369 30.13057779 289.74399805 30.12507141 C282.51344676 30.12054046 275.28290277 30.11988964 268.05235052 30.12251008 C263.72801536 30.12407295 259.40369158 30.12426633 255.07935715 30.12097359 C251.01484732 30.11809513 246.95036878 30.12007009 242.88586235 30.12586784 C241.38982889 30.12719558 239.89379283 30.12680109 238.39776039 30.12460518 C236.36409089 30.12189424 234.33041567 30.12588799 232.29674911 30.13028526 C230.58554508 30.1308508 230.58554508 30.1308508 228.83977127 30.13142776 C226.36323107 29.96910735 226.36323107 29.96910735 225.29882431 31.25726891 C225.19918511 33.49114097 225.17082636 35.72820749 225.16942978 37.96430016 C225.16767746 38.66509697 225.16592514 39.36589378 225.16411972 40.08792686 C225.15970165 42.41523239 225.16263902 44.74246254 225.16601181 47.06976891 C225.16533876 48.680202 225.16436872 50.29063499 225.16311264 51.90106773 C225.16163573 55.28055346 225.16379 58.6600128 225.16845322 62.03949547 C225.17415051 66.38103396 225.17087147 70.72251064 225.16488075 75.06404686 C225.16127496 78.39077791 225.16241381 81.71749421 225.16500854 85.04422569 C225.16567776 86.64548309 225.16484957 88.24674181 225.16252899 89.84799767 C225.16000215 92.08211401 225.16384346 94.3161289 225.16942978 96.55023766 C225.17022537 97.8240731 225.17102097 99.09790855 225.17184067 100.41034508 C224.97348031 103.15689027 224.97348031 103.15689027 226.29882431 104.25726891 C227.78521423 104.41381918 229.27831558 104.50793833 230.77148056 104.57367516 C231.67060165 104.61556969 232.56972275 104.65746422 233.49608994 104.70062828 C234.44161728 104.73994469 235.38714462 104.77926109 236.36132431 104.81976891 C237.78541611 104.8845443 237.78541611 104.8845443 239.23827744 104.95062828 C241.59163784 105.05706167 243.94510785 105.15907899 246.29882431 105.25726891 C243.28252881 107.64870524 240.09978199 109.63094841 236.81469345 111.6207943 C228.79843164 116.48629703 220.97008026 121.58601295 214.29882431 128.25726891 C211.32215256 128.36193129 208.36846773 128.40058446 205.39113998 128.3977108 C204.44501811 128.40068192 203.49889623 128.40365304 202.524104 128.4067142 C199.32807102 128.41544201 196.13207532 128.41691287 192.93603134 128.41840172 C190.65506535 128.42302699 188.37410013 128.42805125 186.09313583 128.43344688 C179.87831608 128.44660048 173.66350714 128.45302153 167.44867563 128.45745754 C163.57062794 128.46038335 159.69258324 128.46448719 155.81453705 128.46896172 C145.08469157 128.48107492 134.35484999 128.49145565 123.62499809 128.49483681 C122.93780209 128.49505637 122.25060609 128.49527594 121.54258596 128.49550216 C120.85371251 128.49572044 120.16483905 128.49593871 119.45509064 128.49616361 C118.0590891 128.49660708 116.66308757 128.49705364 115.26708603 128.49750328 C114.22838074 128.49783543 114.22838074 128.49783543 113.1686915 128.49817428 C101.94486186 128.50212339 90.7210971 128.51957972 79.49729253 128.5428628 C67.98354465 128.56655523 56.46983859 128.57877951 44.95606506 128.58020473 C38.48763981 128.58125554 32.01930601 128.58722189 25.55090332 128.60502434 C19.46888294 128.621437 13.38702342 128.62369377 7.30498886 128.61488533 C5.06801423 128.61411131 2.83103119 128.61850535 0.59407806 128.62834358 C-2.45065075 128.64095302 -5.4948003 128.63524649 -8.53952408 128.62476158 C-9.43280344 128.63281799 -10.3260828 128.64087439 -11.24643123 128.64917493 C-12.05993545 128.64258508 -12.87343967 128.63599524 -13.71159554 128.6292057 C-14.76621508 128.63010134 -14.76621508 128.63010134 -15.84214008 128.63101506 C-18.27770881 128.14136094 -19.17586448 127.17919416 -20.70117569 125.25726891 C-21.08149242 123.19256115 -21.08149242 123.19256115 -21.08885574 120.77431297 C-21.09876038 119.85619331 -21.10866501 118.93807365 -21.11886978 117.99213219 C-21.11436813 116.98690514 -21.10986649 115.98167809 -21.10522842 114.94598961 C-21.1155233 113.35526886 -21.1155233 113.35526886 -21.12602615 111.73241234 C-21.14437231 108.21582318 -21.14044397 104.69967706 -21.13476944 101.18305016 C-21.13932889 98.74027422 -21.14463375 96.29749957 -21.15065384 93.85472679 C-21.15960137 88.72754276 -21.15714472 83.60051432 -21.14722061 78.47333336 C-21.13575446 71.91053214 -21.15589856 65.34827085 -21.18513775 58.78554058 C-21.20351217 53.73682311 -21.20320431 48.68823456 -21.19750023 43.63949203 C-21.19734703 41.22064204 -21.20339006 38.8017833 -21.2157917 36.38296509 C-21.23071502 32.99347658 -21.22001194 29.60497897 -21.20288467 26.21552086 C-21.21255264 25.22041496 -21.22222061 24.22530907 -21.23218155 23.20004845 C-21.16093339 16.44613889 -20.03930977 10.77036038 -15.25391674 5.73415661 C-10.18576174 1.32158799 -6.67374508 0.0077949 0 0 Z " fill="#000000" transform="translate(233.70117568969727,247.74273109436035)"/>
<path d="M0 0 C1.24116128 -0.00128164 1.24116128 -0.00128164 2.50739652 -0.00258917 C5.2896462 -0.00424085 8.07183604 0.00127234 10.8540802 0.00672913 C12.84464517 0.00701109 14.83521024 0.00685308 16.82577515 0.00628662 C22.23865707 0.00599901 27.65151697 0.01188991 33.06439376 0.01886058 C38.71786498 0.02510012 44.37133666 0.02569839 50.02481079 0.02688599 C60.73450428 0.02999752 71.4441876 0.03820853 82.1538766 0.04823548 C94.34476486 0.05940211 106.5356536 0.06490845 118.72654569 0.06993091 C143.8078812 0.08039128 168.88920767 0.0979873 193.97053528 0.12025452 C193.37305481 1.50084045 193.37305481 1.50084045 192.76350403 2.90931702 C185.75254759 19.46963188 184.51064941 34.32214283 184.45881653 52.14369202 C184.44194053 54.34329715 184.42378644 56.54289281 184.40441895 58.74247742 C184.35722988 64.48635395 184.3272203 70.23019206 184.30097961 75.97419739 C184.27101601 81.85368941 184.22454055 87.73304943 184.17951965 93.61244202 C184.0938409 105.11497669 184.02633929 116.61753879 183.97053528 128.12025452 C157.42407028 128.1902634 130.87761908 128.24320282 104.33108044 128.27569103 C92.00570787 128.29117525 79.68039257 128.31229444 67.35505676 128.34657288 C56.615212 128.37642767 45.87540872 128.3958182 35.13552362 128.40252 C29.44619478 128.40643891 23.7569846 128.41568111 18.06769371 128.43744469 C12.71700236 128.45774792 7.36647901 128.46410083 2.01575279 128.45957756 C0.04807117 128.46040553 -1.91961585 128.46640772 -3.88726425 128.47787094 C-6.56640926 128.49271869 -9.24491354 128.48923654 -11.92407227 128.48101807 C-12.70908719 128.48975659 -13.49410212 128.49849512 -14.30290538 128.50749844 C-19.48042871 128.46434088 -19.48042871 128.46434088 -22.01182175 126.87789154 C-23.29958248 124.65371666 -23.40932145 123.20662092 -23.41714478 120.63729858 C-23.42704941 119.71917892 -23.43695404 118.80105927 -23.44715881 117.8551178 C-23.44265717 116.84989075 -23.43815552 115.8446637 -23.43351746 114.80897522 C-23.44381233 113.21825447 -23.44381233 113.21825447 -23.45431519 111.59539795 C-23.47266134 108.07880879 -23.468733 104.56266267 -23.46305847 101.04603577 C-23.46761792 98.60325983 -23.47292278 96.16048518 -23.47894287 93.7177124 C-23.4878904 88.59052837 -23.48543376 83.46349993 -23.47550964 78.33631897 C-23.46404349 71.77351775 -23.48418759 65.21125646 -23.51342678 58.64852619 C-23.5318012 53.59980873 -23.53149334 48.55122017 -23.52578926 43.50247765 C-23.52563606 41.08362765 -23.53167909 38.66476891 -23.54408073 36.2459507 C-23.55900405 32.85646219 -23.54830097 29.46796458 -23.53117371 26.07850647 C-23.54084167 25.08340057 -23.55050964 24.08829468 -23.56047058 23.06303406 C-23.48516373 15.92438439 -22.12339883 10.24981934 -16.99430847 5.06166077 C-16.32528503 4.6066217 -15.6562616 4.15158264 -14.96696472 3.68275452 C-14.29536316 3.20966858 -13.6237616 2.73658264 -12.93180847 2.24916077 C-8.74052883 -0.23806678 -4.71009935 -0.01765207 0 0 Z " fill="#000000" transform="translate(236.0294647216797,397.87974548339844)"/>
<path d="M0 0 C0.78593947 -0.00256327 1.57187895 -0.00512655 2.38163477 -0.0077675 C4.99963604 -0.01268568 7.617053 0.00375468 10.23500061 0.02018738 C12.11778245 0.02103408 14.00056529 0.02055767 15.88334656 0.01885986 C20.98409619 0.01800016 26.08463359 0.03562205 31.18533397 0.05658174 C36.5197954 0.07535256 41.85426186 0.0770993 47.18875122 0.08065796 C57.28565723 0.08997722 67.38246564 0.11458944 77.47932869 0.14470643 C91.12653621 0.18452862 104.77377048 0.20070627 118.42102146 0.21821308 C139.91646065 0.24641056 161.41169388 0.30618098 182.90711975 0.36076355 C182.90711975 42.60076355 182.90711975 84.84076355 182.90711975 128.36076355 C131.57896662 128.44136962 131.57896662 128.44136962 110.13368225 128.4584198 C95.30359012 128.47030492 80.47352065 128.48430587 65.64344788 128.51164246 C54.84464927 128.53153867 44.04586898 128.54447101 33.24705255 128.54894054 C27.52592666 128.55155433 21.80485319 128.55772331 16.08374405 128.57222366 C10.70435342 128.5857481 5.32503704 128.58999666 -0.05436897 128.58697891 C-2.03375336 128.58753139 -4.0131401 128.5915393 -5.99250984 128.5991745 C-8.68502545 128.60905544 -11.37725691 128.60675769 -14.06977844 128.60127258 C-14.86159716 128.60709827 -15.65341588 128.61292395 -16.4692291 128.61892617 C-21.86463783 128.58900597 -21.86463783 128.58900597 -24.09288025 126.36076355 C-24.34456253 124.42913437 -24.34456253 124.42913437 -24.34684753 122.02256775 C-24.35248718 121.11134659 -24.35812683 120.20012543 -24.36393738 119.2612915 C-24.35988892 118.25867783 -24.35584045 117.25606415 -24.35166931 116.22306824 C-24.35692627 114.64237801 -24.35692627 114.64237801 -24.36228943 113.02975464 C-24.37112335 109.53064978 -24.36525 106.03174564 -24.35850525 102.53263855 C-24.35985182 100.10606345 -24.36179229 97.67948861 -24.36430359 95.25291443 C-24.36725744 90.158467 -24.36295031 85.06408957 -24.35362244 79.96965027 C-24.34225204 73.44152091 -24.34877049 66.91355644 -24.36076736 60.3854332 C-24.3679996 55.37027244 -24.36569132 50.35515065 -24.36051178 45.33998871 C-24.3591778 42.93344859 -24.36081418 40.52690494 -24.36547089 38.12036896 C-24.3705557 34.75216329 -24.36279699 31.38422293 -24.35166931 28.01603699 C-24.35571777 27.02152023 -24.35976624 26.02700348 -24.36393738 25.00234985 C-24.32139129 18.042912 -23.63154276 12.59158716 -18.90538025 7.17326355 C-18.35495056 6.51970886 -17.80452087 5.86615417 -17.2374115 5.1927948 C-12.0321496 0.74604101 -6.65687222 -0.0804825 0 0 Z " fill="#000000" transform="translate(237.09288024902344,547.6392364501953)"/>
<path d="M0 0 C1.22820465 0.00254791 2.4564093 0.00509583 3.72183228 0.00772095 C23.81844882 0.07942081 43.38432795 0.83190266 63.25 3.9375 C64.51851303 4.13391083 64.51851303 4.13391083 65.81265259 4.33428955 C96.12188962 9.07813342 134.99080736 16.64129815 155.9375 41.25 C158.42675845 44.85659605 159.10161764 47.79498727 158.7578125 52.15234375 C156.80074151 61.64585477 148.4454359 67.0576921 140.875 72.125 C125.87449728 81.08000395 108.68383448 86.91302248 91.69921875 90.76757812 C89.94819261 91.16736232 88.20129867 91.58535997 86.45703125 92.01367188 C78.34360318 93.97433342 70.19651053 95.39695271 61.94677734 96.62011719 C59.81359979 96.93733645 57.68221032 97.26500996 55.55078125 97.59375 C54.14853176 97.80531318 52.74619074 98.01627081 51.34375 98.2265625 C50.11205078 98.4117041 48.88035156 98.5968457 47.61132812 98.78759766 C37.82238444 100.07870767 28.00088373 100.47380389 18.13671875 100.515625 C17.02019424 100.52254868 15.90366974 100.52947235 14.75331116 100.53660583 C11.16883787 100.55378559 7.58451252 100.56019325 4 100.5625 C2.77551147 100.56383942 1.55102295 100.56517883 0.28942871 100.56655884 C-18.90170887 100.5620076 -37.65323394 99.84383258 -56.6875 97.3125 C-58.37098762 97.1162748 -60.05457191 96.92087599 -61.73828125 96.7265625 C-91.82632724 92.92522746 -134.51931613 83.56967778 -154.1796875 58.40234375 C-156.55655632 54.67311854 -157.48473075 51.65297852 -156.6875 47.3125 C-150.34327258 32.70247629 -133.72527666 24.68463214 -119.75 19.0625 C-111.84010016 15.97261468 -103.92586549 13.39090043 -95.6875 11.3125 C-94.38011419 10.97301859 -93.0728263 10.63315992 -91.765625 10.29296875 C-78.09260505 6.7822408 -64.4091928 3.78026341 -50.375 2.125 C-49.27821426 1.9946788 -49.27821426 1.9946788 -48.15927124 1.86172485 C-32.13606117 0.03764697 -16.11054893 -0.03791692 0 0 Z " fill="#581F33" transform="translate(639.6875,384.6875)"/>
<path d="M0 0 C0.6069017 0.30390656 1.21380341 0.60781311 1.83909607 0.92092896 C6.56076426 3.27874568 11.313214 5.57348662 16.0625 7.875 C17.68575195 8.66970703 17.68575195 8.66970703 19.34179688 9.48046875 C29.36018818 14.324394 39.45065147 18.04211383 50.1875 20.9375 C51.12529297 21.19055908 52.06308594 21.44361816 53.02929688 21.7043457 C91.17431778 31.78652156 129.67832223 34.66691414 169 34 C170.04929687 33.98598145 171.09859375 33.97196289 172.1796875 33.95751953 C203.74242145 33.4499623 235.57012727 29.14183006 265.95019531 20.57617188 C267.74141518 20.07268463 269.53826538 19.58931557 271.3359375 19.109375 C285.06671406 15.22663613 298.70771531 9.27705904 311.0390625 2.09375 C313 1 313 1 316 0 C316.1162242 8.07592157 316.2048807 16.1514895 316.25906086 24.2280426 C316.28507447 27.97899063 316.32031849 31.72936343 316.37719727 35.47998047 C316.43181593 39.10454908 316.46148238 42.72856701 316.47438622 46.35351562 C316.48357311 47.73137065 316.50151288 49.10919801 316.52865028 50.48681641 C316.71934564 60.57529767 315.44184534 66.06547164 308.74609375 73.50390625 C293.88244848 86.75795204 275.03043893 93.83177953 256 99 C255.34821777 99.18626953 254.69643555 99.37253906 254.02490234 99.56445312 C242.8412493 102.74154022 231.53532792 104.88075948 220.0625 106.6875 C218.79108154 106.88980225 217.51966309 107.09210449 216.2097168 107.30053711 C196.75509445 110.25335007 177.4857471 111.40592766 157.8125 111.375 C156.11761444 111.37567978 156.11761444 111.37567978 154.38848877 111.37637329 C134.96247831 111.35361258 116.18155177 109.98978424 97 107 C95.29609727 106.76696669 93.59172848 106.5372907 91.88671875 106.3125 C63.29172303 102.33123527 21.99881499 93.13907794 3 69 C0.48163845 64.65042526 -0.37076772 61.54744234 -0.34057617 56.53564453 C-0.34034958 55.27479034 -0.34012299 54.01393616 -0.33988953 52.71487427 C-0.32457323 51.35418333 -0.3089253 49.99349608 -0.29296875 48.6328125 C-0.28736738 47.22891698 -0.28309984 45.82501556 -0.28010559 44.42111206 C-0.26869927 40.74177613 -0.23926918 37.06280043 -0.20599365 33.38360596 C-0.17520129 29.62297436 -0.16158076 25.86228406 -0.14648438 22.1015625 C-0.11439475 14.7342115 -0.06325032 7.3671564 0 0 Z " fill="#581F33" transform="translate(483,690)"/>
<path d="M0 0 C0.6069017 0.30390656 1.21380341 0.60781311 1.83909607 0.92092896 C6.56076426 3.27874568 11.313214 5.57348662 16.0625 7.875 C17.68575195 8.66970703 17.68575195 8.66970703 19.34179688 9.48046875 C29.36018818 14.324394 39.45065147 18.04211383 50.1875 20.9375 C51.12529297 21.19055908 52.06308594 21.44361816 53.02929688 21.7043457 C71.10321511 26.48149401 89.40491044 30.04490158 108 32 C108.99306152 32.10441406 109.98612305 32.20882812 111.00927734 32.31640625 C143.17797578 35.49058539 176.09654073 35.60003691 208.1875 31.75 C209.04386047 31.64767059 209.90022095 31.54534119 210.78253174 31.43991089 C229.4399165 29.15059886 247.85455544 25.67823634 265.95019531 20.57617188 C267.74141518 20.07268463 269.53826538 19.58931557 271.3359375 19.109375 C285.06671406 15.22663613 298.70771531 9.27705904 311.0390625 2.09375 C313 1 313 1 316 0 C316.1395718 8.05860984 316.24590677 16.11670727 316.31087303 24.17623043 C316.34206821 27.91943767 316.38431854 31.66181266 316.45263672 35.40454102 C316.51826019 39.02265554 316.55379469 42.63997426 316.56926346 46.25863838 C316.58027378 47.63291502 316.60177409 49.00715246 316.63438034 50.38108635 C316.86842709 60.66035216 315.25163667 66.47867946 308.18002319 73.91343689 C286.22015951 95.46861616 248.73821332 102.19525204 219.75 106.75 C218.49807861 106.94843506 217.24615723 107.14687012 215.95629883 107.35131836 C196.58152692 110.27234552 177.39966429 111.40579233 157.8125 111.375 C156.11761444 111.37567978 156.11761444 111.37567978 154.38848877 111.37637329 C134.96247831 111.35361258 116.18155177 109.98978424 97 107 C95.29609727 106.76696669 93.59172848 106.5372907 91.88671875 106.3125 C62.10956715 102.16664439 23.63564075 92.87689516 3.33984375 68.859375 C0.37942625 64.75104051 -0.24743996 61.85999062 -0.22705078 56.76269531 C-0.22689972 55.50169006 -0.22674866 54.24068481 -0.22659302 52.94146729 C-0.21638056 51.57035158 -0.20594858 50.19923749 -0.1953125 48.828125 C-0.19158057 47.42136842 -0.18873445 46.01460923 -0.18673706 44.60784912 C-0.17911476 40.91213761 -0.15947845 37.21658425 -0.1373291 33.52093506 C-0.11684036 29.74705138 -0.10772888 25.97314206 -0.09765625 22.19921875 C-0.07623112 14.79940721 -0.04211226 7.3997258 0 0 Z " fill="#581F33" transform="translate(483,482)"/>
<path d="M0 0 C3.12614415 1.23599934 6.14423462 2.52691074 9.1328125 4.06640625 C40.50244828 19.85651279 73.30317663 26.46279321 107.81509399 30.72354126 C109.92507939 30.99052021 112.03092904 31.28011044 114.13745117 31.57299805 C128.02823132 33.41572289 141.94385613 33.43794745 155.9375 33.4375 C157.22648193 33.43923218 158.51546387 33.44096436 159.84350586 33.44274902 C177.00995246 33.43267295 193.9542443 32.83303477 211 30.75 C211.84440643 30.64767059 212.68881287 30.54534119 213.55880737 30.43991089 C224.84175985 29.03053263 235.91877213 26.89592306 247.01611328 24.4362793 C249.50581023 23.88876657 252.0025714 23.37811484 254.5 22.8671875 C274.2606099 18.61512008 293.47216822 11.65187864 311.03515625 1.6171875 C314 0 314 0 316 0 C316.07613917 7.72291745 316.12863758 15.44573788 316.16479492 23.16894531 C316.1798702 25.79560971 316.20033366 28.42224899 316.22631836 31.04882812 C316.26275576 34.82688604 316.27973938 38.60461077 316.29296875 42.3828125 C316.30845261 43.55490265 316.32393646 44.7269928 316.33988953 45.93460083 C316.3416513 54.49251565 314.57497745 59.84701407 308.83203125 66.21875 C292.5573644 82.04230668 267.44194127 88.83904673 246 94 C245.04464355 94.2371875 244.08928711 94.474375 243.10498047 94.71875 C235.00590822 96.67365526 226.86896367 98.08668366 218.63427734 99.30761719 C216.50109979 99.62483645 214.36971032 99.95250996 212.23828125 100.28125 C210.83603176 100.49281318 209.43369074 100.70377081 208.03125 100.9140625 C206.79955078 101.0992041 205.56785156 101.2843457 204.29882812 101.47509766 C194.50988444 102.76620767 184.68838373 103.16130389 174.82421875 103.203125 C173.70769424 103.21004868 172.59116974 103.21697235 171.44081116 103.22410583 C167.85633787 103.24128559 164.27201252 103.24769325 160.6875 103.25 C159.46301147 103.25133942 158.23852295 103.25267883 156.97692871 103.25405884 C137.78579113 103.2495076 119.03426606 102.53133258 100 100 C98.31651238 99.8037748 96.63292809 99.60837599 94.94921875 99.4140625 C65.34531777 95.67389452 24.3681106 86.60490337 4 63 C-0.76011049 56.57263427 -0.52638979 50.88410695 -0.390625 43.06640625 C-0.38496521 41.83333237 -0.37930542 40.60025848 -0.37347412 39.32981873 C-0.35115549 35.40697761 -0.30096423 31.48506321 -0.25 27.5625 C-0.22766801 24.89649774 -0.21167969 22.23050418 -0.1953125 19.56445312 C-0.15130524 13.0426547 -0.08443668 6.52139358 0 0 Z " fill="#581F33" transform="translate(483,590)"/>
<path d="M0 0 C1.91317772 -0.00956978 1.91317772 -0.00956978 3.86500549 -0.01933289 C5.27059898 -0.02086242 6.67619298 -0.02197592 8.08178711 -0.02270508 C9.51850925 -0.02591786 10.95523106 -0.02928195 12.39195251 -0.03279114 C15.4125138 -0.03879265 18.43304645 -0.04063025 21.45361328 -0.04003906 C25.30800201 -0.03993796 29.16220436 -0.05353128 33.01654911 -0.07081127 C35.98928148 -0.08198618 38.96196978 -0.08395651 41.93472099 -0.08342934 C43.35436069 -0.08460346 44.77400175 -0.0889931 46.19362068 -0.0967617 C57.9177788 -0.15485723 66.75454464 0.45219802 76.04663086 8.14526367 C83.83341092 16.04797594 84.51342238 26.90759974 84.51538086 37.43432617 C84.52680115 39.14922745 84.52680115 39.14922745 84.53845215 40.89877319 C84.54919673 43.30057605 84.55212941 45.70242541 84.54760742 48.10424805 C84.54663169 51.76714846 84.58839333 55.42797552 84.63256836 59.09057617 C84.6377737 61.43432184 84.64046358 63.77807473 84.64038086 66.12182617 C84.65677612 67.20847565 84.67317139 68.29512512 84.69006348 69.41470337 C84.62842503 76.22555165 83.57997309 80.91834478 79.04663086 86.14526367 C76.42910694 88.08214001 74.10187754 88.90245146 71.04663086 90.14526367 C71.57772461 90.44819336 72.10881836 90.75112305 72.65600586 91.06323242 C77.98086881 94.22122596 82.011326 97.03934909 84.04663086 103.14526367 C84.15868536 104.80923852 84.21555816 106.47720374 84.23950195 108.14477539 C84.25556488 109.16368866 84.27162781 110.18260193 84.28817749 111.23239136 C84.33292122 115.92209087 84.37375116 120.61164985 84.39672852 125.30151367 C84.41321084 127.76287339 84.44039705 130.2241868 84.47875977 132.68530273 C84.94493504 162.77184948 84.94493504 162.77184948 75.73413086 173.20776367 C68.78959332 179.30503737 61.64975559 181.26829563 52.52807617 181.2746582 C51.23033264 181.27781036 49.93258911 181.28096252 48.59552002 181.28421021 C47.18859828 181.28242096 45.78167686 181.28037014 44.37475586 181.27807617 C42.92698144 181.27875006 41.47920714 181.2797208 40.03143311 181.28097534 C37.00540077 181.28244643 33.97939803 181.28031545 30.95336914 181.27563477 C27.06707042 181.26991737 23.18084046 181.27323285 19.29454422 181.27920723 C16.30923946 181.28281136 13.32395117 181.2816753 10.33864594 181.27907944 C8.90485374 181.27841081 7.47106006 181.27923636 6.03726959 181.28155899 C4.04071581 181.28408524 2.0441568 181.27955531 0.04760742 181.2746582 C-1.65851715 181.27346481 -1.65851715 181.27346481 -3.39910889 181.27224731 C-5.95336914 181.14526367 -5.95336914 181.14526367 -6.95336914 180.14526367 C-7.05268923 177.8439978 -7.07969377 175.53961411 -7.08035278 173.23620605 C-7.08269277 172.13954896 -7.08269277 172.13954896 -7.08508003 171.02073717 C-7.08909265 168.55246033 -7.08589938 166.08424418 -7.08276367 163.6159668 C-7.0841176 161.85391707 -7.08589748 160.09186763 -7.08807373 158.32981873 C-7.09264911 153.53037007 -7.09085808 148.73094281 -7.08769464 143.93149376 C-7.08517158 138.92043371 -7.08750843 133.90937555 -7.08908081 128.89831543 C-7.09090266 120.48144195 -7.08849578 112.06457723 -7.08374023 103.64770508 C-7.07829758 93.90188218 -7.08006023 84.1560802 -7.08556664 74.41025782 C-7.09009732 66.05869699 -7.09074854 57.70714247 -7.08812797 49.35558081 C-7.08656495 44.36054993 -7.08637212 39.36552891 -7.08966446 34.37049866 C-7.09254252 29.67563454 -7.09056868 24.98079753 -7.0847702 20.28593636 C-7.08344226 18.55769458 -7.0838373 16.82945054 -7.08603287 15.10120964 C-7.08874303 12.75221554 -7.08536492 10.40330968 -7.08035278 8.05432129 C-7.07997576 6.73653435 -7.07959873 5.41874741 -7.07921028 4.06102753 C-6.85782999 -1.0683972 -4.59507933 0.01552288 0 0 Z " fill="#FDFDFD" transform="translate(1309.953369140625,448.854736328125)"/>
<path d="M0 0 C1.26576874 -0.01283524 2.53153748 -0.02567047 3.83566284 -0.03889465 C5.2317465 -0.04706812 6.6278346 -0.05451068 8.02392578 -0.0612793 C8.72639561 -0.06535482 9.42886543 -0.06943035 10.15262222 -0.07362938 C13.88055377 -0.09453043 17.60844823 -0.1088068 21.33642578 -0.11816406 C25.16380508 -0.12915446 28.99059098 -0.16345515 32.81776237 -0.20333576 C35.77775033 -0.2296808 38.73760185 -0.23787224 41.69769669 -0.24144554 C43.10651723 -0.24627642 44.51533315 -0.25778893 45.92403793 -0.27648354 C57.63511119 -0.42206333 67.68777677 0.89157969 76.43798828 9.24731445 C81.63914076 15.30714776 83.21043934 21.90718323 83.23468018 29.76690674 C83.24039032 30.87985611 83.24610046 31.99280548 83.25198364 33.13948059 C83.25366043 34.95677925 83.25366043 34.95677925 83.25537109 36.81079102 C83.26281845 38.73603859 83.26281845 38.73603859 83.27041626 40.70018005 C83.28350208 44.21483849 83.28997781 47.72947786 83.29442692 51.24415684 C83.29736399 53.4431566 83.30146999 55.64215122 83.30593109 57.84114838 C83.31959634 64.73052547 83.32926759 71.61989074 83.33313298 78.50928044 C83.33761064 86.44490643 83.35514897 94.38035991 83.38413358 102.31593347 C83.40579556 108.46135057 83.41583968 114.60671929 83.4171741 120.75217414 C83.41821896 124.41725036 83.42405822 128.08216421 83.44199371 131.74720001 C83.46163441 135.84011698 83.4571675 139.93267576 83.45068359 144.02563477 C83.45989838 145.22907028 83.46911316 146.4325058 83.47860718 147.67240906 C83.42699593 158.09102178 81.5011261 166.53656362 74.09423828 174.17700195 C67.59287516 179.38337811 60.67823375 181.43036922 52.34863281 181.41992188 C50.40224411 181.42453682 50.40224411 181.42453682 48.41653442 181.429245 C47.02003803 181.42235038 45.62354344 181.41508365 44.22705078 181.4074707 C42.78213543 181.40627722 41.33721929 181.4058261 39.89230347 181.40608215 C36.87818481 181.40452458 33.86418616 181.39628604 30.85009766 181.3828125 C26.97954183 181.36573186 23.10911641 181.36200115 19.2385273 181.36275768 C16.26179756 181.36248652 13.28509653 181.35701549 10.30837631 181.34975624 C8.88016858 181.34656814 7.45195759 181.34460184 6.02374649 181.34386253 C4.03697798 181.34170568 2.05022152 181.3321783 0.06347656 181.32226562 C-1.06790741 181.31845383 -2.19929138 181.31464203 -3.36495972 181.31071472 C-5.90576172 181.17700195 -5.90576172 181.17700195 -6.90576172 180.17700195 C-7.00508181 177.87573608 -7.03208634 175.57135239 -7.03274536 173.26794434 C-7.03508535 172.17128724 -7.03508535 172.17128724 -7.03747261 171.05247545 C-7.04148523 168.58419861 -7.03829196 166.11598246 -7.03515625 163.64770508 C-7.03651017 161.88565535 -7.03829006 160.12360591 -7.04046631 158.36155701 C-7.04504169 153.56210835 -7.04325065 148.76268109 -7.04008722 143.96323204 C-7.03756416 138.95217199 -7.03990101 133.94111383 -7.04147339 128.93005371 C-7.04329524 120.51318023 -7.04088836 112.09631551 -7.03613281 103.67944336 C-7.03069016 93.93362046 -7.03245281 84.18781849 -7.03795922 74.4419961 C-7.0424899 66.09043527 -7.04314112 57.73888075 -7.04052055 49.38731909 C-7.03895753 44.39228821 -7.03876469 39.39726719 -7.04205704 34.40223694 C-7.0449351 29.70737282 -7.04296126 25.01253581 -7.03716278 20.31767464 C-7.03583483 18.58943286 -7.03622988 16.86118882 -7.03842545 15.13294792 C-7.0411356 12.78395382 -7.0377575 10.43504797 -7.03274536 8.08605957 C-7.03236834 6.76827263 -7.03199131 5.45048569 -7.03160286 4.09276581 C-6.81118185 -1.01443206 -4.58282736 0.04030513 0 0 Z " fill="#FEFEFE" transform="translate(880.90576171875,448.822998046875)"/>
<path d="M0 0 C0.76550171 -0.00761353 1.53100342 -0.01522705 2.31970215 -0.02307129 C3.93689717 -0.03386852 5.55416191 -0.03672689 7.17138672 -0.03222656 C9.6479885 -0.03125325 12.12150128 -0.07289135 14.59765625 -0.1171875 C16.16926437 -0.12239389 17.74088326 -0.1250827 19.3125 -0.125 C20.42353088 -0.1495929 20.42353088 -0.1495929 21.55700684 -0.17468262 C23.65039062 -0.14648438 23.65039062 -0.14648438 27.15625 0.46875 C29.51690913 3.67497468 30.6479691 6.65637221 31.47729492 10.52001953 C31.70910965 11.56221649 31.94092438 12.60441345 32.17976379 13.67819214 C32.560644 15.43463547 32.560644 15.43463547 32.94921875 17.2265625 C33.56345204 19.95203699 34.18137227 22.6763639 34.80615234 25.39941406 C34.98097924 26.16200216 35.15580614 26.92459026 35.33593082 27.71028709 C38.01908546 39.31420725 40.97595864 50.85203142 43.89453125 62.3984375 C44.19857754 63.60260567 44.50262383 64.80677383 44.81588364 66.04743195 C46.70751994 73.53832509 48.60310959 81.02821254 50.50006104 88.51776123 C52.1250296 94.93582906 53.74697369 101.35466109 55.36914062 107.7734375 C57.19189965 114.98524773 59.01496394 122.19697977 60.84016418 129.40817261 C61.11585236 130.49741531 61.39154053 131.58665802 61.67558289 132.70890808 C62.18636626 134.72677761 62.69724782 136.74462228 63.20825195 138.76243591 C63.65528863 140.52844039 64.09957087 142.29514541 64.54052162 144.06267929 C64.93984343 145.62310193 65.35916629 147.17859464 65.80187035 148.72726822 C67.00269015 153.02486119 67.06931628 154.90341861 66.15625 159.46875 C57.24625 159.46875 48.33625 159.46875 39.15625 159.46875 C35.77717272 151.58423634 35.77717272 151.58423634 34.76953125 147.33203125 C34.55361328 146.42517578 34.33769531 145.51832031 34.11523438 144.58398438 C33.90189453 143.65908203 33.68855469 142.73417969 33.46875 141.78125 C33.24380859 140.84474609 33.01886719 139.90824219 32.78710938 138.94335938 C31.85048709 134.95488575 31.15625 131.59530192 31.15625 127.46875 C16.96625 127.79875 2.77625 128.12875 -11.84375 128.46875 C-13.6930777 136.79800568 -13.6930777 136.79800568 -15.52270508 145.1315918 C-15.87691528 146.69647339 -15.87691528 146.69647339 -16.23828125 148.29296875 C-16.59176636 149.88757935 -16.59176636 149.88757935 -16.95239258 151.5144043 C-17.90434567 154.66959037 -18.73961917 156.91856084 -20.84375 159.46875 C-23.55517578 160.05224609 -23.55517578 160.05224609 -26.7890625 159.9921875 C-27.94792969 159.98058594 -29.10679688 159.96898437 -30.30078125 159.95703125 C-32.11642578 159.90095703 -32.11642578 159.90095703 -33.96875 159.84375 C-35.18691406 159.82957031 -36.40507813 159.81539062 -37.66015625 159.80078125 C-46.66225553 159.65024447 -46.66225553 159.65024447 -47.84375 158.46875 C-47.76328837 150.92615605 -45.83497355 143.64710047 -43.96386719 136.39160156 C-43.66939194 135.22579056 -43.37491669 134.05997955 -43.07151794 132.85884094 C-42.26850761 129.68524445 -41.45921786 126.51333082 -40.64721203 123.34202671 C-39.79120825 119.99184744 -38.94391044 116.63946787 -38.09576416 113.28729248 C-36.4852258 106.92692386 -34.8678546 100.56831587 -33.24757981 94.21042132 C-30.36113837 82.88343767 -27.48542381 71.55373052 -24.61354375 60.22304702 C-23.77210984 56.90424261 -22.92923744 53.58581695 -22.08290863 50.26825714 C-21.13335859 46.54563368 -20.18651407 42.82233683 -19.24121094 39.09863281 C-18.9449519 37.93431858 -18.64869286 36.77000435 -18.34345627 35.57040787 C-16.94566152 30.02927669 -15.60592567 24.48456555 -14.38879395 18.90075684 C-14.0537554 17.36692415 -14.0537554 17.36692415 -13.71194839 15.80210495 C-13.30272819 13.90113051 -12.90355672 11.99795289 -12.51653671 10.09233475 C-12.33820423 9.25835537 -12.15987175 8.42437599 -11.97613525 7.56512451 C-11.82841801 6.84184338 -11.68070076 6.11856224 -11.52850723 5.37336349 C-9.50095226 -0.26616594 -5.30103942 0.00144152 0 0 Z " fill="#FDFCFC" transform="translate(1450.84375,470.53125)"/>
<path d="M0 0 C0.76550171 -0.00761353 1.53100342 -0.01522705 2.31970215 -0.02307129 C3.93689717 -0.03386852 5.55416191 -0.03672689 7.17138672 -0.03222656 C9.6479885 -0.03125325 12.12150128 -0.07289135 14.59765625 -0.1171875 C16.16926437 -0.12239389 17.74088326 -0.1250827 19.3125 -0.125 C20.42353088 -0.1495929 20.42353088 -0.1495929 21.55700684 -0.17468262 C23.65039062 -0.14648438 23.65039062 -0.14648438 27.15625 0.46875 C29.51690913 3.67497468 30.6479691 6.65637221 31.47729492 10.52001953 C31.70910965 11.56221649 31.94092438 12.60441345 32.17976379 13.67819214 C32.560644 15.43463547 32.560644 15.43463547 32.94921875 17.2265625 C33.56345204 19.95203699 34.18137227 22.6763639 34.80615234 25.39941406 C34.98097924 26.16200216 35.15580614 26.92459026 35.33593082 27.71028709 C38.01908546 39.31420725 40.97595864 50.85203142 43.89453125 62.3984375 C44.19857754 63.60260567 44.50262383 64.80677383 44.81588364 66.04743195 C46.70751994 73.53832509 48.60310959 81.02821254 50.50006104 88.51776123 C52.1250296 94.93582906 53.74697369 101.35466109 55.36914062 107.7734375 C57.19189965 114.98524773 59.01496394 122.19697977 60.84016418 129.40817261 C61.11585236 130.49741531 61.39154053 131.58665802 61.67558289 132.70890808 C62.18636626 134.72677761 62.69724782 136.74462228 63.20825195 138.76243591 C63.65528863 140.52844039 64.09957087 142.29514541 64.54052162 144.06267929 C64.93984343 145.62310193 65.35916629 147.17859464 65.80187035 148.72726822 C67.00269015 153.02486119 67.06931628 154.90341861 66.15625 159.46875 C57.24625 159.46875 48.33625 159.46875 39.15625 159.46875 C35.77717272 151.58423634 35.77717272 151.58423634 34.76953125 147.33203125 C34.55361328 146.42517578 34.33769531 145.51832031 34.11523438 144.58398438 C33.90189453 143.65908203 33.68855469 142.73417969 33.46875 141.78125 C33.24380859 140.84474609 33.01886719 139.90824219 32.78710938 138.94335938 C31.85048709 134.95488575 31.15625 131.59530192 31.15625 127.46875 C16.96625 127.79875 2.77625 128.12875 -11.84375 128.46875 C-13.6930777 136.79800568 -13.6930777 136.79800568 -15.52270508 145.1315918 C-15.87691528 146.69647339 -15.87691528 146.69647339 -16.23828125 148.29296875 C-16.59176636 149.88757935 -16.59176636 149.88757935 -16.95239258 151.5144043 C-17.90434567 154.66959037 -18.73961917 156.91856084 -20.84375 159.46875 C-23.55517578 160.05224609 -23.55517578 160.05224609 -26.7890625 159.9921875 C-27.94792969 159.98058594 -29.10679688 159.96898437 -30.30078125 159.95703125 C-32.11642578 159.90095703 -32.11642578 159.90095703 -33.96875 159.84375 C-35.18691406 159.82957031 -36.40507813 159.81539062 -37.66015625 159.80078125 C-46.66225553 159.65024447 -46.66225553 159.65024447 -47.84375 158.46875 C-47.76328837 150.92615605 -45.83497355 143.64710047 -43.96386719 136.39160156 C-43.66939194 135.22579056 -43.37491669 134.05997955 -43.07151794 132.85884094 C-42.26850761 129.68524445 -41.45921786 126.51333082 -40.64721203 123.34202671 C-39.79120825 119.99184744 -38.94391044 116.63946787 -38.09576416 113.28729248 C-36.4852258 106.92692386 -34.8678546 100.56831587 -33.24757981 94.21042132 C-30.36113837 82.88343767 -27.48542381 71.55373052 -24.61354375 60.22304702 C-23.77210984 56.90424261 -22.92923744 53.58581695 -22.08290863 50.26825714 C-21.13335859 46.54563368 -20.18651407 42.82233683 -19.24121094 39.09863281 C-18.9449519 37.93431858 -18.64869286 36.77000435 -18.34345627 35.57040787 C-16.94566152 30.02927669 -15.60592567 24.48456555 -14.38879395 18.90075684 C-14.0537554 17.36692415 -14.0537554 17.36692415 -13.71194839 15.80210495 C-13.30272819 13.90113051 -12.90355672 11.99795289 -12.51653671 10.09233475 C-12.33820423 9.25835537 -12.15987175 8.42437599 -11.97613525 7.56512451 C-11.82841801 6.84184338 -11.68070076 6.11856224 -11.52850723 5.37336349 C-9.50095226 -0.26616594 -5.30103942 0.00144152 0 0 Z " fill="#FDFCFC" transform="translate(1217.84375,470.53125)"/>
<path d="M0 0 C0.74584854 0.00091141 1.49169708 0.00182281 2.26014709 0.00276184 C3.02706375 -0.00152328 3.79398041 -0.00580841 4.58413696 -0.01022339 C6.20733146 -0.01597014 7.83055172 -0.0164644 9.45375061 -0.01213074 C11.93849128 -0.00897351 14.42203836 -0.03241445 16.90663147 -0.05778503 C18.48280184 -0.06005827 20.05897542 -0.06076141 21.63514709 -0.05973816 C22.37897141 -0.06894791 23.12279572 -0.07815765 23.88916016 -0.08764648 C29.05229975 -0.04130922 29.05229975 -0.04130922 31.15283203 1.5274353 C32.82833697 3.71361718 33.24690841 5.39816008 33.81532288 8.09358215 C34.04420197 9.13238525 34.27308105 10.17118835 34.50889587 11.24147034 C34.76067596 12.4221106 35.01245605 13.60275085 35.27186584 14.81916809 C35.88514967 17.5634051 36.50281839 20.3062382 37.12831116 23.04768372 C37.30449163 23.82110485 37.48067211 24.59452599 37.66219139 25.39138412 C40.40720946 37.32292765 43.48542224 49.17398116 46.50624084 61.03791809 C47.14781732 63.5643569 47.78919347 66.09084658 48.43037415 68.61738586 C51.09194527 79.10104696 53.75815198 89.58351519 56.43299866 100.063797 C58.08794301 106.54823491 59.73525279 113.03457372 61.37846756 119.52199554 C62.0001446 121.97057385 62.62447702 124.41847966 63.25159836 126.86566925 C64.12417651 130.27137937 64.98779974 133.67924734 65.84950256 137.08772278 C66.10608139 138.0799736 66.36266022 139.07222443 66.62701416 140.09454346 C68.12917088 146.08365514 69.42413692 152.10259341 69.51405334 158.30354309 C66.84007315 160.97752329 59.2329817 159.636709 55.63905334 159.67854309 C54.42862366 159.7159259 53.21819397 159.75330872 51.97108459 159.79182434 C50.81221741 159.8034259 49.65335022 159.81502747 48.45936584 159.82698059 C47.39218323 159.84679993 46.32500061 159.86661926 45.22547913 159.88703918 C42.51405334 159.30354309 42.51405334 159.30354309 40.74281311 157.13874817 C39.48414164 154.23452569 38.6286948 151.49840363 37.90858459 148.41682434 C37.51703186 146.76263489 37.51703186 146.76263489 37.11756897 145.07502747 C36.85653381 143.93356262 36.59549866 142.79209778 36.32655334 141.61604309 C36.05391663 140.46297668 35.78127991 139.30991028 35.50038147 138.12190247 C33.51405334 129.63395897 33.51405334 129.63395897 33.51405334 127.30354309 C19.32405334 127.30354309 5.13405334 127.30354309 -9.48594666 127.30354309 C-10.14594666 131.59354309 -10.80594666 135.88354309 -11.48594666 140.30354309 C-12.28366929 143.59383833 -13.10319938 146.81109248 -14.04844666 150.05354309 C-14.26952087 150.84502747 -14.49059509 151.63651184 -14.71836853 152.45198059 C-16.34117625 158.15877268 -16.34117625 158.15877268 -17.48594666 159.30354309 C-19.48559648 159.39112312 -21.48830775 159.41050885 -23.48985291 159.40119934 C-24.70479431 159.39797668 -25.91973572 159.39475403 -27.17149353 159.39143372 C-28.45088806 159.38305481 -29.73028259 159.3746759 -31.04844666 159.36604309 C-32.33170837 159.36153137 -33.61497009 159.35701965 -34.93711853 159.35237122 C-38.12010688 159.34053855 -41.30300428 159.32405377 -44.48594666 159.30354309 C-45.5133863 155.40029727 -45.37874797 152.76637715 -44.38703918 148.87031555 C-44.11797256 147.79153641 -43.84890594 146.71275726 -43.57168579 145.60128784 C-43.11521416 143.84032021 -43.11521416 143.84032021 -42.64952087 142.04377747 C-42.33583054 140.79906174 -42.0221402 139.55434601 -41.69894409 138.27191162 C-40.8381839 134.85729916 -39.96438826 131.44614195 -39.08833838 128.03542519 C-38.16863896 124.44509527 -37.26129298 120.85164657 -36.35267639 117.25849915 C-34.62451756 110.43208526 -32.8857959 103.60840959 -31.14304936 96.785707 C-28.60553593 86.84955149 -26.08428098 76.90927016 -23.5623951 66.9691391 C-23.18610146 65.48608168 -22.8097988 64.00302655 -22.43348694 62.51997375 C-22.24923475 61.7937735 -22.06498257 61.06757325 -21.87514699 60.31936693 C-20.7961026 56.06792009 -19.7142874 51.81719115 -18.62981474 47.5671258 C-17.94926531 44.89968726 -17.26967936 42.23200403 -16.59043527 39.56423283 C-16.10680789 37.66530074 -15.62246272 35.76655151 -15.13810539 33.86780548 C-13.69736692 28.19296134 -12.2870868 22.51475471 -10.96452332 16.81111145 C-10.73564989 15.82487541 -10.50677647 14.83863937 -10.27096748 13.8225174 C-9.85523413 12.01331572 -9.4460655 10.20258717 -9.04490471 8.39009857 C-7.56330314 1.91014371 -6.84567095 0.09444748 0 0 Z " fill="#FDFCFC" transform="translate(1018.4859466552734,470.6964569091797)"/>
<path d="M0 0 C1.20974991 -0.01210762 1.20974991 -0.01210762 2.44393921 -0.02445984 C4.14668673 -0.03823824 5.84946114 -0.04898807 7.55224609 -0.05688477 C9.27238209 -0.06836959 10.99248343 -0.08876572 12.71240234 -0.1184082 C25.49962856 -0.33828462 38.0311993 -0.28561205 47.8359375 9.171875 C55.11552818 18.08600341 55.70474958 26.82402837 55.7109375 37.86328125 C55.72318359 39.02085937 55.73542969 40.1784375 55.74804688 41.37109375 C55.74998047 42.47453125 55.75191406 43.57796875 55.75390625 44.71484375 C55.75801514 45.72627441 55.76212402 46.73770508 55.76635742 47.77978516 C55.5234375 50.23828125 55.5234375 50.23828125 53.5234375 52.23828125 C49.04085798 52.69873614 44.52691715 52.56228145 40.0234375 52.55078125 C38.13044922 52.57495117 38.13044922 52.57495117 36.19921875 52.59960938 C34.99652344 52.60025391 33.79382812 52.60089844 32.5546875 52.6015625 C31.44673828 52.60454346 30.33878906 52.60752441 29.19726562 52.6105957 C28.31490234 52.48773193 27.43253906 52.36486816 26.5234375 52.23828125 C23.7393277 48.06211655 24.19904355 43.91204189 24.22070312 39.04296875 C24.12288901 35.62262995 24.01654389 33.72944244 21.54296875 31.265625 C17.46504456 29.8781812 13.80393673 29.76256251 9.5234375 29.80078125 C8.729375 29.78080078 7.9353125 29.76082031 7.1171875 29.74023438 C3.48307263 29.7432628 0.88840281 30.08538398 -2.48828125 31.5 C-5.78732099 36.04347124 -5.26051139 41.0191576 -5.2890625 46.48828125 C-5.31419922 47.61492188 -5.33933594 48.7415625 -5.36523438 49.90234375 C-5.42411142 52.68134033 -5.46038775 55.45876158 -5.4765625 58.23828125 C-4.62320312 58.42261719 -3.76984375 58.60695313 -2.890625 58.796875 C7.30586862 61.16204105 17.08479114 64.38166223 26.94482422 67.88842773 C28.52094482 68.44832397 28.52094482 68.44832397 30.12890625 69.01953125 C31.69390869 69.57640625 31.69390869 69.57640625 33.29052734 70.14453125 C37.69530199 71.63474349 42.15901231 72.89730223 46.6418457 74.13085938 C50.46080536 75.59852023 53.65494415 77.50129456 55.5234375 81.23828125 C55.63399429 82.87485422 55.68257667 84.51580014 55.70043945 86.15600586 C55.71969231 87.69417213 55.71969231 87.69417213 55.73933411 89.26341248 C55.74672104 90.37789261 55.75410797 91.49237274 55.76171875 92.640625 C55.7697905 93.78809708 55.77786224 94.93556915 55.78617859 96.11781311 C55.80003434 98.55484501 55.81074979 100.99189644 55.81860352 103.42895508 C55.83572317 107.12945383 55.87958616 110.82903751 55.92382812 114.52929688 C55.93396321 116.89973303 55.94247675 119.27017677 55.94921875 121.640625 C55.96672684 122.73688705 55.98423492 123.83314911 56.00227356 124.96263123 C55.97442907 134.99244616 53.53546295 144.73274081 46.5234375 152.23828125 C39.18064214 158.38573783 30.03940201 159.70464284 20.74609375 159.671875 C19.85409775 159.67711685 18.96210175 159.6823587 18.04307556 159.6877594 C16.17171257 159.69413304 14.30030926 159.69290368 12.42895508 159.68432617 C9.59577851 159.67581083 6.76461925 159.70465141 3.93164062 159.73632812 C-6.81428022 159.7777495 -16.78095921 159.59498489 -25.8515625 153.05078125 C-34.6196397 143.65641282 -35.79800825 133.71448891 -35.6640625 121.36328125 C-35.6630957 119.63464844 -35.6630957 119.63464844 -35.66210938 117.87109375 C-35.61704394 109.37876269 -35.61704394 109.37876269 -34.4765625 108.23828125 C-32.4160094 108.13834593 -30.3520366 108.10747219 -28.2890625 108.10546875 C-27.03351563 108.10417969 -25.77796875 108.10289062 -24.484375 108.1015625 C-23.82727539 108.10365723 -23.17017578 108.10575195 -22.49316406 108.10791016 C-20.48494915 108.11325891 -18.47695791 108.10796434 -16.46875 108.1015625 C-15.21320313 108.10285156 -13.95765625 108.10414063 -12.6640625 108.10546875 C-11.50261719 108.10659668 -10.34117188 108.10772461 -9.14453125 108.10888672 C-6.4765625 108.23828125 -6.4765625 108.23828125 -5.4765625 109.23828125 C-5.23928455 112.3605578 -5.08102594 115.47508419 -4.95898438 118.60351562 C-4.77042128 122.2431392 -4.57665541 125.18975928 -2.4765625 128.23828125 C-0.11683481 129.4181451 1.32391482 129.36739585 3.953125 129.37109375 C4.83097656 129.37238281 5.70882813 129.37367188 6.61328125 129.375 C7.99193359 129.36919922 7.99193359 129.36919922 9.3984375 129.36328125 C10.30980469 129.36714844 11.22117187 129.37101563 12.16015625 129.375 C13.48080078 129.37306641 13.48080078 129.37306641 14.828125 129.37109375 C16.0344458 129.36940186 16.0344458 129.36940186 17.26513672 129.36767578 C19.84375205 129.29040804 19.84375205 129.29040804 23.5234375 128.23828125 C23.5234375 118.33828125 23.5234375 108.43828125 23.5234375 98.23828125 C20.0275 97.24828125 20.0275 97.24828125 16.4609375 96.23828125 C8.1317573 93.82923371 -0.03749458 91.01754331 -8.20703125 88.11791992 C-14.37310082 85.93669353 -20.52183543 83.96301629 -26.85546875 82.3203125 C-30.4026577 80.85597369 -33.20944771 79.3550397 -35.4765625 76.23828125 C-36.37370214 72.43004841 -36.29374373 68.69454438 -36.23828125 64.796875 C-36.24164993 63.67821548 -36.24501862 62.55955597 -36.24848938 61.40699768 C-36.24819057 59.03910733 -36.23294558 56.67117849 -36.20385742 54.3034668 C-36.16446144 50.71214804 -36.18306903 47.12457616 -36.20898438 43.53320312 C-36.20141717 41.22524628 -36.19045561 38.91729759 -36.17578125 36.609375 C-36.18276535 35.54955917 -36.18974945 34.48974335 -36.19694519 33.39781189 C-36.03620698 24.72932941 -34.127475 16.37993638 -28.26567078 9.73020935 C-19.85260982 1.74353464 -11.38467314 0.11027901 0 0 Z " fill="#FCFCFC" transform="translate(1564.4765625,470.76171875)"/>
<path d="M0 0 C0.80318161 0.00404846 1.60636322 0.00809692 2.43388367 0.01226807 C3.70234383 0.00701111 3.70234383 0.00701111 4.99642944 0.00164795 C7.80053337 -0.00717733 10.6043864 -0.00131743 13.40849304 0.00543213 C15.35140532 0.00408571 17.29431727 0.00214537 19.23722839 -0.00036621 C23.31274111 -0.00331855 27.38816627 0.00098371 31.46366882 0.01031494 C36.69632689 0.02170953 41.92877982 0.01515064 47.16143036 0.00317001 C51.17447973 -0.00404561 55.18748019 -0.00176203 59.20053101 0.0034256 C61.1303103 0.00476292 63.06009399 0.00311151 64.98986816 -0.00153351 C67.68356646 -0.00659387 70.37692921 0.00110451 73.07060242 0.01226807 C73.87378403 0.0082196 74.67696564 0.00417114 75.50448608 0 C81.02371483 0.04252892 81.02371483 0.04252892 83.25224304 2.27105713 C83.5110321 4.94488525 83.5110321 4.94488525 83.51786804 8.30230713 C83.52173523 10.1063501 83.52173523 10.1063501 83.52568054 11.94683838 C83.51794617 13.20883057 83.51021179 14.47082275 83.50224304 15.77105713 C83.5138446 17.66404541 83.5138446 17.66404541 83.52568054 19.59527588 C83.52310242 20.79797119 83.52052429 22.0006665 83.51786804 23.23980713 C83.51561218 24.34775635 83.51335632 25.45570557 83.5110321 26.597229 C83.25224304 29.27105713 83.25224304 29.27105713 81.25224304 31.27105713 C78.80982971 31.51156616 78.80982971 31.51156616 75.70097351 31.49810791 C73.95939468 31.49788132 73.95939468 31.49788132 72.18263245 31.49765015 C70.92427582 31.48732758 69.66591919 31.477005 68.36943054 31.46636963 C67.08488983 31.46353973 65.80034912 31.46070984 64.47688293 31.45779419 C61.06061537 31.45015522 57.64451767 31.43050465 54.22831726 31.40838623 C50.74282674 31.38793338 47.25730797 31.37868417 43.77177429 31.36871338 C36.93178049 31.34831984 30.09225323 31.30917483 23.25224304 31.27105713 C23.25224304 42.49105713 23.25224304 53.71105713 23.25224304 65.27105713 C26.40528992 65.247854 29.55833679 65.22465088 32.80693054 65.20074463 C35.85168556 65.18515913 38.89643618 65.17300811 41.94120789 65.16119385 C44.06167074 65.15111962 46.18211965 65.1374598 48.30253601 65.12017822 C51.34570247 65.09599223 54.38868571 65.08458843 57.43193054 65.07574463 C58.38405426 65.06542206 59.33617798 65.05509949 60.31715393 65.04446411 C61.19791595 65.04431305 62.07867798 65.04416199 62.98612976 65.04400635 C63.76334381 65.03956512 64.54055786 65.0351239 65.34132385 65.0305481 C67.25224304 65.27105713 67.25224304 65.27105713 69.25224304 67.27105713 C69.5110321 69.94488525 69.5110321 69.94488525 69.51786804 73.30230713 C69.52173523 75.1063501 69.52173523 75.1063501 69.52568054 76.94683838 C69.51794617 78.20883057 69.51021179 79.47082275 69.50224304 80.77105713 C69.5138446 82.66404541 69.5138446 82.66404541 69.52568054 84.59527588 C69.52310242 85.79797119 69.52052429 87.0006665 69.51786804 88.23980713 C69.51561218 89.34775635 69.51335632 90.45570557 69.5110321 91.597229 C69.25224304 94.27105713 69.25224304 94.27105713 67.25224304 96.27105713 C65.34132385 96.51156616 65.34132385 96.51156616 62.98612976 96.49810791 C62.10536774 96.49795685 61.22460571 96.49780579 60.31715393 96.49765015 C59.36503021 96.48732758 58.41290649 96.477005 57.43193054 96.46636963 C55.97123642 96.46212479 55.97123642 96.46212479 54.48103333 96.45779419 C51.36297956 96.44657626 48.24521037 96.42146883 45.12724304 96.39605713 C43.0165701 96.38602941 40.90589267 96.3769032 38.79521179 96.36871338 C33.61402369 96.34833105 28.43345286 96.30918541 23.25224304 96.27105713 C23.25224304 107.16105713 23.25224304 118.05105713 23.25224304 129.27105713 C27.41591492 129.247854 31.57958679 129.22465088 35.86943054 129.20074463 C39.1845284 129.18788723 42.49961923 129.17704003 45.81472778 129.16755676 C49.31689945 129.15698522 52.8189747 129.14285291 56.3210907 129.12017822 C60.3372136 129.0943376 64.35323401 129.08459247 68.36943054 129.07574463 C70.25696548 129.06026077 70.25696548 129.06026077 72.18263245 129.04446411 C73.343685 129.04431305 74.50473755 129.04416199 75.70097351 129.04400635 C76.72689606 129.03956512 77.7528186 129.0351239 78.80982971 129.0305481 C81.25224304 129.27105713 81.25224304 129.27105713 83.25224304 131.27105713 C83.5110321 133.85308838 83.5110321 133.85308838 83.51786804 137.08355713 C83.52173523 138.81992432 83.52173523 138.81992432 83.52568054 140.59136963 C83.51794617 141.8056665 83.51021179 143.01996338 83.50224304 144.27105713 C83.5138446 146.09250244 83.5138446 146.09250244 83.52568054 147.95074463 C83.52310242 149.10832275 83.52052429 150.26590088 83.51786804 151.45855713 C83.51561218 152.52461182 83.51335632 153.5906665 83.5110321 154.68902588 C83.25224304 157.27105713 83.25224304 157.27105713 81.25224304 159.27105713 C78.491966 159.4696516 75.83201035 159.54376515 73.07060242 159.52984619 C71.80214226 159.53510315 71.80214226 159.53510315 70.50805664 159.54046631 C67.70395271 159.54929158 64.90009968 159.54343169 62.09599304 159.53668213 C60.15308076 159.53802855 58.21016881 159.53996889 56.26725769 159.54248047 C52.19174497 159.54543281 48.11631982 159.54113055 44.04081726 159.53179932 C38.80815919 159.52040473 33.57570626 159.52696361 28.34305573 159.53894424 C24.33000636 159.54615987 20.31700589 159.54387628 16.30395508 159.53868866 C14.37417578 159.53735134 12.44439209 159.53900275 10.51461792 159.54364777 C7.82091962 159.54870813 5.12755687 159.54100975 2.43388367 159.52984619 C1.63070206 159.53389465 0.82752045 159.53794312 0 159.54211426 C-5.51922875 159.49958534 -5.51922875 159.49958534 -7.74775696 157.27105713 C-7.99943924 154.60985565 -7.99943924 154.60985565 -8.00172424 151.15960693 C-8.00736389 149.85555405 -8.01300354 148.55150116 -8.01881409 147.20793152 C-8.01492511 145.75436346 -8.01082875 144.30079595 -8.00654602 142.847229 C-8.00925477 141.32310315 -8.01281504 139.79897861 -8.01716614 138.27485657 C-8.02630632 134.12824627 -8.02273921 129.98173516 -8.01640797 125.83512306 C-8.01135638 121.50252636 -8.01603707 117.16993834 -8.0191803 112.83734131 C-8.0228224 105.56051096 -8.01801445 98.28372117 -8.00849915 91.00689697 C-7.99761412 82.58514198 -8.00113953 74.16348381 -8.01215196 65.74173117 C-8.02121788 58.52047949 -8.02251352 51.29925702 -8.01727462 44.0780015 C-8.01415108 39.7609031 -8.01375605 35.44385026 -8.0203476 31.12675476 C-8.02611036 27.06876005 -8.0221439 23.0108906 -8.01055908 18.95290947 C-8.00790674 17.46052191 -8.00868732 15.96812387 -8.01308441 14.47574043 C-8.01851849 12.44466647 -8.010508 10.41356956 -8.00172424 8.38250732 C-8.00097019 7.24392525 -8.00021614 6.10534317 -7.99943924 4.93225861 C-7.50335038 -0.31321355 -4.57703559 0.03526877 0 0 Z " fill="#FCFBFB" transform="translate(1649.7477569580078,470.72894287109375)"/>
<path d="M0 0 C0.80475266 0.00561951 1.60950531 0.01123901 2.43864441 0.01702881 C3.70951401 0.01418129 3.70951401 0.01418129 5.00605774 0.01127625 C7.81497869 0.0075624 10.62364281 0.01828048 13.43254089 0.02947998 C15.377848 0.03067145 17.32315568 0.03112501 19.26846313 0.03086853 C23.348176 0.0324344 27.42780124 0.04073257 31.50749207 0.05413818 C36.74916981 0.07113943 41.99075126 0.07495227 47.23245335 0.074193 C51.24974495 0.0744643 55.2670153 0.07993881 59.28429985 0.08719444 C61.21769487 0.09038684 63.15109231 0.09234984 65.08448982 0.09308815 C67.78070851 0.09524505 70.47682294 0.10397478 73.17301941 0.11468506 C73.9797963 0.11423187 74.78657318 0.11377869 75.61779785 0.11331177 C81.12666018 0.14547426 81.12666018 0.14547426 82.24113464 1.25994873 C82.49529014 5.90010198 82.42636262 10.55116179 82.42863464 15.19744873 C82.44088074 16.51164795 82.45312683 17.82584717 82.46574402 19.17987061 C82.46767761 20.43219482 82.46961121 21.68451904 82.47160339 22.97479248 C82.47571228 24.13100098 82.47982117 25.28720947 82.48405457 26.47845459 C82.24113464 29.25994873 82.24113464 29.25994873 80.24113464 31.25994873 C77.53556824 31.48699951 77.53556824 31.48699951 74.13957214 31.45526123 C72.92785339 31.44881592 71.71613464 31.44237061 70.46769714 31.43572998 C69.19668152 31.41897217 67.92566589 31.40221436 66.61613464 31.38494873 C65.33738464 31.37592529 64.05863464 31.36690186 62.74113464 31.35760498 C59.57428297 31.33397176 56.40780041 31.30102502 53.24113464 31.25994873 C53.24297823 31.90747541 53.24482182 32.5550021 53.24672127 33.2221508 C53.29084762 48.96189364 53.3239655 64.70161503 53.34475899 80.44140434 C53.35508126 88.05297946 53.36915969 95.66451335 53.39201355 103.27606201 C53.41191839 109.90858141 53.42484416 116.54107095 53.42931163 123.17361939 C53.43192396 126.68705129 53.43808365 130.20039776 53.45259476 133.71380234 C53.46864466 137.63138202 53.4691162 141.54887734 53.46818542 145.4664917 C53.47537598 146.6374942 53.48256653 147.8084967 53.48997498 149.01498413 C53.48722565 150.07791687 53.48447632 151.14084961 53.48164368 152.23599243 C53.48348726 153.16331617 53.48533085 154.09063992 53.4872303 155.04606438 C53.24113464 157.25994873 53.24113464 157.25994873 51.24113464 159.25994873 C48.4596405 159.50286865 48.4596405 159.50286865 44.95597839 159.49041748 C43.70365417 159.48848389 42.45132996 159.48655029 41.16105652 159.48455811 C39.8468573 159.47231201 38.53265808 159.46006592 37.17863464 159.44744873 C35.86056824 159.4468042 34.54250183 159.44615967 33.18449402 159.44549561 C23.38122587 159.40003996 23.38122587 159.40003996 22.24113464 158.25994873 C22.14502046 156.60237253 22.1192571 154.94067887 22.12088013 153.28031921 C22.11950546 152.20193283 22.1181308 151.12354645 22.11671448 150.01248169 C22.12030975 148.81918243 22.12390503 147.62588318 22.12760925 146.39642334 C22.12746323 145.14782028 22.1273172 143.89921722 22.12716675 142.61277771 C22.12774573 139.17903879 22.1327751 135.74535935 22.13974071 132.31163096 C22.14597467 128.72682414 22.14657808 125.14201661 22.14776611 121.5572052 C22.15087931 114.76444828 22.15909253 107.97170738 22.1691156 101.17895752 C22.18027712 93.44752379 22.18578729 85.71608931 22.19081104 77.98464954 C22.20127515 62.07640665 22.21887436 46.16817975 22.24113464 30.25994873 C20.93124573 30.26780396 20.93124573 30.26780396 19.59489441 30.27581787 C16.36524192 30.29282624 13.13561219 30.30538242 9.90592957 30.31488037 C8.50618236 30.31991953 7.10644044 30.3267509 5.70671082 30.33538818 C3.69867688 30.34747193 1.69060507 30.3526468 -0.31745911 30.35760498 C-1.5271637 30.3628418 -2.73686829 30.36807861 -3.98323059 30.37347412 C-6.75886536 30.25994873 -6.75886536 30.25994873 -7.75886536 29.25994873 C-8.0126677 24.78662915 -7.94409257 20.30211413 -7.94636536 15.82244873 C-7.9647345 13.92269287 -7.9647345 13.92269287 -7.98347473 11.98455811 C-7.98540833 10.77735107 -7.98734192 9.57014404 -7.98933411 8.32635498 C-7.99344299 7.21204102 -7.99755188 6.09772705 -8.00178528 4.949646 C-7.52519543 -0.32732928 -4.60263184 0.02632586 0 0 Z " fill="#FCFBFB" transform="translate(1091.7588653564453,470.74005126953125)"/>
<path d="M0 0 C23 0 23 0 29 4 C30.57666351 5.57666351 30.13249663 7.1555972 30.14044189 9.34529114 C30.14900711 10.75226006 30.14900711 10.75226006 30.15774536 12.18765259 C30.15886322 13.22505585 30.15998108 14.26245911 30.16113281 15.33129883 C30.16609772 16.41741959 30.17106262 17.50354034 30.17617798 18.62257385 C30.19084436 22.23406598 30.19760927 25.84551417 30.203125 29.45703125 C30.20887306 31.95708722 30.21463083 34.45714317 30.22039795 36.9571991 C30.22957396 41.53522859 30.23586889 46.1132454 30.2388947 50.69128305 C30.24337383 57.43165174 30.26091168 64.17181748 30.2898953 70.91212445 C30.31411322 76.74643852 30.32183892 82.58068483 30.32357025 88.41504478 C30.32660338 90.89860831 30.33465397 93.38217085 30.34775543 95.86570168 C30.36476155 99.33746432 30.36294868 102.80873047 30.35644531 106.28051758 C30.3656601 107.31184814 30.37487488 108.34317871 30.3843689 109.40576172 C30.37879974 110.35220047 30.37323059 111.29863922 30.36749268 112.27375793 C30.36895924 113.09469846 30.3704258 113.91563898 30.3719368 114.76145649 C29.90434576 117.5757058 28.94430427 118.93587635 27 121 C18.45599625 123.84800125 9.00617072 122 0 122 C0 81.74 0 41.48 0 0 Z " fill="#5C2438" transform="translate(904,478)"/>
<path d="M0 0 C4.99813911 3.6788878 9.2748381 8.76279044 10.2265625 15.00390625 C10.47813399 22.94937263 9.0032468 28.22978974 3.8203125 34.33984375 C-0.56670848 38.83857129 -4.93196976 39.714421 -11.1171875 40.02734375 C-17.93093834 39.75012477 -22.39003233 38.24112224 -27.1796875 33.33984375 C-31.8081468 27.80534171 -32.99104914 22.34623953 -32.6640625 15.20703125 C-31.67048523 9.32569483 -28.5453679 5.36681199 -24.1796875 1.46484375 C-16.69583951 -3.83621525 -8.12480051 -4.62159705 0 0 Z " fill="#571F33" transform="translate(345.1796875,292.66015625)"/>
<path d="M0 0 C4.62071639 4.72573268 6.94269262 9.14392985 7.25 15.8125 C6.96734882 21.75729256 5.18073112 26.22048815 1.1015625 30.5703125 C-4.89728641 35.99285278 -10.20109184 37.33371429 -18.23828125 37.1953125 C-24.08958881 36.45156653 -27.6636653 33.482326 -31.625 29.3125 C-35.84292972 22.82337735 -36.26343264 16.39082372 -35.25 8.8125 C-32.61279456 2.3086446 -28.56294049 -1.38174867 -22.25 -4.1875 C-14.26665609 -7.18125397 -6.69262485 -4.50465134 0 0 Z " fill="#571F33" transform="translate(287.25,295.1875)"/>
<path d="M0 0 C5.05955511 3.13809886 7.75559882 6.53621931 10.23046875 11.8984375 C10.72546875 12.8884375 10.72546875 12.8884375 11.23046875 13.8984375 C11.95446141 20.94846438 11.71572732 27.17284207 7.23046875 32.8984375 C1.90944525 37.98171315 -3.25432039 40.49505265 -10.58203125 41.3359375 C-16.60064381 41.14030382 -21.55288077 38.24029627 -25.63671875 33.92578125 C-30.41242429 27.81333516 -31.48684092 22.59321394 -30.76953125 14.8984375 C-28.77278428 8.6980127 -25.71178142 3.65456687 -20.02734375 0.26171875 C-13.75120667 -2.36462638 -6.35715385 -2.52851535 0 0 Z " fill="#571F33" transform="translate(343.76953125,442.1015625)"/>
<path d="M0 0 C4.85461224 3.61273469 9.41599014 8.30492265 11.6875 14 C12.70451222 21.88514671 10.99745008 27.63407274 6.5 34.1875 C1.80855558 38.87894442 -2.62340564 41.1917468 -9.3125 41.5 C-16.19736469 41.17265214 -21.05006097 38.67689614 -25.6875 33.625 C-30.36875407 27.60806203 -31.08992921 21.44631419 -30.3125 14 C-28.10522761 7.84287176 -23.69724083 3.58982722 -18.3125 0 C-12.4934392 -1.93968693 -5.84577518 -1.76476232 0 0 Z " fill="#571F33" transform="translate(343.3125,592)"/>
<path d="M0 0 C5.40105035 4.91197886 8.70932145 9.45372172 9.3125 16.8125 C9.12798109 23.33216811 6.75531431 29.48854796 2 34 C-3.4894274 37.64618848 -8.81671218 39.93125063 -15.48046875 39.54296875 C-21.76815489 38.18794802 -27.22070657 34.60307649 -31.125 29.5 C-34.21072642 23.76936522 -33.91568822 17.28528397 -33 11 C-30.644509 4.75073817 -26.30933586 0.50424357 -20.25 -2.25 C-13.28940493 -3.85629117 -6.23649275 -3.82809108 0 0 Z " fill="#571F33" transform="translate(285,594)"/>
<path d="M0 0 C5.05826658 3.17381432 8.65550348 7.33565823 11.625 12.5 C13.30541133 19.96849482 12.01253007 25.48374356 8.1875 32 C4.23318838 36.78679827 0.01951943 39.57618271 -6.1796875 40.50390625 C-13.11777302 40.61979855 -17.98251177 40.50446471 -23.26171875 35.72265625 C-28.7725878 29.60101078 -30.22944736 24.26828127 -30.16015625 16.08203125 C-29.49235856 10.16189221 -26.50833454 6.57174908 -22.25 2.625 C-15.2005665 -2.07462233 -8.16291407 -2.14109222 0 0 Z " fill="#581F33" transform="translate(281.8125,442)"/>
<path d="M0 0 C23 0 23 0 28 3 C30.06561651 5.06561651 29.21244567 9.42435991 29.23828125 12.26953125 C29.246353 13.10207932 29.25442474 13.93462738 29.26274109 14.79240417 C29.27659853 16.55860298 29.28731323 18.32482875 29.29516602 20.09106445 C29.31236335 22.79104556 29.35623104 25.48979745 29.40039062 28.18945312 C29.41051855 29.90363681 29.41903434 31.61783093 29.42578125 33.33203125 C29.44328934 34.13945267 29.46079742 34.94687408 29.47883606 35.77876282 C29.46530246 39.28182102 29.29057288 41.55946229 27.33959961 44.51733398 C24.39077456 46.38608224 22.61787107 46.46158921 19.140625 46.390625 C18.13547852 46.38063477 17.13033203 46.37064453 16.09472656 46.36035156 C14.8259668 46.32393555 13.55720703 46.28751953 12.25 46.25 C6.18625 46.12625 6.18625 46.12625 0 46 C0 30.82 0 15.64 0 0 Z " fill="#5A2135" transform="translate(1334,554)"/>
<path d="M0 0 C4.0425 -0.0825 8.085 -0.165 12.25 -0.25 C13.51875977 -0.28641602 14.78751953 -0.32283203 16.09472656 -0.36035156 C17.09987305 -0.3703418 18.10501953 -0.38033203 19.140625 -0.390625 C20.16704102 -0.41157227 21.19345703 -0.43251953 22.25097656 -0.45410156 C25 0 25 0 27.33300781 1.50292969 C29.67727126 5.01451822 29.57384121 8.26113929 29.53125 12.34375 C29.5350769 13.14985718 29.53890381 13.95596436 29.54284668 14.78649902 C29.5455639 16.48772432 29.5382159 18.18899153 29.52148438 19.89013672 C29.5000699 22.49150896 29.52129019 25.09011972 29.546875 27.69140625 C29.54423169 29.34636025 29.53910663 31.00131254 29.53125 32.65625 C29.53934692 33.43238647 29.54744385 34.20852295 29.55578613 35.00817871 C29.49647091 38.43083786 29.25277386 40.62135749 27.33300781 43.49707031 C24.38767866 45.394459 22.62917437 45.46181989 19.140625 45.390625 C18.13547852 45.38063477 17.13033203 45.37064453 16.09472656 45.36035156 C14.8259668 45.32393555 13.55720703 45.28751953 12.25 45.25 C6.18625 45.12625 6.18625 45.12625 0 45 C0 30.15 0 15.3 0 0 Z " fill="#592034" transform="translate(1334,479)"/>
<path d="M0 0 C1.95025118 3.45830981 2.83724392 6.91747121 3.76953125 10.765625 C4.0116761 11.7596508 4.0116761 11.7596508 4.25871277 12.77375793 C4.78210715 14.93122757 5.29770447 17.09046376 5.8125 19.25 C5.98885986 19.98266083 6.16521973 20.71532166 6.34692383 21.47018433 C9.50571446 34.59447189 12.33638663 47.76517108 15 61 C5.76 61 -3.48 61 -13 61 C-12.34784587 54.47845866 -11.63471455 48.66996216 -10.0390625 42.421875 C-9.75221085 41.26102386 -9.75221085 41.26102386 -9.45956421 40.07672119 C-8.85453898 37.63280935 -8.2403091 35.19134077 -7.625 32.75 C-6.82229704 29.53725551 -6.02354988 26.32354176 -5.2265625 23.109375 C-5.03427063 22.33605835 -4.84197876 21.5627417 -4.64385986 20.76599121 C-2.94239368 13.87502577 -1.42819259 6.95308005 0 0 Z " fill="#5B2336" transform="translate(1030,511)"/>
<path d="M0 0 C1.45264463 2.71165413 2.41712338 5.21762639 3.11328125 8.2109375 C3.30688232 9.03279541 3.5004834 9.85465332 3.69995117 10.70141602 C3.90209229 11.58369873 4.1042334 12.46598145 4.3125 13.375 C4.52688721 14.29531006 4.74127441 15.21562012 4.9621582 16.16381836 C5.41504655 18.11336502 5.8654249 20.06349623 6.31347656 22.01416016 C6.99145479 24.962835 7.67866412 27.90924066 8.3671875 30.85546875 C8.80785058 32.75768311 9.24797137 34.66002319 9.6875 36.5625 C9.88964111 37.42858887 10.09178223 38.29467773 10.30004883 39.18701172 C11.80768288 45.78345967 12.88196154 52.29176927 14 59 C4.76 59 -4.48 59 -14 59 C-11.88057623 48.10984187 -9.5352866 37.29005214 -7.03833008 26.48046875 C-6.43052837 23.84476788 -5.82942409 21.20759242 -5.22851562 18.5703125 C-4.83894486 16.87751133 -4.44898543 15.18479954 -4.05859375 13.4921875 C-3.88146347 12.71197235 -3.70433319 11.9317572 -3.52183533 11.12789917 C-2.62244434 7.26315778 -1.61268988 3.64470624 0 0 Z " fill="#5B2336" transform="translate(1460,513)"/>
<path d="M0 0 C1.45264463 2.71165413 2.41712338 5.21762639 3.11328125 8.2109375 C3.30688232 9.03279541 3.5004834 9.85465332 3.69995117 10.70141602 C3.90209229 11.58369873 4.1042334 12.46598145 4.3125 13.375 C4.52688721 14.29531006 4.74127441 15.21562012 4.9621582 16.16381836 C5.41504655 18.11336502 5.8654249 20.06349623 6.31347656 22.01416016 C6.99145479 24.962835 7.67866412 27.90924066 8.3671875 30.85546875 C8.80785058 32.75768311 9.24797137 34.66002319 9.6875 36.5625 C9.88964111 37.42858887 10.09178223 38.29467773 10.30004883 39.18701172 C11.80768288 45.78345967 12.88196154 52.29176927 14 59 C4.76 59 -4.48 59 -14 59 C-11.88057623 48.10984187 -9.5352866 37.29005214 -7.03833008 26.48046875 C-6.43052837 23.84476788 -5.82942409 21.20759242 -5.22851562 18.5703125 C-4.83894486 16.87751133 -4.44898543 15.18479954 -4.05859375 13.4921875 C-3.88146347 12.71197235 -3.70433319 11.9317572 -3.52183533 11.12789917 C-2.62244434 7.26315778 -1.61268988 3.64470624 0 0 Z " fill="#5B2336" transform="translate(1227,513)"/>
</svg>
