<?xml version="1.0" encoding="UTF-8"?>
<svg version="1.1" xmlns="http://www.w3.org/2000/svg" width="1920" height="1080">
<path d="M0 0 C633.6 0 1267.2 0 1920 0 C1920 356.4 1920 712.8 1920 1080 C1286.4 1080 652.8 1080 0 1080 C0 723.6 0 367.2 0 0 Z " fill="#0078C4" transform="translate(0,0)"/>
<path d="M0 0 C0.99 0 1.98 0 3 0 C3.14099121 0.54938232 3.28198242 1.09876465 3.42724609 1.66479492 C4.07307317 4.17325921 4.72398903 6.68037629 5.375 9.1875 C5.59671875 10.05181641 5.8184375 10.91613281 6.046875 11.80664062 C7.14183176 16.0093423 8.37524928 19.96849237 10 24 C10 24.99 10 25.98 10 27 C10.66 27 11.32 27 12 27 C12.25394531 28.00160156 12.50789063 29.00320313 12.76953125 30.03515625 C13.11689735 31.37767927 13.46457005 32.72012299 13.8125 34.0625 C13.97814453 34.71927734 14.14378906 35.37605469 14.31445312 36.05273438 C15.49826995 40.58697616 17.06287749 44.73166989 19 49 C14.71 49 10.42 49 6 49 C6 184.63 6 320.26 6 460 C44.28 460 82.56 460 122 460 C121.95359375 448.78515625 121.9071875 437.5703125 121.859375 426.015625 C121.83894468 418.9244755 121.81952416 411.83334725 121.8046875 404.7421875 C121.78093242 393.47876724 121.75297301 382.21546647 121.69824219 370.95214844 C121.65840485 362.74992973 121.63257443 354.54780775 121.62364602 346.34549499 C121.61842599 342.0013696 121.60613653 337.65752098 121.57707977 333.31348419 C121.54995957 329.22590485 121.54154804 325.13871667 121.54756927 321.05105591 C121.5464675 319.54981105 121.53849314 318.04855331 121.5231781 316.54738617 C121.50330745 314.49948048 121.5104385 312.45136561 121.51898193 310.40338135 C121.51529476 309.25667088 121.51160759 308.1099604 121.50780869 306.92850113 C122.10627837 303.36765171 123.16342843 302.16613502 126 300 C126.66 300 127.32 300 128 300 C128 299.34 128 298.68 128 298 C129.67465856 296.61862665 131.41689132 295.31853284 133.1875 294.0625 C134.63189453 293.02802734 134.63189453 293.02802734 136.10546875 291.97265625 C143.4019802 287 143.4019802 287 146 287 C146 286.34 146 285.68 146 285 C147.36669922 283.78588867 147.36669922 283.78588867 149.3046875 282.41796875 C150.0251123 281.90395508 150.74553711 281.38994141 151.48779297 280.86035156 C152.27557129 280.30831055 153.06334961 279.75626953 153.875 279.1875 C155.52113573 278.01995748 157.16695975 276.85197539 158.8125 275.68359375 C160.09253906 274.77843018 160.09253906 274.77843018 161.3984375 273.85498047 C163.97051178 272.02102586 166.51952988 270.15921036 169.0625 268.28515625 C169.86961426 267.69259033 170.67672852 267.10002441 171.50830078 266.48950195 C173.06182838 265.34767359 174.61239332 264.2018011 176.15966797 263.05151367 C176.86752441 262.53435791 177.57538086 262.01720215 178.3046875 261.484375 C179.2325708 260.79939941 179.2325708 260.79939941 180.17919922 260.10058594 C182 259 182 259 184.16845703 258.53222656 C184.77286621 258.3565918 185.37727539 258.18095703 186 258 C186.33 257.01 186.66 256.02 187 255 C188.8125 253.61328125 188.8125 253.61328125 191 252.3125 C191.721875 251.87550781 192.44375 251.43851563 193.1875 250.98828125 C195 250 195 250 196 250 C196 319.3 196 388.6 196 460 C200.29 460 204.58 460 209 460 C208.99446924 458.86471233 208.98893848 457.72942467 208.98324013 456.55973434 C208.8501594 428.96082103 208.75150109 401.36194923 208.68912697 373.76278305 C208.65816304 360.41611177 208.61593379 347.06967757 208.54736328 333.72314453 C208.48763931 322.09297398 208.44886932 310.46295671 208.43546903 298.83263707 C208.42763349 292.67197148 208.40916497 286.51174447 208.36561966 280.35121918 C208.32498972 274.55636548 208.31231169 268.76213233 208.32135391 262.96714973 C208.31969898 260.83699487 208.30770737 258.70681993 208.28476715 256.57678795 C208.25503074 253.67409983 208.26204579 250.77377236 208.2784729 247.87103271 C208.26099585 247.02278451 208.2435188 246.1745363 208.22551215 245.3005836 C208.26018626 243.04303416 208.34454401 241.16097393 209 239 C211.89323997 236.5551796 211.89323997 236.5551796 215 235 C216.63189451 233.82199255 218.25684677 232.63431301 219.875 231.4375 C224.70428222 227.91199094 229.5843861 224.46659868 234.5 221.0625 C235.54196533 220.3353479 235.54196533 220.3353479 236.60498047 219.59350586 C237.26127441 219.14112549 237.91756836 218.68874512 238.59375 218.22265625 C239.17833984 217.81797119 239.76292969 217.41328613 240.36523438 216.99633789 C242 216 242 216 245 215 C246.70680947 213.37446717 248.37660195 211.70884005 250 210 C250.33 209.67 250.66 209.34 251 209 C256.63410429 209.13793476 261.7056137 210.09402093 267 212 C270.02582737 212.76990956 273.05946556 213.49928142 276.09765625 214.21875 C279 215 279 215 284 217 C284 297.19 284 377.38 284 460 C288.29 460 292.58 460 297 460 C297 381.46 297 302.92 297 222 C306.40445459 223.25392728 313.19275683 224.1654685 321.78808594 227.00195312 C324.9953032 227.99854055 328.16365546 228.73373623 331.453125 229.40625 C339.06268798 230.99983634 346.62664961 232.75303246 354.1875 234.5625 C354.835979 234.71452881 355.48445801 234.86655762 356.15258789 235.02319336 C358.05494015 235.46920166 359.95524312 235.92392265 361.85546875 236.37890625 C362.96559326 236.6426001 364.07571777 236.90629395 365.21948242 237.17797852 C368 238 368 238 371 240 C371.294128 242.94614013 371.39093109 245.68204976 371.36076355 248.63052368 C371.36332682 249.5346976 371.3658901 250.43887152 371.36853105 251.37044466 C371.37349627 254.41852779 371.35693098 257.4661222 371.34057617 260.51416016 C371.33973049 262.69176726 371.34020388 264.86937521 371.34190369 267.04698181 C371.34276737 272.97443459 371.32508135 278.90170666 371.30418181 284.8291173 C371.28547701 291.01777267 371.28366948 297.20643181 371.28010559 303.39511108 C371.27129832 314.45399184 371.24961261 325.51279753 371.22117744 336.57164399 C371.18533394 350.58578126 371.16679491 364.5999082 371.15097082 378.61408162 C371.11958041 406.07610079 371.06678447 433.53804572 371 461 C374.96 460.67 378.92 460.34 383 460 C382.99962297 458.76017113 382.99924595 457.52034225 382.9988575 456.24294281 C382.99124132 426.80201184 383.01452729 397.36127311 383.07579029 367.92041323 C383.0833062 364.2955754 383.09056171 360.67073711 383.09765625 357.04589844 C383.099073 356.32426815 383.10048975 355.60263785 383.10194944 354.85913998 C383.1242589 343.17950686 383.1254806 331.49996211 383.11888863 319.82031363 C383.11259321 307.8330229 383.12900699 295.84591784 383.16643608 283.85868311 C383.1868061 277.12677245 383.19673242 270.39518439 383.18042374 263.66325378 C383.16610196 257.32658452 383.17979639 250.99059275 383.21495247 244.65401077 C383.22291928 242.32885063 383.22066195 240.00362942 383.20739174 237.6784935 C383.19079246 234.50129028 383.21110255 231.32635495 383.24050903 228.14929199 C383.22692293 227.23098524 383.21333683 226.31267848 383.19933903 225.36654425 C383.32077299 218.606792 385.48373233 214.93797081 390 210 C390.61222412 209.28779297 391.22444824 208.57558594 391.85522461 207.84179688 C392.62104858 207.03838867 392.62104858 207.03838867 393.40234375 206.21875 C393.97903809 205.60854004 394.55573242 204.99833008 395.14990234 204.36962891 C395.73980957 203.75265137 396.3297168 203.13567383 396.9375 202.5 C398.17927286 201.18573376 399.42016927 199.87063882 400.66015625 198.5546875 C401.24297363 197.9369043 401.82579102 197.31912109 402.42626953 196.68261719 C406.11524365 192.73840223 409.60883949 188.62430159 413.12109375 184.5234375 C413.84425781 183.69070313 414.56742188 182.85796875 415.3125 182 C416.29669922 180.8553125 416.29669922 180.8553125 417.30078125 179.6875 C419 178 419 178 421 178 C421.25136719 177.43152344 421.50273438 176.86304688 421.76171875 176.27734375 C423.17054454 173.68634868 424.83274738 171.74666303 426.8125 169.5625 C427.81216797 168.45068359 427.81216797 168.45068359 428.83203125 167.31640625 C430.32643652 165.71968134 431.85076611 164.1506195 433.3984375 162.60546875 C436.2799714 159.71960822 439.05242638 156.75130137 441.8125 153.75 C442.33440918 153.18514893 442.85631836 152.62029785 443.39404297 152.03833008 C447.17405903 147.93545946 450.86079759 143.76062393 454.4765625 139.51171875 C456 138 456 138 458 138 C458 244.59 458 351.18 458 461 C477.8 461 497.6 461 518 461 C518 457.04 518 453.08 518 449 C521.3 449.66 524.6 450.32 528 451 C528 451.66 528 452.32 528 453 C529.155 453.12375 530.31 453.2475 531.5 453.375 C535.78350375 453.90278885 539.83352672 454.88398037 544 456 C544 456.66 544 457.32 544 458 C545.0725 458.12375 546.145 458.2475 547.25 458.375 C551 459 551 459 552.84375 459.9375 C555.57586233 461.28375825 558.29056638 461.91730935 561.25 462.625 C562.86648438 463.01558594 562.86648438 463.01558594 564.515625 463.4140625 C565.33546875 463.60742188 566.1553125 463.80078125 567 464 C567 464.66 567 465.32 567 466 C560.23978334 469.12265536 553.43274849 470.95026393 546.20068359 472.56054688 C542.27885839 473.44043794 538.48472384 474.41091278 534.6875 475.75 C531 477 531 477 527 477 C527 477.66 527 478.32 527 479 C523.7 479.66 520.4 480.32 517 481 C517 477.37 517 473.74 517 470 C515.90219147 470.00037972 514.80438294 470.00075944 513.67330748 470.00115067 C465.31646171 470.01781122 416.95961577 470.03324016 368.60276794 470.04234314 C367.87125222 470.0424812 367.13973649 470.04261925 366.38605362 470.04276149 C350.49019147 470.04575405 334.59432928 470.04852428 318.69846705 470.05106533 C310.90371435 470.05231272 303.10896167 470.05360927 295.31420898 470.05493164 C294.53851639 470.0550624 293.76282379 470.05519316 292.96362535 470.05532788 C267.79817484 470.0595931 242.63272656 470.06710728 217.4672774 470.07629722 C191.61747804 470.08571998 165.76767993 470.09188316 139.91787889 470.09391499 C136.27103219 470.09420317 132.62418549 470.0945288 128.97733879 470.09487724 C128.25955111 470.09494467 127.54176344 470.09501209 126.80222462 470.09508156 C115.22413817 470.09626561 103.64605554 470.10090995 92.06797065 470.10683203 C80.44243928 470.11270513 68.81691264 470.11489029 57.19137973 470.11350138 C50.88659684 470.11285765 44.58182521 470.11387941 38.2770443 470.11920547 C32.51538587 470.12403749 26.75374638 470.12433996 20.99208712 470.12089889 C18.89787014 470.12047301 16.80365203 470.12177039 14.70943732 470.12488318 C11.88242213 470.12884385 9.05547707 470.12676547 6.22846317 470.12304783 C5.3984349 470.12567484 4.56840663 470.12830186 3.71322599 470.13100848 C-1.8858542 470.1141458 -1.8858542 470.1141458 -3 469 C-3.09812472 466.76912662 -3.12371104 464.53506938 -3.12304783 462.30203915 C-3.12420167 461.59007998 -3.12535552 460.87812082 -3.12654433 460.14458713 C-3.12921781 457.7286878 -3.12468287 455.31285343 -3.12025452 452.8969574 C-3.12069007 451.15955323 -3.12156468 449.42214912 -3.12284368 447.68474537 C-3.12509178 442.88693384 -3.12106309 438.08914441 -3.11606562 433.2913357 C-3.11176579 428.12634251 -3.11320721 422.96135067 -3.1139679 417.7963562 C-3.11449343 408.83982991 -3.11134358 399.88331088 -3.10573006 390.92678642 C-3.09761901 377.97699517 -3.09500024 365.02720744 -3.09374207 352.07741392 C-3.09155092 331.06959232 -3.08488915 310.06177458 -3.07543945 289.05395508 C-3.06626695 268.64119486 -3.05918532 248.22843569 -3.05493164 227.81567383 C-3.05453756 225.92978021 -3.05453756 225.92978021 -3.05413551 224.00578772 C-3.05283052 217.69876437 -3.0515668 211.391741 -3.05032361 205.08471763 C-3.03994905 152.72314241 -3.02232905 100.36157139 -3 48 C-6.63 48 -10.26 48 -14 48 C-12.53711053 41.05127502 -10.7536469 34.20878343 -8.90234375 27.35546875 C-8.24420918 24.90811987 -7.60145783 22.46163669 -7 20 C-6.34 20 -5.68 20 -5 20 C-4.96261719 19.38253906 -4.92523437 18.76507813 -4.88671875 18.12890625 C-3.77227723 3.77227723 -3.77227723 3.77227723 0 0 Z " fill="#76D6C0" transform="translate(1087,293)"/>
<path d="M0 0 C0 106.59 0 213.18 0 323 C-24.75 323 -49.5 323 -75 323 C-75.00474959 292.17926079 -74.98807925 261.35888106 -74.92420971 230.53823096 C-74.9166938 226.89837186 -74.90943828 223.25851229 -74.90234375 219.61865234 C-74.900927 218.89403144 -74.89951025 218.16941053 -74.89805056 217.42283142 C-74.87574093 205.69469945 -74.87451944 193.96665549 -74.88111137 182.23850822 C-74.88740673 170.20149728 -74.87099339 158.16467124 -74.83356392 146.12771606 C-74.81319364 139.36786014 -74.80326786 132.6083255 -74.81957626 125.84844971 C-74.83389771 119.48551666 -74.82020432 113.12325833 -74.78504753 106.76041222 C-74.77708052 104.42557668 -74.77933839 102.09068033 -74.79260826 99.75586891 C-74.80920671 96.56553173 -74.78889834 93.37745333 -74.75949097 90.18725586 C-74.77307707 89.26505816 -74.78666317 88.34286045 -74.80066097 87.39271736 C-74.67949495 80.62052583 -72.52754647 76.94618355 -68 72 C-67.38777588 71.28779297 -66.77555176 70.57558594 -66.14477539 69.84179688 C-65.63422607 69.30619141 -65.12367676 68.77058594 -64.59765625 68.21875 C-64.02096191 67.60854004 -63.44426758 66.99833008 -62.85009766 66.36962891 C-62.26019043 65.75265137 -61.6702832 65.13567383 -61.0625 64.5 C-59.82072714 63.18573376 -58.57983073 61.87063882 -57.33984375 60.5546875 C-56.75702637 59.9369043 -56.17420898 59.31912109 -55.57373047 58.68261719 C-51.88475635 54.73840223 -48.39116051 50.62430159 -44.87890625 46.5234375 C-44.15574219 45.69070313 -43.43257812 44.85796875 -42.6875 44 C-42.03136719 43.236875 -41.37523437 42.47375 -40.69921875 41.6875 C-39 40 -39 40 -37 40 C-36.62294922 39.14728516 -36.62294922 39.14728516 -36.23828125 38.27734375 C-34.82945546 35.68634868 -33.16725262 33.74666303 -31.1875 31.5625 C-30.52105469 30.82128906 -29.85460938 30.08007812 -29.16796875 29.31640625 C-27.67356348 27.71968134 -26.14923389 26.1506195 -24.6015625 24.60546875 C-21.7200286 21.71960822 -18.94757362 18.75130137 -16.1875 15.75 C-15.66559082 15.18514893 -15.14368164 14.62029785 -14.60595703 14.03833008 C-10.82594097 9.93545946 -7.13920241 5.76062393 -3.5234375 1.51171875 C-2 0 -2 0 0 0 Z " fill="#FC8C33" transform="translate(1545,431)"/>
<path d="M0 0 C9.40445459 1.25392728 16.19275683 2.1654685 24.78808594 5.00195312 C27.9953032 5.99854055 31.16365546 6.73373623 34.453125 7.40625 C42.06268798 8.99983634 49.62664961 10.75303246 57.1875 12.5625 C57.835979 12.71452881 58.48445801 12.86655762 59.15258789 13.02319336 C61.05494015 13.46920166 62.95524312 13.92392265 64.85546875 14.37890625 C65.96559326 14.6426001 67.07571777 14.90629395 68.21948242 15.17797852 C71 16 71 16 74 18 C74.294128 20.94614013 74.39093109 23.68204976 74.36076355 26.63052368 C74.36332682 27.5346976 74.3658901 28.43887152 74.36853105 29.37044466 C74.37349627 32.41852779 74.35693098 35.4661222 74.34057617 38.51416016 C74.33973049 40.69176726 74.34020388 42.86937521 74.34190369 45.04698181 C74.34276737 50.97443459 74.32508135 56.90170666 74.30418181 62.8291173 C74.28547701 69.01777267 74.28366948 75.20643181 74.28010559 81.39511108 C74.27129832 92.45399184 74.24961261 103.51279753 74.22117744 114.57164399 C74.18533394 128.58578126 74.16679491 142.5999082 74.15097082 156.61408162 C74.1195804 184.07611144 74.06454553 211.53802671 74 239 C49.58 239 25.16 239 0 239 C0 160.13 0 81.26 0 0 Z " fill="#FDD015" transform="translate(1384,515)"/>
<path d="M0 0 C0 69.3 0 138.6 0 210 C-24.42 210 -48.84 210 -74 210 C-74.16121214 171.04040026 -74.16121214 171.04040026 -74.1953125 154.7421875 C-74.21906758 143.47876724 -74.24702699 132.21546647 -74.30175781 120.95214844 C-74.34159515 112.74992973 -74.36742557 104.54780775 -74.37635398 96.34549499 C-74.38157401 92.0013696 -74.39386347 87.65752098 -74.42292023 83.31348419 C-74.45004043 79.22590485 -74.45845196 75.13871667 -74.45243073 71.05105591 C-74.4535325 69.54981105 -74.46150686 68.04855331 -74.4768219 66.54738617 C-74.49669255 64.49948048 -74.4895615 62.45136561 -74.48101807 60.40338135 C-74.48470524 59.25667088 -74.48839241 58.1099604 -74.49219131 56.92850113 C-73.89372163 53.36765171 -72.83657157 52.16613502 -70 50 C-69.34 50 -68.68 50 -68 50 C-68 49.34 -68 48.68 -68 48 C-66.32534144 46.61862665 -64.58310868 45.31853284 -62.8125 44.0625 C-61.84957031 43.37285156 -60.88664062 42.68320312 -59.89453125 41.97265625 C-52.5980198 37 -52.5980198 37 -50 37 C-50 36.34 -50 35.68 -50 35 C-48.63330078 33.78588867 -48.63330078 33.78588867 -46.6953125 32.41796875 C-45.9748877 31.90395508 -45.25446289 31.38994141 -44.51220703 30.86035156 C-43.33053955 30.03229004 -43.33053955 30.03229004 -42.125 29.1875 C-40.47886427 28.01995748 -38.83304025 26.85197539 -37.1875 25.68359375 C-36.33414062 25.08015137 -35.48078125 24.47670898 -34.6015625 23.85498047 C-32.02948822 22.02102586 -29.48047012 20.15921036 -26.9375 18.28515625 C-26.13038574 17.69259033 -25.32327148 17.10002441 -24.49169922 16.48950195 C-22.93817162 15.34767359 -21.38760668 14.2018011 -19.84033203 13.05151367 C-19.13247559 12.53435791 -18.42461914 12.01720215 -17.6953125 11.484375 C-17.07672363 11.02772461 -16.45813477 10.57107422 -15.82080078 10.10058594 C-14 9 -14 9 -11.83154297 8.53222656 C-11.22713379 8.3565918 -10.62272461 8.18095703 -10 8 C-9.67 7.01 -9.34 6.02 -9 5 C-7.1875 3.61328125 -7.1875 3.61328125 -5 2.3125 C-4.278125 1.87550781 -3.55625 1.43851563 -2.8125 0.98828125 C-1 0 -1 0 0 0 Z " fill="#5DAEFE" transform="translate(1283,543)"/>
<path d="M0 0 C-0.66 3.3 -1.32 6.6 -2 10 C-2.66 10 -3.32 10 -4 10 C-4.18175781 11.0621875 -4.36351562 12.124375 -4.55078125 13.21875 C-5.82415968 20.45424372 -7.13747819 27.2015107 -10 34 C-12.21544838 40.26556496 -14.12378287 46.62618435 -16 53 C-19.03852705 51.59023295 -21.5939595 49.91129772 -24.25 47.875 C-24.95640625 47.33617187 -25.6628125 46.79734375 -26.390625 46.2421875 C-26.92171875 45.83226562 -27.4528125 45.42234375 -28 45 C-28.61875 45.66 -29.2375 46.32 -29.875 47 C-32 49 -32 49 -34 49 C-34.226875 49.721875 -34.45375 50.44375 -34.6875 51.1875 C-35.9485644 53.88978086 -37.24848346 55.42122637 -39.39453125 57.44140625 C-45.70161051 63.56433721 -51.23026061 70.45823881 -56.75 77.28125 C-58.93501569 79.92147729 -61.19171391 82.4672972 -63.5 85 C-67.43106123 89.31391241 -71.12349431 93.78327405 -74.79296875 98.3203125 C-77.52837729 101.6415342 -80.38073245 104.84298737 -83.2734375 108.02734375 C-85.05042851 109.99060539 -85.05042851 109.99060539 -86.6015625 112.25390625 C-87.06304688 112.83011719 -87.52453125 113.40632813 -88 114 C-88.66 114 -89.32 114 -90 114 C-90.36931641 114.84884766 -90.36931641 114.84884766 -90.74609375 115.71484375 C-92.21536224 118.39248258 -93.97752435 120.33043612 -96.0625 122.5625 C-101.98417992 129.02771576 -107.74521159 135.6649767 -112.75 142.875 C-114.94753818 145.92713636 -117.27484541 148.4182746 -120 151 C-120.7115625 151.8971875 -120.7115625 151.8971875 -121.4375 152.8125 C-123.99686543 154.75761773 -125.84799213 154.3502231 -129 154 C-131.28876533 153.31211971 -133.52806826 152.52999219 -135.77734375 151.72265625 C-138.17476466 150.87289045 -138.17476466 150.87289045 -141.5 150.5 C-145.13618991 149.9805443 -148.23493963 148.96373952 -151.68359375 147.75 C-153.92878803 147.02305683 -156.12403812 146.51948012 -158.4375 146.0625 C-161.69515011 145.39216939 -164.55405384 144.40658134 -167.6015625 143.08203125 C-172.9541084 140.90052524 -178.27812738 139.71937529 -183.9375 138.625 C-192.37952988 136.90181541 -200.50231575 134.73743461 -208.67797852 132.02880859 C-213.46179784 130.45163426 -218.15973699 129.215071 -223.1328125 128.36328125 C-225.56235137 127.89058854 -227.72115699 126.94951792 -230 126 C-231.9924325 125.62406934 -233.9918674 125.28020455 -236 125 C-236 124.34 -236 123.68 -236 123 C-240.21890007 122.3631849 -242.73558589 122.27350775 -246.48828125 124.4296875 C-249.37576099 126.56000588 -252.18511792 128.77469731 -255 131 C-257.33494219 132.71479657 -259.6978926 134.3889428 -262.0625 136.0625 C-263.24741766 136.9088236 -264.43231383 137.75517731 -265.6171875 138.6015625 C-269.38757026 141.28371934 -273.19267031 143.91498625 -277.01171875 146.52734375 C-279.02271877 147.9376009 -279.02271877 147.9376009 -280.63671875 149.66015625 C-282 151 -282 151 -284.125 151.5 C-284.74375 151.665 -285.3625 151.83 -286 152 C-286.33 152.99 -286.66 153.98 -287 155 C-290.87821405 157.4611743 -294.67535468 159.4274017 -299 161 C-299 161.66 -299 162.32 -299 163 C-299.598125 163.268125 -300.19625 163.53625 -300.8125 163.8125 C-302.99160732 164.85746228 -302.99160732 164.85746228 -304.3515625 166.375 C-306.27411153 168.27021421 -308.31779715 169.68979876 -310.5625 171.1875 C-311.34753906 171.71730469 -312.13257813 172.24710938 -312.94140625 172.79296875 C-315 174 -315 174 -317 174 C-317 174.66 -317 175.32 -317 176 C-318.36541201 176.96886378 -319.74081936 177.92574585 -321.15478516 178.82226562 C-323.11639089 180.07428813 -325.01673722 181.39254695 -326.91796875 182.734375 C-327.95522095 183.46587769 -327.95522095 183.46587769 -329.01342773 184.2121582 C-329.73087158 184.719646 -330.44831543 185.22713379 -331.1875 185.75 C-331.93781494 186.28004639 -332.68812988 186.81009277 -333.46118164 187.35620117 C-338.51390559 190.93179972 -343.53143206 194.55240505 -348.52734375 198.20703125 C-350.99948798 199.99962872 -353.49413578 201.75491459 -356 203.5 C-359.50652768 205.94293634 -362.98190042 208.42299988 -366.4375 210.9375 C-367.34628906 211.59878906 -368.25507812 212.26007813 -369.19140625 212.94140625 C-371.12253813 214.3568534 -373.046663 215.78189449 -374.96484375 217.21484375 C-375.92519531 217.92769531 -376.88554688 218.64054688 -377.875 219.375 C-378.73867187 220.02210938 -379.60234375 220.66921875 -380.4921875 221.3359375 C-382.93647911 222.95785062 -385.24306534 224.02173286 -388 225 C-388 225.66 -388 226.32 -388 227 C-389.68125012 228.19542478 -391.42248083 229.30712843 -393.1875 230.375 C-396.20052473 232.20620914 -399.00009861 234.00008018 -401.73828125 236.2265625 C-404 238 -404 238 -406 238 C-406 238.66 -406 239.32 -406 240 C-408.265625 241.62109375 -408.265625 241.62109375 -411.25 243.4375 C-415.27746958 245.85636271 -415.27746958 245.85636271 -418.921875 248.78515625 C-421.43305504 250.25315811 -423.08300483 250.19890083 -425.90722656 249.64111328 C-430.44780365 248.25012455 -434.63707617 246.05276942 -438.875 243.9375 C-440.91765492 242.9368591 -442.96062681 241.93686501 -445.00390625 240.9375 C-446.01211426 240.44121094 -447.02032227 239.94492187 -448.05908203 239.43359375 C-452.98519618 237.0322869 -457.96206419 234.73946639 -462.94677734 232.46264648 C-465.69230293 231.18830689 -467.8413066 230.1586934 -470 228 C-470.22705078 225.84521484 -470.22705078 225.84521484 -470.1953125 223.2109375 C-470.18886719 222.26992188 -470.18242188 221.32890625 -470.17578125 220.359375 C-470.15902344 219.37453125 -470.14226562 218.3896875 -470.125 217.375 C-470.11597656 216.38242187 -470.10695313 215.38984375 -470.09765625 214.3671875 C-470.07404116 211.91121866 -470.04110799 209.45572832 -470 207 C-465.98149279 208.29126548 -462.47071508 209.55008347 -459 212 C-459 212.66 -459 213.32 -459 214 C-457.9171875 214.1546875 -457.9171875 214.1546875 -456.8125 214.3125 C-453.68155694 215.07784164 -451.74005645 216.30248271 -449 218 C-446.67055308 219.36154015 -444.33811979 220.71608273 -442 222.0625 C-441.39671875 222.41376953 -440.7934375 222.76503906 -440.171875 223.12695312 C-436.85910394 225.03179648 -433.5905144 226.68755818 -430 228 C-430 228.66 -430 229.32 -430 230 C-427.23059033 230.96327293 -425.85642054 231.36791105 -423 231 C-420.29763986 229.3036938 -418.00801757 227.34383402 -415.6015625 225.25 C-413.17312016 223.14972554 -410.70824296 221.31422375 -408.0625 219.5 C-404.58978568 217.10744565 -401.15520749 214.67534559 -397.75 212.1875 C-393.5189028 209.09784287 -389.26666424 206.04017906 -385 203 C-380.87926382 200.06374672 -376.77160614 197.11216109 -372.6875 194.125 C-367.32703431 190.21501326 -361.90665688 186.39277501 -356.48266602 182.57177734 C-347.6330462 176.33643806 -338.81515067 170.05847702 -330.0625 163.6875 C-329.18851563 163.05199219 -328.31453125 162.41648437 -327.4140625 161.76171875 C-325.88385267 160.64501223 -324.35733153 159.52321888 -322.8359375 158.39453125 C-318.21481092 155 -318.21481092 155 -316 155 C-316 154.34 -316 153.68 -316 153 C-314.15625 151.6953125 -314.15625 151.6953125 -311.5 150.125 C-306.58540239 147.08951324 -301.96971572 143.81117167 -297.375 140.3125 C-291.17769439 135.60440648 -284.89272137 131.05346799 -278.51953125 126.58691406 C-271.63908554 121.76113356 -264.8290872 116.84062063 -258.0234375 111.91015625 C-257.34692139 111.42490479 -256.67040527 110.93965332 -255.97338867 110.43969727 C-254.65968713 109.48127861 -253.36253174 108.49975265 -252.08325195 107.49584961 C-247.60485509 104.0486665 -247.60485509 104.0486665 -244.62109375 103.80859375 C-243.90050781 104.01613281 -243.17992187 104.22367187 -242.4375 104.4375 C-241.6021875 104.66179687 -240.766875 104.88609375 -239.90625 105.1171875 C-238.9471875 105.40851563 -237.988125 105.69984375 -237 106 C-235.7728125 106.33257812 -234.545625 106.66515625 -233.28125 107.0078125 C-223.23581933 109.76418067 -223.23581933 109.76418067 -222 111 C-219.96642649 111.47369591 -217.92237959 111.90256606 -215.875 112.3125 C-210.56423962 113.41258608 -205.35011906 114.67581749 -200.125 116.125 C-195.05428426 117.51032589 -190.23562951 118.57260167 -185 119 C-185 119.66 -185 120.32 -185 121 C-183.60587891 121.16435547 -183.60587891 121.16435547 -182.18359375 121.33203125 C-175.60474425 122.17582529 -169.91681742 122.97864643 -164 126 C-158.86651129 128.39812611 -153.52382841 129.01172784 -147.97460938 129.85546875 C-142.20772778 130.79227222 -142.20772778 130.79227222 -140 133 C-137.11282395 133.6837613 -137.11282395 133.6837613 -133.875 134.125 C-132.23144531 134.37636719 -132.23144531 134.37636719 -130.5546875 134.6328125 C-129.71164062 134.75398437 -128.86859375 134.87515625 -128 135 C-127.773125 134.45472656 -127.54625 133.90945313 -127.3125 133.34765625 C-125.59986449 130.28428143 -123.39646955 127.99768186 -121 125.4375 C-118.42555742 122.67970322 -116.09363537 120.14045306 -114 117 C-113.34 117 -112.68 117 -112 117 C-111.938125 116.443125 -111.87625 115.88625 -111.8125 115.3125 C-110.66317838 112.04135386 -108.47415641 110.41098646 -106 108 C-100.4442958 102.10487978 -95.1476648 96.1329726 -90.375 89.58203125 C-89.694375 88.79892578 -89.694375 88.79892578 -89 88 C-88.34 88 -87.68 88 -87 88 C-86.77570313 87.46761719 -86.55140625 86.93523437 -86.3203125 86.38671875 C-84.55585644 83.19712509 -82.24751417 80.55677222 -79.875 77.8125 C-79.38290039 77.23733643 -78.89080078 76.66217285 -78.38378906 76.06958008 C-74.31456826 71.32723021 -70.16977115 66.65400264 -66 62 C-60.78999776 56.12802101 -55.71239007 50.14621414 -50.6484375 44.1484375 C-50.21112305 43.63249023 -49.77380859 43.11654297 -49.32324219 42.58496094 C-48.40918086 41.4901111 -47.50958885 40.38307598 -46.62207031 39.26660156 C-45.45613499 37.81025012 -44.23235511 36.40059472 -43 35 C-42.34 35 -41.68 35 -41 35 C-41.38520564 32.46089803 -41.70097943 31.27248877 -43.62890625 29.515625 C-44.26699219 29.09796875 -44.90507813 28.6803125 -45.5625 28.25 C-46.20316406 27.82203125 -46.84382813 27.3940625 -47.50390625 26.953125 C-47.99761719 26.63859375 -48.49132813 26.3240625 -49 26 C-48.67 25.01 -48.34 24.02 -48 23 C-47.01 23 -46.02 23 -45 23 C-45 22.34 -45 21.68 -45 21 C-36.93496314 16.91979081 -28.85434546 12.8733024 -20.6875 9 C-20.06029053 8.69763428 -19.43308105 8.39526855 -18.78686523 8.08374023 C-15.98532099 6.76792761 -14.13827206 6 -11 6 C-11 5.34 -11 4.68 -11 4 C-9.73308493 3.32591692 -8.46129251 2.66099503 -7.1875 2 C-6.47980469 1.62875 -5.77210938 1.2575 -5.04296875 0.875 C-3 0 -3 0 0 0 Z " fill="#AF0443" transform="translate(1582,337)"/>
<path d="M0 0 C0.66 0 1.32 0 2 0 C2 48.18 2 96.36 2 146 C-22.42 146 -46.84 146 -72 146 C-72 98.81 -72 51.62 -72 3 C-70.02 3.66 -68.04 4.32 -66 5 C-66 5.66 -66 6.32 -66 7 C-65.30519531 7.10183594 -64.61039063 7.20367188 -63.89453125 7.30859375 C-60.50947448 8.11717006 -57.77712981 9.46675713 -54.6875 11.0625 C-53.61886719 11.61035156 -52.55023437 12.15820312 -51.44921875 12.72265625 C-50.64097656 13.14417969 -49.83273437 13.56570313 -49 14 C-49 14.66 -49 15.32 -49 16 C-48.319375 16.0825 -47.63875 16.165 -46.9375 16.25 C-43.87886377 17.0309284 -41.65278032 18.31143782 -39.0390625 20.0625 C-35.77247469 21.56437945 -33.6473851 22.02956341 -30 22 C-26.57838586 20.23716481 -23.6818693 17.90308445 -20.6875 15.5 C-19.00710166 14.20366031 -17.32611743 12.90807972 -15.64453125 11.61328125 C-14.8448291 10.98760254 -14.04512695 10.36192383 -13.22119141 9.71728516 C-9.7763904 7.0539822 -6.2058499 4.60159587 -2.6171875 2.13671875 C-1.04012691 1.09741754 -1.04012691 1.09741754 0 0 Z " fill="#213E5E" transform="translate(1192,607)"/>
<path d="M0 0 C0.99 0 1.98 0 3 0 C3.14099121 0.54938232 3.28198242 1.09876465 3.42724609 1.66479492 C4.07307317 4.17325921 4.72398903 6.68037629 5.375 9.1875 C5.59671875 10.05181641 5.8184375 10.91613281 6.046875 11.80664062 C7.14183176 16.0093423 8.37524928 19.96849237 10 24 C10 24.99 10 25.98 10 27 C10.66 27 11.32 27 12 27 C12.67449966 29.39387157 13.33976641 31.78969221 14 34.1875 C14.19078125 34.86103516 14.3815625 35.53457031 14.578125 36.22851562 C15.62288591 40.0530868 16 42.96876157 16 47 C11.05 47.495 11.05 47.495 6 48 C5.67 184.29 5.34 320.58 5 461 C174.29 461 343.58 461 518 461 C518 457.04 518 453.08 518 449 C521.3 449.66 524.6 450.32 528 451 C528 451.66 528 452.32 528 453 C529.155 453.12375 530.31 453.2475 531.5 453.375 C535.78350375 453.90278885 539.83352672 454.88398037 544 456 C544 456.66 544 457.32 544 458 C545.0725 458.12375 546.145 458.2475 547.25 458.375 C551 459 551 459 552.84375 459.9375 C555.57586233 461.28375825 558.29056638 461.91730935 561.25 462.625 C562.86648438 463.01558594 562.86648438 463.01558594 564.515625 463.4140625 C565.33546875 463.60742188 566.1553125 463.80078125 567 464 C567 464.66 567 465.32 567 466 C560.23978334 469.12265536 553.43274849 470.95026393 546.20068359 472.56054688 C542.27885839 473.44043794 538.48472384 474.41091278 534.6875 475.75 C531 477 531 477 527 477 C527 477.66 527 478.32 527 479 C523.7 479.66 520.4 480.32 517 481 C517 477.37 517 473.74 517 470 C515.90219147 470.00037972 514.80438294 470.00075944 513.67330748 470.00115067 C465.31646171 470.01781122 416.95961577 470.03324016 368.60276794 470.04234314 C367.87125222 470.0424812 367.13973649 470.04261925 366.38605362 470.04276149 C350.49019147 470.04575405 334.59432928 470.04852428 318.69846705 470.05106533 C310.90371435 470.05231272 303.10896167 470.05360927 295.31420898 470.05493164 C294.53851639 470.0550624 293.76282379 470.05519316 292.96362535 470.05532788 C267.79817484 470.0595931 242.63272656 470.06710728 217.4672774 470.07629722 C191.61747804 470.08571998 165.76767993 470.09188316 139.91787889 470.09391499 C136.27103219 470.09420317 132.62418549 470.0945288 128.97733879 470.09487724 C128.25955111 470.09494467 127.54176344 470.09501209 126.80222462 470.09508156 C115.22413817 470.09626561 103.64605554 470.10090995 92.06797065 470.10683203 C80.44243928 470.11270513 68.81691264 470.11489029 57.19137973 470.11350138 C50.88659684 470.11285765 44.58182521 470.11387941 38.2770443 470.11920547 C32.51538587 470.12403749 26.75374638 470.12433996 20.99208712 470.12089889 C18.89787014 470.12047301 16.80365203 470.12177039 14.70943732 470.12488318 C11.88242213 470.12884385 9.05547707 470.12676547 6.22846317 470.12304783 C5.3984349 470.12567484 4.56840663 470.12830186 3.71322599 470.13100848 C-1.8858542 470.1141458 -1.8858542 470.1141458 -3 469 C-3.09812472 466.76912662 -3.12371104 464.53506938 -3.12304783 462.30203915 C-3.12420167 461.59007998 -3.12535552 460.87812082 -3.12654433 460.14458713 C-3.12921781 457.7286878 -3.12468287 455.31285343 -3.12025452 452.8969574 C-3.12069007 451.15955323 -3.12156468 449.42214912 -3.12284368 447.68474537 C-3.12509178 442.88693384 -3.12106309 438.08914441 -3.11606562 433.2913357 C-3.11176579 428.12634251 -3.11320721 422.96135067 -3.1139679 417.7963562 C-3.11449343 408.83982991 -3.11134358 399.88331088 -3.10573006 390.92678642 C-3.09761901 377.97699517 -3.09500024 365.02720744 -3.09374207 352.07741392 C-3.09155092 331.06959232 -3.08488915 310.06177458 -3.07543945 289.05395508 C-3.06626695 268.64119486 -3.05918532 248.22843569 -3.05493164 227.81567383 C-3.05453756 225.92978021 -3.05453756 225.92978021 -3.05413551 224.00578772 C-3.05283052 217.69876437 -3.0515668 211.391741 -3.05032361 205.08471763 C-3.03994905 152.72314241 -3.02232905 100.36157139 -3 48 C-6.63 48 -10.26 48 -14 48 C-12.53711053 41.05127502 -10.7536469 34.20878343 -8.90234375 27.35546875 C-8.24420918 24.90811987 -7.60145783 22.46163669 -7 20 C-6.34 20 -5.68 20 -5 20 C-4.96261719 19.38253906 -4.92523437 18.76507813 -4.88671875 18.12890625 C-3.77227723 3.77227723 -3.77227723 3.77227723 0 0 Z " fill="#EFF6FB" transform="translate(1087,293)"/>
<path d="M0 0 C45.93333333 0 45.93333333 0 51.875 5.8125 C55.62928399 11.44392598 56.29686467 16.5226398 56.2746582 23.17333984 C56.27976913 23.97091202 56.28488007 24.76848419 56.29014587 25.59022522 C56.30398965 28.21387337 56.30308893 30.83725727 56.30078125 33.4609375 C56.30467127 35.29407854 56.30900658 37.12721868 56.31376648 38.96035767 C56.32121765 42.79847132 56.32094558 46.63649296 56.31567383 50.47460938 C56.30988316 55.37930425 56.32680582 60.28362101 56.3500185 65.1882534 C56.36479172 68.97336 56.36562262 72.7583763 56.36250877 76.54350662 C56.36302026 78.35110853 56.36822548 80.15871573 56.37832069 81.96628952 C56.39073652 84.50039575 56.38386283 87.03377542 56.37231445 89.56787109 C56.38378006 90.67475533 56.38378006 90.67475533 56.39547729 91.80400085 C56.33952087 97.3938192 55.45993244 103.19774913 51.65428638 107.53297997 C37.6874502 119.78952928 17.1115934 113 0 113 C0 75.71 0 38.42 0 0 Z " fill="#FBFDFE" transform="translate(777,384)"/>
<path d="M0 0 C1.913536 -0.016464 3.82701298 -0.04362567 5.74023438 -0.08203125 C27.65766238 -0.51965678 27.65766238 -0.51965678 33.95678711 5.35009766 C40.35063946 12.6356604 39.69387414 22.18146461 39.55371094 31.30834961 C39.51939525 33.77980904 39.53309487 36.24767979 39.55249023 38.71923828 C39.53909831 56.18164962 39.53909831 56.18164962 34.95678711 63.35009766 C32.81835938 64.62915039 32.81835938 64.62915039 30.95678711 65.35009766 C31.13330811 66.02476074 31.3098291 66.69942383 31.49169922 67.39453125 C32.30026749 70.50277299 33.09732875 73.61385977 33.89428711 76.72509766 C34.31097656 78.31644531 34.31097656 78.31644531 34.73608398 79.93994141 C36.38374467 86.41147614 37.53199205 92.68221562 37.95678711 99.35009766 C35.16486506 99.40390343 32.37397301 99.44367434 29.58178711 99.47509766 C28.78772461 99.49185547 27.99366211 99.50861328 27.17553711 99.52587891 C25.10186696 99.54345238 23.02795469 99.45344933 20.95678711 99.35009766 C18.66433542 97.05764597 18.42815136 95.91235438 17.70288086 92.80712891 C17.48825195 91.89769531 17.27362305 90.98826172 17.05249023 90.05126953 C16.72667969 88.62137695 16.72667969 88.62137695 16.39428711 87.16259766 C16.17321289 86.22867188 15.95213867 85.29474609 15.72436523 84.33251953 C14.56418323 79.35179861 13.58163779 74.4261318 12.95678711 69.35009766 C8.66678711 69.35009766 4.37678711 69.35009766 -0.04321289 69.35009766 C-0.04321289 79.25009766 -0.04321289 89.15009766 -0.04321289 99.35009766 C-2.82758789 99.37072266 -5.61196289 99.39134766 -8.48071289 99.41259766 C-9.35912842 99.42170166 -10.23754395 99.43080566 -11.14257812 99.44018555 C-13.10967263 99.44732856 -15.0767491 99.40041659 -17.04321289 99.35009766 C-18.95162733 97.44168321 -18.1699665 94.62065178 -18.17874146 92.08103943 C-18.17671722 91.17918411 -18.17469299 90.2773288 -18.17260742 89.34814453 C-18.17435974 88.40350845 -18.17611206 87.45887238 -18.17791748 86.48561096 C-18.18233769 83.34667146 -18.17939741 80.20778778 -18.17602539 77.06884766 C-18.17669838 74.89790842 -18.17766836 72.72696925 -18.17892456 70.55603027 C-18.18040176 65.99958582 -18.17824626 61.44316093 -18.17358398 56.88671875 C-18.16788669 51.0318318 -18.17116557 45.17699068 -18.17715645 39.32210541 C-18.18076146 34.83729707 -18.17962375 30.35249969 -18.17702866 25.86769104 C-18.17635922 23.70821629 -18.17718839 21.54874057 -18.17950821 19.38926697 C-18.18203375 16.37683458 -18.17819554 13.36447753 -18.17260742 10.35205078 C-18.17463165 9.45019547 -18.17665588 8.54834015 -18.17874146 7.61915588 C-18.1412023 -3.24527838 -8.93137234 0.05623429 0 0 Z " fill="#FCFDFE" transform="translate(813.043212890625,594.64990234375)"/>
<path d="M0 0 C1.93166016 0.01740234 1.93166016 0.01740234 3.90234375 0.03515625 C5.19269531 0.04417969 6.48304688 0.05320312 7.8125 0.0625 C8.81152344 0.07410156 9.81054688 0.08570313 10.83984375 0.09765625 C18.86038835 14.93751182 26.21954093 30.06498122 33.48632812 45.28295898 C34.58402811 47.56567599 35.70381357 49.83394682 36.83984375 52.09765625 C36.85015121 51.46094498 36.86045868 50.8242337 36.87107849 50.16822815 C36.97890706 43.56638827 37.09352336 36.96469147 37.2121582 30.36303711 C37.25558318 27.89627056 37.29725247 25.42947247 37.3371582 22.96264648 C37.3946782 19.42552159 37.4584245 15.88855659 37.5234375 12.3515625 C37.54014999 11.24116104 37.55686249 10.13075958 37.57408142 8.98670959 C37.59402664 7.96572678 37.61397186 6.94474396 37.63452148 5.89282227 C37.65006577 4.98903336 37.66561005 4.08524445 37.68162537 3.15406799 C37.83984375 1.09765625 37.83984375 1.09765625 38.83984375 0.09765625 C41.51715755 -0.00215589 44.1628855 -0.0411425 46.83984375 -0.02734375 C47.59007812 -0.03121094 48.3403125 -0.03507813 49.11328125 -0.0390625 C54.71323322 -0.02895428 54.71323322 -0.02895428 55.83984375 1.09765625 C55.94047122 4.10579111 55.97599115 7.09100654 55.96923828 10.09960938 C55.9709906 11.04424545 55.97274292 11.98888153 55.97454834 12.96214294 C55.97896855 16.10108245 55.97602827 19.23996612 55.97265625 22.37890625 C55.97332924 24.54984549 55.97429922 26.72078465 55.97555542 28.89172363 C55.97703262 33.44816808 55.97487712 38.00459297 55.97021484 42.56103516 C55.96451755 48.41592211 55.96779643 54.27076323 55.97378731 60.1256485 C55.97739232 64.61045683 55.97625461 69.09525421 55.97365952 73.58006287 C55.97299008 75.73953761 55.97381925 77.89901334 55.97613907 80.05848694 C55.97866461 83.07091933 55.97482639 86.08327638 55.96923828 89.09570312 C55.97126251 89.99755844 55.97328674 90.89941376 55.97537231 91.82859802 C55.95410606 97.98339394 55.95410606 97.98339394 54.83984375 99.09765625 C52.4867082 99.17037366 50.13150707 99.18136493 47.77734375 99.16015625 C45.84181641 99.14662109 45.84181641 99.14662109 43.8671875 99.1328125 C42.86816406 99.12121094 41.86914062 99.10960937 40.83984375 99.09765625 C33.56130999 85.58728053 26.79512665 71.87281058 20.23681641 57.99926758 C18.47759012 54.34522976 16.66179174 50.72073749 14.83984375 47.09765625 C14.82438255 48.05272316 14.82438255 48.05272316 14.80860901 49.02708435 C14.70078044 55.62892423 14.58616414 62.23062103 14.4675293 68.83227539 C14.42410432 71.29904194 14.38243503 73.76584003 14.3425293 76.23266602 C14.2850093 79.76979091 14.221263 83.30675591 14.15625 86.84375 C14.13118126 88.50935219 14.13118126 88.50935219 14.10560608 90.20860291 C14.08566086 91.22958572 14.06571564 92.25056854 14.04516602 93.30249023 C14.02962173 94.20627914 14.01407745 95.11006805 13.99806213 96.04124451 C13.83984375 98.09765625 13.83984375 98.09765625 12.83984375 99.09765625 C9.97716808 99.17090793 7.13912475 99.1900383 4.27734375 99.16015625 C3.47103516 99.15564453 2.66472656 99.15113281 1.83398438 99.14648438 C-0.16409381 99.13466143 -2.16213408 99.11672539 -4.16015625 99.09765625 C-4.18327746 86.33731755 -4.2010702 73.5769838 -4.21196842 60.81662846 C-4.21719774 54.8921491 -4.22429626 48.96768403 -4.2355957 43.04321289 C-4.24642286 37.33093054 -4.25243272 31.61866197 -4.25503349 25.90637016 C-4.25688805 23.72177348 -4.26050925 21.5371776 -4.26588631 19.35258675 C-4.27309446 16.30413276 -4.27414729 13.25573646 -4.27368164 10.20727539 C-4.27727692 9.29449829 -4.28087219 8.38172119 -4.28457642 7.44128418 C-4.27241148 0.13202755 -4.27241148 0.13202755 0 0 Z " fill="#FBFDFE" transform="translate(585.16015625,594.90234375)"/>
<path d="M0 0 C1.93166016 0.01740234 1.93166016 0.01740234 3.90234375 0.03515625 C5.19269531 0.04417969 6.48304688 0.05320312 7.8125 0.0625 C8.81152344 0.07410156 9.81054688 0.08570313 10.83984375 0.09765625 C17.22103295 12.00102842 23.35672946 24.0213017 29.40234375 36.09765625 C29.76303955 36.81655029 30.12373535 37.53544434 30.49536133 38.27612305 C31.53048415 40.34048062 32.56264573 42.40628907 33.59375 44.47265625 C33.90687637 45.09692505 34.22000275 45.72119385 34.5426178 46.36437988 C35.81495847 48.92279464 36.93455942 51.38180325 37.83984375 54.09765625 C38.16984375 36.27765625 38.49984375 18.45765625 38.83984375 0.09765625 C44.44984375 0.09765625 50.05984375 0.09765625 55.83984375 0.09765625 C55.83984375 32.76765625 55.83984375 65.43765625 55.83984375 99.09765625 C50.88984375 99.09765625 45.93984375 99.09765625 40.83984375 99.09765625 C32.25984375 81.93765625 23.67984375 64.77765625 14.83984375 47.09765625 C14.55045953 63.83670292 14.55045953 63.83670292 14.27172852 80.57592773 C14.23362396 82.66520894 14.19515642 84.75448357 14.15625 86.84375 C14.13153625 88.48784851 14.13153625 88.48784851 14.10632324 90.16516113 C14.08614136 91.20047974 14.06595947 92.23579834 14.04516602 93.30249023 C14.02962173 94.20627914 14.01407745 95.11006805 13.99806213 96.04124451 C13.83984375 98.09765625 13.83984375 98.09765625 12.83984375 99.09765625 C10.16252995 99.19746839 7.516802 99.236455 4.83984375 99.22265625 C3.71449219 99.22845703 3.71449219 99.22845703 2.56640625 99.234375 C-3.03354572 99.22426678 -3.03354572 99.22426678 -4.16015625 98.09765625 C-4.26078372 95.08952139 -4.29630365 92.10430596 -4.28955078 89.09570312 C-4.2913031 88.15106705 -4.29305542 87.20643097 -4.29486084 86.23316956 C-4.29928105 83.09423005 -4.29634077 79.95534638 -4.29296875 76.81640625 C-4.29364174 74.64546701 -4.29461172 72.47452785 -4.29586792 70.30358887 C-4.29734512 65.74714442 -4.29518962 61.19071953 -4.29052734 56.63427734 C-4.28483005 50.77939039 -4.28810893 44.92454927 -4.29409981 39.069664 C-4.29770482 34.58485567 -4.29656711 30.10005829 -4.29397202 25.61524963 C-4.29330258 23.45577489 -4.29413175 21.29629916 -4.29645157 19.13682556 C-4.29897711 16.12439317 -4.29513889 13.11203612 -4.28955078 10.09960938 C-4.29157501 9.19775406 -4.29359924 8.29589874 -4.29568481 7.36671448 C-4.2706871 0.13197426 -4.2706871 0.13197426 0 0 Z " fill="#FDFDFE" transform="translate(903.16015625,594.90234375)"/>
<path d="M0 0 C4.62 0 9.24 0 14 0 C16.71903796 2.99231578 17.5996455 4.42389145 19 8 C19.85115486 9.65491334 20.71410235 11.30380092 21.5871582 12.94726562 C22.49580869 14.7648785 23.40018045 16.5846352 24.30078125 18.40625 C24.7820195 19.3715564 25.26325775 20.33686279 25.75907898 21.3314209 C27.28068469 24.38574085 28.79667443 27.442808 30.3125 30.5 C31.34923813 32.5835181 32.38634388 34.66685332 33.42382812 36.75 C35.95347313 41.83122655 38.4785252 46.91471461 41 52 C41.01030746 51.36328873 41.02061493 50.72657745 41.03123474 50.0705719 C41.13906331 43.46873202 41.25367961 36.86703522 41.37231445 30.26538086 C41.41573943 27.79861431 41.45740872 25.33181622 41.49731445 22.86499023 C41.55483445 19.32786534 41.61858075 15.79090034 41.68359375 12.25390625 C41.70030624 11.14350479 41.71701874 10.03310333 41.73423767 8.88905334 C41.75418289 7.86807053 41.77412811 6.84708771 41.79467773 5.79516602 C41.81022202 4.89137711 41.8257663 3.9875882 41.84178162 3.05641174 C42 1 42 1 43 0 C45.6773138 -0.09981214 48.32304175 -0.13879875 51 -0.125 C51.75023437 -0.12886719 52.50046875 -0.13273438 53.2734375 -0.13671875 C58.87338947 -0.12661053 58.87338947 -0.12661053 60 1 C60.10062747 4.00813486 60.1361474 6.99335029 60.12939453 10.00195312 C60.13114685 10.9465892 60.13289917 11.89122528 60.13470459 12.86448669 C60.1391248 16.0034262 60.13618452 19.14230987 60.1328125 22.28125 C60.13348549 24.45218924 60.13445547 26.6231284 60.13571167 28.79406738 C60.13718887 33.35051183 60.13503337 37.90693672 60.13037109 42.46337891 C60.1246738 48.31826586 60.12795268 54.17310698 60.13394356 60.02799225 C60.13754857 64.51280058 60.13641086 68.99759796 60.13381577 73.48240662 C60.13314633 75.64188136 60.1339755 77.80135709 60.13629532 79.96083069 C60.13882086 82.97326308 60.13498264 85.98562013 60.12939453 88.99804688 C60.13141876 89.89990219 60.13344299 90.80175751 60.13552856 91.73094177 C60.11426231 97.88573769 60.11426231 97.88573769 59 99 C56.64686445 99.07271741 54.29166332 99.08370868 51.9375 99.0625 C50.00197266 99.04896484 50.00197266 99.04896484 48.02734375 99.03515625 C47.02832031 99.02355469 46.02929688 99.01195312 45 99 C38.6188108 87.09662783 32.48311429 75.07635455 26.4375 63 C26.0768042 62.28110596 25.7161084 61.56221191 25.34448242 60.8215332 C24.3093596 58.75717563 23.27719802 56.69136718 22.24609375 54.625 C21.93296738 54.0007312 21.619841 53.3764624 21.29722595 52.73327637 C20.02488528 50.17486161 18.90528433 47.715853 18 45 C17.67 62.82 17.34 80.64 17 99 C11.39 99 5.78 99 0 99 C0 66.33 0 33.66 0 0 Z " fill="#FDFDFE" transform="translate(403,595)"/>
<path d="M0 0 C3.62493334 -0.05787784 7.24974857 -0.0935542 10.875 -0.125 C11.90753906 -0.14175781 12.94007813 -0.15851563 14.00390625 -0.17578125 C14.99003906 -0.18222656 15.97617187 -0.18867188 16.9921875 -0.1953125 C18.35899658 -0.21102295 18.35899658 -0.21102295 19.75341797 -0.22705078 C22 0 22 0 24 2 C24.73282417 4.38597391 25.36892721 6.73360837 25.953125 9.15625 C26.13374481 9.88175049 26.31436462 10.60725098 26.50045776 11.35473633 C27.09076599 13.7347944 27.67057294 16.11727159 28.25 18.5 C28.65698634 20.15179205 29.0643785 21.80348416 29.47216797 23.45507812 C32.01842995 33.80442554 34.4662732 44.17468491 36.82006836 54.56958008 C38.96615745 64.00413231 41.32085956 73.38305579 43.72900391 82.75390625 C45.10530375 88.16141748 46.38164087 93.4508291 47 99 C44.20807795 99.05380578 41.4171859 99.09357669 38.625 99.125 C37.8309375 99.14175781 37.036875 99.15851563 36.21875 99.17578125 C34.14507985 99.19335473 32.07116759 99.10335168 30 99 C27.82276258 96.82276258 27.58100154 95.99514021 26.9296875 93.0859375 C26.77226074 92.40063965 26.61483398 91.7153418 26.45263672 91.00927734 C26.16670654 89.70531006 26.16670654 89.70531006 25.875 88.375 C24.946875 84.229375 24.946875 84.229375 24 80 C15.42 80 6.84 80 -2 80 C-3.23437193 85.50285418 -3.23437193 85.50285418 -4.45263672 91.00927734 C-4.61006348 91.6945752 -4.76749023 92.37987305 -4.9296875 93.0859375 C-5.16534424 94.1385376 -5.16534424 94.1385376 -5.40576172 95.21240234 C-6 97 -6 97 -8 99 C-10.9093558 99.14517744 -13.719946 99.18630796 -16.625 99.125 C-17.42679688 99.11597656 -18.22859375 99.10695313 -19.0546875 99.09765625 C-21.03658523 99.07406223 -23.01832981 99.03819065 -25 99 C-24.38385642 93.2373578 -23.33275116 87.77947556 -21.89868164 82.16894531 C-21.68716965 81.32564163 -21.47565765 80.48233795 -21.25773621 79.61347961 C-20.56333816 76.85046083 -19.86199737 74.08926172 -19.16015625 71.328125 C-18.6728456 69.39865205 -18.18582515 67.46910579 -17.69908142 65.53948975 C-16.68083772 61.50746455 -15.65915663 57.47633046 -14.63500977 53.44580078 C-13.32273975 48.28023528 -12.01899428 43.11256298 -10.71778202 37.94420242 C-9.71486935 33.96454781 -8.7075221 29.98602616 -7.69882011 26.00783539 C-7.21623675 24.10238663 -6.73502277 22.19659051 -6.25520515 20.29044342 C-5.5848699 17.63028959 -4.90859336 14.97171615 -4.23071289 12.31347656 C-4.03375824 11.52691177 -3.83680359 10.74034698 -3.63388062 9.9299469 C-2.73199915 6.41769829 -1.83055303 3.14899653 0 0 Z " fill="#FBFDFE" transform="translate(986,398)"/>
<path d="M0 0 C7.59 0 15.18 0 23 0 C24.81036349 4.82763597 26.39700371 9.08532025 27.61328125 13.9921875 C27.88841553 15.09530273 28.1635498 16.19841797 28.44702148 17.33496094 C28.73262939 18.50317383 29.0182373 19.67138672 29.3125 20.875 C29.61808838 22.11024414 29.92367676 23.34548828 30.23852539 24.61816406 C32.46802154 33.6842034 34.58391691 42.77381176 36.64624023 51.87915039 C38.07235502 58.12867907 39.57578889 64.35346698 41.15234375 70.56640625 C41.33653366 71.29372955 41.52072357 72.02105286 41.710495 72.77041626 C42.6186196 76.35085135 43.53437781 79.9291118 44.46069336 83.50488281 C44.79427979 84.81180514 45.12770248 86.11876928 45.4609375 87.42578125 C45.75790527 88.57473877 46.05487305 89.72369629 46.36083984 90.9074707 C47 94 47 94 47 99 C41.39 99 35.78 99 30 99 C27.4186862 92.42938306 25 86.14579671 25 79 C16.09 79 7.18 79 -2 79 C-2.33 81.64 -2.66 84.28 -3 87 C-3.45379139 88.99026985 -3.94867137 90.97201344 -4.5 92.9375 C-4.7578125 93.87464844 -5.015625 94.81179688 -5.28125 95.77734375 C-6 98 -6 98 -7 99 C-9.86267567 99.07325168 -12.700719 99.09238205 -15.5625 99.0625 C-16.36880859 99.05798828 -17.17511719 99.05347656 -18.00585938 99.04882812 C-20.00393756 99.03700518 -22.00197783 99.01906914 -24 99 C-23.44955182 89.04993329 -20.84676935 79.68815382 -18.37890625 70.078125 C-17.91373649 68.24605402 -17.44914143 66.41383704 -16.98509216 64.58148193 C-16.01518643 60.75778216 -15.04062408 56.93531263 -14.06225586 53.11376953 C-12.8105267 48.22423436 -11.56705983 43.33264785 -10.32663059 38.44023514 C-9.13864108 33.75628827 -7.94637027 29.07343431 -6.75390625 24.390625 C-6.52822023 23.50271523 -6.30253422 22.61480545 -6.07000923 21.69998932 C-5.42867644 19.17991547 -4.78428173 16.66064522 -4.13891602 14.14160156 C-3.85751015 13.03335777 -3.85751015 13.03335777 -3.57041931 11.90272522 C-2.52976374 7.8560617 -1.32515015 3.97545046 0 0 Z " fill="#FBFDFE" transform="translate(863,398)"/>
<path d="M0 0 C0.97484848 0.00222061 1.94969696 0.00444122 2.9540863 0.00672913 C4.05515213 0.00680466 5.15621796 0.00688019 6.29064941 0.00695801 C8.08749428 0.01469994 8.08749428 0.01469994 9.92063904 0.02259827 C11.14000656 0.02401321 12.35937408 0.02542816 13.61569214 0.02688599 C17.52856349 0.03250485 21.4413786 0.04506055 25.35423279 0.05775452 C27.99941426 0.06276709 30.64459662 0.06733041 33.28977966 0.07142639 C39.79045253 0.08248041 46.29108311 0.09975768 52.79173279 0.12025452 C52.79173279 6.39025452 52.79173279 12.66025452 52.79173279 19.12025452 C40.58173279 19.12025452 28.37173279 19.12025452 15.79173279 19.12025452 C15.79173279 28.36025452 15.79173279 37.60025452 15.79173279 47.12025452 C24.96156188 47.08065934 24.96156188 47.08065934 34.1313324 47.03016663 C35.26578796 47.02766907 36.40024353 47.02517151 37.56907654 47.02259827 C39.32079163 47.01474304 39.32079163 47.01474304 41.1078949 47.00672913 C43.79173279 47.12025452 43.79173279 47.12025452 44.79173279 48.12025452 C44.89160254 50.963605 44.9305116 53.77722615 44.91673279 56.62025452 C44.92253357 57.81714905 44.92253357 57.81714905 44.92845154 59.03822327 C44.91834046 64.99364684 44.91834046 64.99364684 43.79173279 66.12025452 C41.71911202 66.20792564 39.64352985 66.22721325 37.56907654 66.21791077 C36.43462097 66.21541321 35.30016541 66.21291565 34.1313324 66.21034241 C31.95229309 66.1966864 31.95229309 66.1966864 29.72923279 66.18275452 C25.12985779 66.16212952 20.53048279 66.14150452 15.79173279 66.12025452 C15.79173279 75.36025452 15.79173279 84.60025452 15.79173279 94.12025452 C28.00173279 94.12025452 40.21173279 94.12025452 52.79173279 94.12025452 C52.79173279 100.39025452 52.79173279 106.66025452 52.79173279 113.12025452 C44.97720065 113.14489408 37.16269091 113.16308557 29.34812927 113.17518616 C26.68731798 113.18022835 24.02650947 113.18706188 21.3657074 113.19569397 C17.55067763 113.2077646 13.73568435 113.21348381 9.92063904 113.21791077 C8.12379417 113.22565269 8.12379417 113.22565269 6.29064941 113.23355103 C4.63905067 113.23366432 4.63905067 113.23366432 2.9540863 113.23377991 C1.97923782 113.23600052 1.00438934 113.23822113 0 113.24050903 C-2.20826721 113.12025452 -2.20826721 113.12025452 -3.20826721 112.12025452 C-3.30600661 110.68044238 -3.33458434 109.23586548 -3.33525085 107.79273987 C-3.33807068 106.85883926 -3.3408905 105.92493866 -3.34379578 104.96273804 C-3.34177155 103.92997238 -3.33974731 102.89720673 -3.33766174 101.83314514 C-3.33941406 100.75195908 -3.34116638 99.67077301 -3.3429718 98.55682373 C-3.34739279 94.96336793 -3.34445145 91.36996087 -3.34107971 87.77650452 C-3.34175268 85.29168183 -3.34272264 82.8068592 -3.34397888 80.32203674 C-3.34564579 74.43712077 -3.34213299 68.55222264 -3.33682811 62.66730928 C-3.33307329 57.96655853 -3.33440088 53.26582871 -3.33863831 48.56507874 C-3.34441758 42.09951162 -3.34535174 35.63396481 -3.34208298 29.168396 C-3.34141346 26.69631953 -3.34224298 24.22424221 -3.34456253 21.75216675 C-3.3470876 18.30387554 -3.34325051 14.85565017 -3.33766174 11.40736389 C-3.33968597 10.37459824 -3.34171021 9.34183258 -3.34379578 8.277771 C-3.34097595 7.34387039 -3.33815613 6.40996979 -3.33525085 5.44776917 C-3.33487383 4.63143761 -3.3344968 3.81510605 -3.33410835 2.97403717 C-3.14777869 0.22919006 -2.74441828 0.14945143 0 0 Z " fill="#FCFDFE" transform="translate(335.20826721191406,580.8797454833984)"/>
<path d="M0 0 C1.20269531 -0.020625 2.40539062 -0.04125 3.64453125 -0.0625 C17.95839467 -0.12534902 17.95839467 -0.12534902 23.26220703 4.59619141 C28.7369606 10.7378802 29.02677906 16.23420324 28.875 24.0625 C28.86597656 24.94615234 28.85695313 25.82980469 28.84765625 26.74023438 C28.82419637 28.91027359 28.78832865 31.08017247 28.75 33.25 C25.93743719 33.27684312 23.12512759 33.29676188 20.3125 33.3125 C19.10883789 33.32506836 19.10883789 33.32506836 17.88085938 33.33789062 C15.83704779 33.3465143 13.79316098 33.3022815 11.75 33.25 C9.63547762 31.13547762 10.30438351 26.68004574 10.12890625 23.81640625 C9.98688035 21.0893833 9.98688035 21.0893833 7.75 19.25 C4.46235985 18.92942129 4.46235985 18.92942129 0.75 19 C-1.1371875 18.99226562 -1.1371875 18.99226562 -3.0625 18.984375 C-6.34282361 18.91219545 -6.34282361 18.91219545 -8.25 21.25 C-8.55679 23.74354478 -8.55679 23.74354478 -8.50878906 26.67773438 C-8.51509338 27.81231079 -8.52139771 28.94688721 -8.52789307 30.11584473 C-8.5238446 31.34605347 -8.51979614 32.57626221 -8.515625 33.84375 C-8.51753845 35.10135132 -8.5194519 36.35895264 -8.52142334 37.65466309 C-8.52278649 40.31792875 -8.52008006 42.9808293 -8.51074219 45.64404297 C-8.49934752 49.06071394 -8.50590748 52.47707072 -8.51788712 55.89373016 C-8.52684454 59.14791479 -8.52057628 62.40206127 -8.515625 65.65625 C-8.51967346 66.88645874 -8.52372192 68.11666748 -8.52789307 69.38415527 C-8.52158875 70.51873169 -8.51528442 71.65330811 -8.50878906 72.82226562 C-8.50719788 73.82439087 -8.50560669 74.82651611 -8.50396729 75.85900879 C-8.48357439 78.4354014 -8.48357439 78.4354014 -6.25 80.25 C-2.96235985 80.57057871 -2.96235985 80.57057871 0.75 80.5 C2.6371875 80.50773438 2.6371875 80.50773438 4.5625 80.515625 C7.84282361 80.58780455 7.84282361 80.58780455 9.75 78.25 C10.05599063 75.68083343 10.26087087 73.20241616 10.375 70.625 C10.41367187 69.91859375 10.45234375 69.2121875 10.4921875 68.484375 C10.58647724 66.74001476 10.66932891 64.99504309 10.75 63.25 C7.78 63.25 4.81 63.25 1.75 63.25 C1.75 56.98 1.75 50.71 1.75 44.25 C6.06254083 44.22317701 10.37491707 44.20324756 14.6875 44.1875 C15.91919922 44.17912109 17.15089844 44.17074219 18.41992188 44.16210938 C19.58974609 44.15888672 20.75957031 44.15566406 21.96484375 44.15234375 C23.59087524 44.14448853 23.59087524 44.14448853 25.24975586 44.13647461 C27.75 44.25 27.75 44.25 28.75 45.25 C28.87608333 48.04083546 28.93870347 50.8055019 28.953125 53.59765625 C28.95882507 54.44291367 28.96452515 55.28817108 28.97039795 56.15904236 C28.97986796 57.95554344 28.98638983 59.75206205 28.99023438 61.54858398 C28.99987403 64.27684787 29.03084996 67.00433716 29.0625 69.73242188 C29.06903658 71.4791622 29.07428447 73.22590792 29.078125 74.97265625 C29.0904718 75.7813063 29.1028186 76.58995636 29.11553955 77.42311096 C29.09296152 83.2685112 28.4034348 89.15275039 24.43951416 93.77967834 C17.2137292 100.25165793 8.86213104 99.5858405 -0.25 99.5625 C-2.1371875 99.58666992 -2.1371875 99.58666992 -4.0625 99.61132812 C-5.279375 99.61197266 -6.49625 99.61261719 -7.75 99.61328125 C-8.8534375 99.61626221 -9.956875 99.61924316 -11.09375 99.62231445 C-17.28390583 98.89211739 -21.21922692 95.84060268 -25.25 91.25 C-27.64818705 87.60202504 -27.51543347 84.30316829 -27.54052734 80.00634766 C-27.54724457 79.28388351 -27.55396179 78.56141937 -27.56088257 77.81706238 C-27.57985446 75.4326588 -27.58378633 73.04853683 -27.5859375 70.6640625 C-27.59236607 69.00263351 -27.59909448 67.34120566 -27.60610962 65.67977905 C-27.6180804 62.19795101 -27.62179066 58.71622217 -27.62060547 55.234375 C-27.62040231 50.77995245 -27.64770203 46.3261681 -27.68214989 41.87189674 C-27.7044237 38.44028826 -27.70844287 35.00883324 -27.70738602 31.57715988 C-27.70974134 29.93535539 -27.71856109 28.29354662 -27.73405075 26.65181351 C-27.7537211 24.35157256 -27.74786983 22.05270607 -27.73583984 19.75244141 C-27.73868988 18.44546295 -27.74153992 17.1384845 -27.74447632 15.79190063 C-27.01330932 10.55460054 -24.3236987 6.74738019 -20.25 3.4375 C-14.17177846 -0.99453654 -7.26997784 0.03077239 0 0 Z " fill="#FCFDFE" transform="translate(1001.25,594.75)"/>
<path d="M0 0 C1.24587891 -0.02449219 2.49175781 -0.04898438 3.77539062 -0.07421875 C11.60076261 -0.0991271 17.76366601 0.23202218 23.73339844 5.82275391 C27.51596589 10.04197564 28.32230465 13.42391118 28.28515625 18.921875 C28.28193359 19.76621094 28.27871094 20.61054687 28.27539062 21.48046875 C28.26282227 22.78951172 28.26282227 22.78951172 28.25 24.125 C28.24548828 25.01316406 28.24097656 25.90132812 28.23632812 26.81640625 C28.224574 29.00267329 28.20814249 31.18880179 28.1875 33.375 C25.37493719 33.40184312 22.56262759 33.42176188 19.75 33.4375 C18.54633789 33.45006836 18.54633789 33.45006836 17.31835938 33.46289062 C15.27454779 33.4715143 13.23066098 33.4272815 11.1875 33.375 C9.30925109 31.49675109 9.79647603 28.33564724 9.625 25.8125 C9.54121094 24.61496094 9.45742188 23.41742187 9.37109375 22.18359375 C9.31050781 21.25675781 9.24992188 20.32992187 9.1875 19.375 C6.56222811 19.32117894 3.93805287 19.28141687 1.3125 19.25 C0.19294922 19.22486328 0.19294922 19.22486328 -0.94921875 19.19921875 C-2.90444461 19.1816041 -4.85992021 19.27179811 -6.8125 19.375 C-9.43664755 21.99914755 -9.06548097 23.14481062 -9.07128906 26.80273438 C-9.07759338 27.93731079 -9.08389771 29.07188721 -9.09039307 30.24084473 C-9.0863446 31.47105347 -9.08229614 32.70126221 -9.078125 33.96875 C-9.08003845 35.22635132 -9.0819519 36.48395264 -9.08392334 37.77966309 C-9.08528649 40.44292875 -9.08258006 43.1058293 -9.07324219 45.76904297 C-9.06184752 49.18571394 -9.06840748 52.60207072 -9.08038712 56.01873016 C-9.08934454 59.27291479 -9.08307628 62.52706127 -9.078125 65.78125 C-9.08217346 67.01145874 -9.08622192 68.24166748 -9.09039307 69.50915527 C-9.08408875 70.64373169 -9.07778442 71.77830811 -9.07128906 72.94726562 C-9.06969788 73.94939087 -9.06810669 74.95151611 -9.06646729 75.98400879 C-9.04607439 78.5604014 -9.04607439 78.5604014 -6.8125 80.375 C-3.52380055 80.65729785 -3.52380055 80.65729785 0.1875 80.5625 C1.445625 80.55605469 2.70375 80.54960938 4 80.54296875 C7.08383791 80.5933004 7.08383791 80.5933004 9.1875 79.375 C9.49991455 76.66053021 9.70086592 74.03590639 9.8125 71.3125 C9.85117187 70.55388672 9.88984375 69.79527344 9.9296875 69.01367188 C10.02423562 67.13452805 10.10696756 65.25479664 10.1875 63.375 C8.888125 63.395625 7.58875 63.41625 6.25 63.4375 C4.89584367 63.45899454 3.53993917 63.44648199 2.1875 63.375 C0.3019747 61.4894747 1.05503311 58.79731169 1.05078125 56.29296875 C1.05464844 55.49503906 1.05851562 54.69710937 1.0625 53.875 C1.05669922 52.67810547 1.05669922 52.67810547 1.05078125 51.45703125 C1.06089233 45.50160767 1.06089233 45.50160767 2.1875 44.375 C4.11417507 44.28751793 6.04401861 44.26802666 7.97265625 44.27734375 C9.14248047 44.28056641 10.31230469 44.28378906 11.51757812 44.28710938 C12.74927734 44.29548828 13.98097656 44.30386719 15.25 44.3125 C17.10334961 44.31926758 17.10334961 44.31926758 18.99414062 44.32617188 C22.05864117 44.33800392 25.12304721 44.35448827 28.1875 44.375 C28.26183795 50.24655408 28.31619117 56.11783219 28.35229492 61.98974609 C28.36735098 63.98588841 28.38780027 65.98199781 28.41381836 67.97802734 C28.45034161 70.85262185 28.46725837 73.72677772 28.48046875 76.6015625 C28.49595261 77.48929352 28.51143646 78.37702454 28.52738953 79.29165649 C28.52877194 84.41893496 28.06095265 87.94553368 25.1875 92.375 C17.26908975 99.94913154 10.38329388 99.76579647 -0.125 99.8125 C-1.41857422 99.84537109 -2.71214844 99.87824219 -4.04492188 99.91210938 C-11.68146932 99.95507716 -17.10437036 99.67545989 -22.8125 94.375 C-29.44331695 87.48698196 -28.50661216 78.73141918 -28.40625 69.8359375 C-28.40453651 68.22506805 -28.404607 66.61419581 -28.40637207 65.00332642 C-28.40472454 61.63931334 -28.38612859 58.27597128 -28.35449219 54.91210938 C-28.31475195 50.6102794 -28.31045786 46.309324 -28.31795502 42.0073452 C-28.32103041 38.68549655 -28.3088851 35.36384285 -28.29182434 32.04204178 C-28.28481802 30.45609383 -28.28166692 28.87012381 -28.28251648 27.28416061 C-28.28070988 25.06582738 -28.25925869 22.84852497 -28.23242188 20.63037109 C-28.21979309 18.74129532 -28.21979309 18.74129532 -28.20690918 16.8140564 C-27.59282275 11.45952112 -25.80387097 8.32326788 -21.9375 4.625 C-14.90627199 -0.43748417 -8.40797004 0.00861914 0 0 Z " fill="#FCFDFE" transform="translate(504.8125,594.625)"/>
<path d="M0 0 C1.09783813 -0.00315216 2.19567627 -0.00630432 3.32678223 -0.009552 C5.11892151 -0.00651566 5.11892151 -0.00651566 6.94726562 -0.00341797 C8.16426147 -0.00437469 9.38125732 -0.00533142 10.63513184 -0.00631714 C13.21427461 -0.00699919 15.79341909 -0.00514319 18.37255859 -0.00097656 C22.33630198 0.00437131 26.29993204 -0.00092076 30.26367188 -0.00732422 C32.76237004 -0.00666344 35.26106814 -0.00538229 37.75976562 -0.00341797 C38.95452515 -0.0054422 40.14928467 -0.00746643 41.38024902 -0.009552 C42.47808716 -0.00639984 43.57592529 -0.00324768 44.70703125 0 C46.16477966 0.00119339 46.16477966 0.00119339 47.65197754 0.00241089 C49.85351562 0.12939453 49.85351562 0.12939453 50.85351562 1.12939453 C50.95338537 3.97274501 50.99229444 6.78636616 50.97851562 9.62939453 C50.98431641 10.82628906 50.98431641 10.82628906 50.99023438 12.04736328 C50.9801233 18.00278686 50.9801233 18.00278686 49.85351562 19.12939453 C47.18725532 19.21794614 44.54704448 19.24464126 41.88085938 19.22705078 C41.08321671 19.22563583 40.28557404 19.22422089 39.46376038 19.22276306 C36.90614127 19.2171477 34.34860845 19.20459265 31.79101562 19.19189453 C30.06119918 19.18688151 28.33138136 19.18231826 26.6015625 19.17822266 C22.35215324 19.16802244 18.10293146 19.14845021 13.85351562 19.12939453 C13.85351562 26.05939453 13.85351562 32.98939453 13.85351562 40.12939453 C15.79097656 40.11779297 17.7284375 40.10619141 19.72460938 40.09423828 C22.24674383 40.08486232 24.76887933 40.07576191 27.29101562 40.06689453 C28.57041016 40.05851563 29.84980469 40.05013672 31.16796875 40.04150391 C32.38291016 40.03828125 33.59785156 40.03505859 34.84960938 40.03173828 C35.9755249 40.02650146 37.10144043 40.02126465 38.26147461 40.01586914 C40.85351562 40.12939453 40.85351562 40.12939453 41.85351562 41.12939453 C41.95188772 42.45983078 41.98430155 43.79532797 41.98632812 45.12939453 C41.98826172 46.33595703 41.98826172 46.33595703 41.99023438 47.56689453 C41.98636719 48.41251953 41.9825 49.25814453 41.97851562 50.12939453 C41.98431641 51.39783203 41.98431641 51.39783203 41.99023438 52.69189453 C41.98894531 53.49626953 41.98765625 54.30064453 41.98632812 55.12939453 C41.9852002 55.87189453 41.98407227 56.61439453 41.98291016 57.37939453 C41.85351562 59.12939453 41.85351562 59.12939453 40.85351562 60.12939453 C38.8538658 60.21697456 36.85115453 60.23636029 34.84960938 60.22705078 C33.63466797 60.22382812 32.41972656 60.22060547 31.16796875 60.21728516 C29.88857422 60.20890625 28.60917969 60.20052734 27.29101562 60.19189453 C26.00775391 60.18738281 24.72449219 60.18287109 23.40234375 60.17822266 C20.21938142 60.16639008 17.03644288 60.14845398 13.85351562 60.12939453 C13.85351562 66.72939453 13.85351562 73.32939453 13.85351562 80.12939453 C16.44066406 80.11779297 19.0278125 80.10619141 21.69335938 80.09423828 C24.18871945 80.08644791 26.6840782 80.08037104 29.17944336 80.07446289 C30.9187073 80.06942249 32.65796699 80.06259023 34.3972168 80.05395508 C36.89177499 80.04187661 39.38627736 80.03616345 41.88085938 80.03173828 C42.66315414 80.026577 43.44544891 80.02141571 44.25144958 80.01609802 C46.11918677 80.01590227 47.98680767 80.06739759 49.85351562 80.12939453 C51.73904092 82.01491983 50.98598252 84.70708284 50.99023438 87.21142578 C50.98636719 88.00935547 50.9825 88.80728516 50.97851562 89.62939453 C50.98431641 90.82628906 50.98431641 90.82628906 50.99023438 92.04736328 C50.9801233 98.00278686 50.9801233 98.00278686 49.85351562 99.12939453 C48.14032617 99.22821046 46.42306759 99.25738422 44.70703125 99.25878906 C43.60919312 99.26194122 42.51135498 99.26509338 41.38024902 99.26834106 C40.1854895 99.26631683 38.99072998 99.2642926 37.75976562 99.26220703 C36.54276978 99.26316376 35.32577393 99.26412048 34.07189941 99.2651062 C31.49275664 99.26578825 28.91361216 99.26393225 26.33447266 99.25976562 C22.37072927 99.25441776 18.40709921 99.25970982 14.44335938 99.26611328 C11.94466121 99.2654525 9.44596311 99.26417135 6.94726562 99.26220703 C5.15512634 99.26524338 5.15512634 99.26524338 3.32678223 99.26834106 C2.22894409 99.2651889 1.13110596 99.26203674 0 99.25878906 C-1.45774841 99.25759567 -1.45774841 99.25759567 -2.94494629 99.25637817 C-5.14648438 99.12939453 -5.14648438 99.12939453 -6.14648438 98.12939453 C-6.24711184 95.12125967 -6.28263177 92.13604425 -6.27587891 89.12744141 C-6.27763123 88.18280533 -6.27938354 87.23816925 -6.28118896 86.26490784 C-6.28560918 83.12596833 -6.28266889 79.98708466 -6.27929688 76.84814453 C-6.27996987 74.67720529 -6.28093985 72.50626613 -6.28219604 70.33532715 C-6.28367325 65.7788827 -6.28151774 61.22245781 -6.27685547 56.66601562 C-6.27115817 50.81112867 -6.27443706 44.95628755 -6.28042793 39.10140228 C-6.28403294 34.61659395 -6.28289524 30.13179657 -6.28030014 25.64698792 C-6.2796307 23.48751317 -6.28045987 21.32803745 -6.28277969 19.16856384 C-6.28530523 16.15613145 -6.28146702 13.1437744 -6.27587891 10.13134766 C-6.27790314 9.22949234 -6.27992737 8.32763702 -6.28201294 7.39845276 C-6.25646726 0.00512187 -6.25646726 0.00512187 0 0 Z " fill="#F8FBFD" transform="translate(661.146484375,594.87060546875)"/>
<path d="M0 0 C1.61672607 -0.00472824 1.61672607 -0.00472824 3.26611328 -0.009552 C4.43899902 -0.00752777 5.61188477 -0.00550354 6.8203125 -0.00341797 C8.0151123 -0.00437469 9.20991211 -0.00533142 10.44091797 -0.00631714 C12.9729823 -0.00699918 15.50504838 -0.00514325 18.03710938 -0.00097656 C21.9284251 0.00437132 25.81962539 -0.00092079 29.7109375 -0.00732422 C32.16406276 -0.00666344 34.61718794 -0.00538229 37.0703125 -0.00341797 C38.24319824 -0.0054422 39.41608398 -0.00746643 40.62451172 -0.009552 C41.7023291 -0.00639984 42.78014648 -0.00324768 43.890625 0 C44.84469238 0.00079559 45.79875977 0.00159119 46.78173828 0.00241089 C48.9453125 0.12939453 48.9453125 0.12939453 49.9453125 1.12939453 C50.04518225 3.97274501 50.08409131 6.78636616 50.0703125 9.62939453 C50.07611328 10.82628906 50.07611328 10.82628906 50.08203125 12.04736328 C50.07192017 18.00278686 50.07192017 18.00278686 48.9453125 19.12939453 C46.2790522 19.21794614 43.63884136 19.24464126 40.97265625 19.22705078 C40.17501358 19.22563583 39.37737091 19.22422089 38.55555725 19.22276306 C35.99793815 19.2171477 33.44040532 19.20459265 30.8828125 19.19189453 C29.15299605 19.18688151 27.42317824 19.18231826 25.69335938 19.17822266 C21.44395011 19.16802244 17.19472834 19.14845021 12.9453125 19.12939453 C12.9453125 26.38939453 12.9453125 33.64939453 12.9453125 41.12939453 C22.5153125 41.12939453 32.0853125 41.12939453 41.9453125 41.12939453 C41.9453125 47.06939453 41.9453125 53.00939453 41.9453125 59.12939453 C32.3753125 59.12939453 22.8053125 59.12939453 12.9453125 59.12939453 C12.9453125 66.05939453 12.9453125 72.98939453 12.9453125 80.12939453 C15.53246094 80.11779297 18.11960937 80.10619141 20.78515625 80.09423828 C23.28051633 80.08644791 25.77587507 80.08037104 28.27124023 80.07446289 C30.01050418 80.06942249 31.74976386 80.06259023 33.48901367 80.05395508 C35.98357187 80.04187661 38.47807423 80.03616345 40.97265625 80.03173828 C41.75495102 80.026577 42.53724579 80.02141571 43.34324646 80.01609802 C45.21098364 80.01590227 47.07860454 80.06739759 48.9453125 80.12939453 C53.42985385 84.61393588 49.9453125 92.78729533 49.9453125 99.12939453 C31.4653125 99.12939453 12.9853125 99.12939453 -6.0546875 99.12939453 C-6.09479631 74.71204271 -6.09479631 74.71204271 -6.10351562 64.34228516 C-6.10950458 57.25316626 -6.11660626 50.16406022 -6.13012695 43.07495117 C-6.14095411 37.36266883 -6.14696397 31.65040026 -6.14956474 25.93810844 C-6.1514193 23.75351176 -6.1550405 21.56891588 -6.16041756 19.38432503 C-6.16762571 16.33587104 -6.16867854 13.28747474 -6.16821289 10.23901367 C-6.17180817 9.32623657 -6.17540344 8.41345947 -6.17910767 7.47302246 C-6.16667873 0.00514237 -6.16667873 0.00514237 0 0 Z " fill="#FDFEFE" transform="translate(732.0546875,594.87060546875)"/>
<path d="M0 0 C1.09783813 -0.00315216 2.19567627 -0.00630432 3.32678223 -0.009552 C5.11892151 -0.00651566 5.11892151 -0.00651566 6.94726562 -0.00341797 C8.16426147 -0.00437469 9.38125732 -0.00533142 10.63513184 -0.00631714 C13.21427461 -0.00699919 15.79341909 -0.00514319 18.37255859 -0.00097656 C22.33630198 0.00437131 26.29993204 -0.00092076 30.26367188 -0.00732422 C32.76237004 -0.00666344 35.26106814 -0.00538229 37.75976562 -0.00341797 C38.95452515 -0.0054422 40.14928467 -0.00746643 41.38024902 -0.009552 C42.47808716 -0.00639984 43.57592529 -0.00324768 44.70703125 0 C46.16477966 0.00119339 46.16477966 0.00119339 47.65197754 0.00241089 C49.85351562 0.12939453 49.85351562 0.12939453 50.85351562 1.12939453 C50.95338537 3.97274501 50.99229444 6.78636616 50.97851562 9.62939453 C50.98431641 10.82628906 50.98431641 10.82628906 50.99023438 12.04736328 C50.9801233 18.00278686 50.9801233 18.00278686 49.85351562 19.12939453 C43.91351562 19.12939453 37.97351563 19.12939453 31.85351562 19.12939453 C31.85351562 45.52939453 31.85351562 71.92939453 31.85351562 99.12939453 C25.91351562 99.12939453 19.97351563 99.12939453 13.85351562 99.12939453 C12.14522152 97.42110043 12.73379636 95.26935076 12.72909546 92.99153137 C12.73269073 92.2564183 12.73628601 91.52130524 12.73999023 90.76391602 C12.73984421 89.99323792 12.73969818 89.22255981 12.73954773 88.42852783 C12.74024703 85.86915314 12.74804017 83.30985033 12.75585938 80.75048828 C12.7577235 78.98071838 12.75914743 77.21094797 12.76014709 75.44117737 C12.76397274 70.77388087 12.77380342 66.1066153 12.78485107 61.43933105 C12.79506419 56.68042418 12.7996445 51.92151232 12.8046875 47.16259766 C12.81542565 37.818183 12.83250263 28.47379133 12.85351562 19.12939453 C11.56574219 19.14099609 10.27796875 19.15259766 8.95117188 19.16455078 C7.2727879 19.17392723 5.59440237 19.18302758 3.91601562 19.19189453 C2.64081055 19.20446289 2.64081055 19.20446289 1.33984375 19.21728516 C0.53095703 19.22050781 -0.27792969 19.22373047 -1.11132812 19.22705078 C-1.86019287 19.2322876 -2.60905762 19.23752441 -3.38061523 19.24291992 C-5.14648438 19.12939453 -5.14648438 19.12939453 -6.14648438 18.12939453 C-6.24635412 15.28604405 -6.28526319 12.4724229 -6.27148438 9.62939453 C-6.27535156 8.83146484 -6.27921875 8.03353516 -6.28320312 7.21142578 C-6.27096833 0.00513375 -6.27096833 0.00513375 0 0 Z " fill="#FBFDFE" transform="translate(913.146484375,397.87060546875)"/>
<path d="M0 0 C5.94 0 11.88 0 18 0 C19.90841444 1.90841444 19.12675361 4.72944588 19.13552856 7.26905823 C19.13350433 8.17091354 19.1314801 9.07276886 19.12939453 10.00195312 C19.13114685 10.9465892 19.13289917 11.89122528 19.13470459 12.86448669 C19.1391248 16.0034262 19.13618452 19.14230987 19.1328125 22.28125 C19.13348549 24.45218924 19.13445547 26.6231284 19.13571167 28.79406738 C19.13718887 33.35051183 19.13503337 37.90693672 19.13037109 42.46337891 C19.1246738 48.31826586 19.12795268 54.17310698 19.13394356 60.02799225 C19.13754857 64.51280058 19.13641086 68.99759796 19.13381577 73.48240662 C19.13314633 75.64188136 19.1339755 77.80135709 19.13629532 79.96083069 C19.13882086 82.97326308 19.13498264 85.98562013 19.12939453 88.99804688 C19.13141876 89.89990219 19.13344299 90.80175751 19.13552856 91.73094177 C19.11426231 97.88573769 19.11426231 97.88573769 18 99 C12.06 99 6.12 99 0 99 C0 66.33 0 33.66 0 0 Z " fill="#FCFDFE" transform="translate(866,595)"/>
<path d="M0 0 C5.94 0 11.88 0 18 0 C19.90841444 1.90841444 19.12675361 4.72944588 19.13552856 7.26905823 C19.13350433 8.17091354 19.1314801 9.07276886 19.12939453 10.00195312 C19.13114685 10.9465892 19.13289917 11.89122528 19.13470459 12.86448669 C19.1391248 16.0034262 19.13618452 19.14230987 19.1328125 22.28125 C19.13348549 24.45218924 19.13445547 26.6231284 19.13571167 28.79406738 C19.13718887 33.35051183 19.13503337 37.90693672 19.13037109 42.46337891 C19.1246738 48.31826586 19.12795268 54.17310698 19.13394356 60.02799225 C19.13754857 64.51280058 19.13641086 68.99759796 19.13381577 73.48240662 C19.13314633 75.64188136 19.1339755 77.80135709 19.13629532 79.96083069 C19.13882086 82.97326308 19.13498264 85.98562013 19.12939453 88.99804688 C19.13141876 89.89990219 19.13344299 90.80175751 19.13552856 91.73094177 C19.11426231 97.88573769 19.11426231 97.88573769 18 99 C12.06 99 6.12 99 0 99 C0 66.33 0 33.66 0 0 Z " fill="#FCFDFE" transform="translate(548,595)"/>
<path d="M0 0 C5.28 0 10.56 0 16 0 C18.84178065 2.84178065 18.25372554 4.73244767 18.25878906 8.71289062 C18.2622937 9.4024736 18.26579834 10.09205658 18.26940918 10.80253601 C18.27822829 13.08720905 18.27237687 15.37157368 18.265625 17.65625 C18.2669716 19.24043843 18.26891209 20.82462646 18.27142334 22.40881348 C18.27437484 25.73107838 18.27007618 29.05323585 18.26074219 32.37548828 C18.24934758 36.63961591 18.25590692 40.90349179 18.26788712 45.16761017 C18.27510505 48.43949286 18.27281811 51.7113156 18.26763153 54.98320007 C18.26629485 56.55572031 18.26794341 58.12824595 18.27259064 59.70075989 C18.27765485 61.89635693 18.2699475 64.09154304 18.25878906 66.28710938 C18.25640228 68.16335999 18.25640228 68.16335999 18.25396729 70.07751465 C18 73 18 73 16 75 C10.72 75 5.44 75 0 75 C0 50.25 0 25.5 0 0 Z " fill="#0078C5" transform="translate(796,403)"/>
<path d="M0 0 C2 3 2 3 3 6 C-1.29 6 -5.58 6 -10 6 C-10 141.63 -10 277.26 -10 417 C86.03 417 182.06 417 281 417 C281 417.33 281 417.66 281 418 C184.64 418 88.28 418 -11 418 C-11.04033135 314.39772677 -11.04033135 314.39772677 -11.04882812 271.24023438 C-11.05078615 261.36092121 -11.05280667 251.48160806 -11.05493164 241.60229492 C-11.05519539 240.36399852 -11.05545914 239.12570212 -11.05573088 237.84988159 C-11.06008611 217.83042597 -11.06797317 197.81097321 -11.0771528 177.79151929 C-11.08648788 157.26257937 -11.0920553 136.73364094 -11.09408849 116.20469898 C-11.09546403 103.5262956 -11.09981623 90.84790029 -11.10791647 78.16949939 C-11.11318213 69.48812455 -11.11480471 60.80675392 -11.11350138 52.1253776 C-11.11285772 47.10866306 -11.11387867 42.09196268 -11.11920547 37.07525063 C-11.12403842 32.49045961 -11.12433935 27.90569238 -11.12089889 23.32090031 C-11.1204731 21.65467503 -11.12176972 19.98844831 -11.12488318 18.32222588 C-11.12884551 16.07246132 -11.12676444 13.82278483 -11.12304783 11.57302189 C-11.12342755 10.31880564 -11.12380727 9.06458939 -11.1241985 7.77236658 C-11 5 -11 5 -10 4 C-8.31391034 3.92794489 -6.62499341 3.91613932 -4.9375 3.9375 C-4.01839844 3.94652344 -3.09929687 3.95554687 -2.15234375 3.96484375 C-1.44207031 3.97644531 -0.73179688 3.98804688 0 4 C0 2.68 0 1.36 0 0 Z " fill="#A3CCE4" transform="translate(1103,336)"/>
<path d="M0 0 C4.1146875 -0.0928125 4.1146875 -0.0928125 8.3125 -0.1875 C9.60281128 -0.22846802 9.60281128 -0.22846802 10.91918945 -0.27026367 C11.60198975 -0.27775635 12.28479004 -0.28524902 12.98828125 -0.29296875 C14.03302612 -0.31653442 14.03302612 -0.31653442 15.09887695 -0.34057617 C17 0 17 0 18.72583008 1.13745117 C20.55678483 3.81389374 20.3884911 5.87111497 20.3984375 9.09375 C20.40423828 10.88619141 20.40423828 10.88619141 20.41015625 12.71484375 C20.39855469 13.96394531 20.38695312 15.21304688 20.375 16.5 C20.38660156 17.74910156 20.39820313 18.99820313 20.41015625 20.28515625 C20.40628906 21.48011719 20.40242187 22.67507813 20.3984375 23.90625 C20.39505371 25.00259766 20.39166992 26.09894531 20.38818359 27.22851562 C20 30 20 30 18.72583008 31.86254883 C16.62938879 33.24426052 15.48390302 33.34926097 12.98828125 33.29296875 C12.30548096 33.28547607 11.62268066 33.2779834 10.91918945 33.27026367 C9.62887817 33.22929565 9.62887817 33.22929565 8.3125 33.1875 C5.569375 33.125625 2.82625 33.06375 0 33 C0 22.11 0 11.22 0 0 Z " fill="#0A7DC7" transform="translate(813,613)"/>
<path d="M0 0 C0.66 0.33 1.32 0.66 2 1 C1.0256645 1.80364046 0.051329 2.60728092 -0.95253181 3.43527412 C-4.17374922 6.68269637 -4.71123858 9.016007 -4.80066097 13.50639999 C-4.78028182 14.75836093 -4.78028182 14.75836093 -4.75949097 16.03561401 C-4.76870107 16.93503853 -4.77791117 17.83446305 -4.78740036 18.76114285 C-4.81096154 21.76958204 -4.79187978 24.77621864 -4.77294922 27.78466797 C-4.78112041 29.94317225 -4.79192303 32.10166794 -4.80516052 34.26014709 C-4.83361939 40.11722076 -4.82523678 45.97373271 -4.81029272 51.83083487 C-4.8009205 57.95280436 -4.82535622 64.07463606 -4.84622192 70.19656372 C-4.88058472 81.78806215 -4.88449621 93.37936336 -4.87749684 104.97090256 C-4.87100846 118.1679486 -4.89842234 131.36485587 -4.92869925 144.5618608 C-4.99021812 171.70792128 -5.00911268 198.85387786 -5 226 C-5.66 226 -6.32 226 -7 226 C-7.14003967 197.25433475 -7.24590721 168.50872047 -7.31087303 139.76278305 C-7.34183696 126.41611177 -7.38406621 113.06967757 -7.45263672 99.72314453 C-7.51236069 88.09297398 -7.55113068 76.46295671 -7.56453097 64.83263707 C-7.57236651 58.67197148 -7.59083503 52.51174447 -7.63438034 46.35121918 C-7.67501028 40.55636548 -7.68768831 34.76213233 -7.67864609 28.96714973 C-7.68030102 26.83699487 -7.69229263 24.70681993 -7.71523285 22.57678795 C-7.74496926 19.67409983 -7.73795421 16.77377236 -7.7215271 13.87103271 C-7.73900415 13.02278451 -7.7564812 12.1745363 -7.77448785 11.3005836 C-7.73977154 9.04028688 -7.66139689 7.1621811 -7 5 C-4.01740456 2.50806046 -4.01740456 2.50806046 -1 1 C-0.67 0.67 -0.34 0.34 0 0 Z " fill="#55BCC1" transform="translate(1303,527)"/>
<path d="M0 0 C2.22137028 3.33205541 2.91415921 6.34681888 3.7265625 10.1875 C3.87910492 10.88641357 4.03164734 11.58532715 4.18881226 12.30541992 C4.50944702 13.78075572 4.82697354 15.25676999 5.14160156 16.73339844 C5.62354642 18.99318435 6.11563558 21.25057749 6.609375 23.5078125 C6.91987122 24.94257854 7.22978674 26.37747039 7.5390625 27.8125 C7.68590485 28.48756592 7.83274719 29.16263184 7.98403931 29.8581543 C8.57372395 32.64031087 9 35.14572023 9 38 C3.39 38 -2.22 38 -8 38 C-6.64056363 29.31544532 -4.89708349 20.80273592 -2.875 12.25 C-2.59785156 11.0640625 -2.32070313 9.878125 -2.03515625 8.65625 C-1.36015133 5.77002206 -0.68172086 2.88464761 0 0 Z " fill="#097DC7" transform="translate(874,423)"/>
<path d="M0 0 C0.66 0 1.32 0 2 0 C2.97939367 4.32314361 3.95796562 8.64647217 4.93579102 12.9699707 C5.2682498 14.43942233 5.60092937 15.90882402 5.93383789 17.37817383 C6.41351049 19.49547305 6.89237737 21.61295315 7.37109375 23.73046875 C7.8031311 25.63928833 7.8031311 25.63928833 8.24389648 27.58666992 C8.86349156 30.38375054 9.4381501 33.1907505 10 36 C4.06 36 -1.88 36 -8 36 C-6.46411026 28.08196648 -4.70515955 20.22979958 -2.875 12.375 C-2.59785156 11.18003906 -2.32070313 9.98507812 -2.03515625 8.75390625 C-1.35811444 5.83562259 -0.67970152 2.91766511 0 0 Z " fill="#0A7DC7" transform="translate(996,425)"/>
<path d="M0 0 C0.66 0 1.32 0 2 0 C2 48.18 2 96.36 2 146 C1.34 146 0.68 146 0 146 C0 98.81 0 51.62 0 3 C-0.66 2.67 -1.32 2.34 -2 2 C-1.34 1.34 -0.68 0.68 0 0 Z " fill="#184E79" transform="translate(1192,607)"/>
<path d="M0 0 C2.08189777 3.81681258 2.27006982 7.20505926 2.25 11.5 C2.25515625 12.6034375 2.2603125 13.706875 2.265625 14.84375 C1.90525009 19.12585185 1.05443675 21.94556325 -2 25 C-4.89619822 25.37130746 -6.37888771 25.46583421 -8.75 23.6875 C-11.41368413 20.09152642 -11.19523391 16.4423936 -11.25 12.125 C-11.28867188 10.30355469 -11.28867188 10.30355469 -11.328125 8.4453125 C-10.97719855 4.76058479 -10.22102379 2.92183227 -8 0 C-5.01122021 -1.4943899 -3.14997454 -0.91874257 0 0 Z " fill="#CAE2F2" transform="translate(1072,761)"/>
<path d="M0 0 C0.99 0 1.98 0 3 0 C4.42597611 2.85195222 4.1320252 5.32461175 4.125 8.5 C4.12757812 9.6653125 4.13015625 10.830625 4.1328125 12.03125 C4 15 4 15 3 17 C2.01 17 1.02 17 0 17 C-1.35827701 14.28344597 -1.1323445 12.09210594 -1.125 9.0625 C-1.12757812 8.00160156 -1.13015625 6.94070313 -1.1328125 5.84765625 C-1 3 -1 3 0 0 Z " fill="#439BD4" transform="translate(1066,765)"/>
<path d="M0 0 C2.31 0 4.62 0 7 0 C8.18681726 3.56045177 8.09689832 6.43808337 8.0625 10.1875 C8.05347656 11.45980469 8.04445313 12.73210938 8.03515625 14.04296875 C8.02355469 15.01878906 8.01195312 15.99460937 8 17 C7.67 17 7.34 17 7 17 C6.93941406 16.24074219 6.87882812 15.48148438 6.81640625 14.69921875 C6.73261719 13.70535156 6.64882812 12.71148438 6.5625 11.6875 C6.48128906 10.70136719 6.40007812 9.71523438 6.31640625 8.69921875 C6.08187441 5.90624401 6.08187441 5.90624401 5 3 C4.01 3 3.02 3 2 3 C2 3.99 2 4.98 2 6 C1.34 6 0.68 6 0 6 C0 9.96 0 13.92 0 18 C-0.33 18 -0.66 18 -1 18 C-1.02707139 15.75006641 -1.04642829 13.50003905 -1.0625 11.25 C-1.07410156 9.99703125 -1.08570313 8.7440625 -1.09765625 7.453125 C-1.02021027 4.71463499 -0.82780815 2.58119707 0 0 Z " fill="#FAFCFD" transform="translate(1064,762)"/>
<path d="M0 0 C5.94 1.485 5.94 1.485 12 3 C12 3.66 12 4.32 12 5 C7.73383684 6.13764351 4.43513689 7 0 7 C0 4.69 0 2.38 0 0 Z " fill="#097DC7" transform="translate(1614,754)"/>
<path d="M0 0 C0.99 0 1.98 0 3 0 C3.66 3.63 4.32 7.26 5 11 C2.69 11 0.38 11 -2 11 C-1.34 7.37 -0.68 3.74 0 0 Z " fill="#2D90CF" transform="translate(1087,320)"/>
<path d="M0 0 C2.64 0 5.28 0 8 0 C8 0.66 8 1.32 8 2 C8.99902344 2.12117188 9.99804688 2.24234375 11.02734375 2.3671875 C12.96287109 2.61855469 12.96287109 2.61855469 14.9375 2.875 C16.86916016 3.11863281 16.86916016 3.11863281 18.83984375 3.3671875 C19.88269531 3.57601563 20.92554688 3.78484375 22 4 C22.33 4.66 22.66 5.32 23 6 C15.09253612 5.2469082 7.30574639 4.29936934 0 1 C0 0.67 0 0.34 0 0 Z " fill="#663479" transform="translate(1389,456)"/>
<path d="M0 0 C-0.66 3.3 -1.32 6.6 -2 10 C-2.33 10 -2.66 10 -3 10 C-3.33 8.02 -3.66 6.04 -4 4 C-6.31 4.33 -8.62 4.66 -11 5 C-3.5 0 -3.5 0 0 0 Z " fill="#722C6F" transform="translate(1582,337)"/>
<path d="M0 0 C0.99 0 1.98 0 3 0 C3.33 1.65 3.66 3.3 4 5 C2.35 4.67 0.7 4.34 -1 4 C-1.66 7.3 -2.32 10.6 -3 14 C-4.02195554 9.91217784 -3.97127001 9.04870806 -2.625 5.3125 C-2.34914063 4.52488281 -2.07328125 3.73726563 -1.7890625 2.92578125 C-1 1 -1 1 0 0 Z " fill="#8CC2E5" transform="translate(1087,293)"/>
<path d="M0 0 C2.64 0.66 5.28 1.32 8 2 C8 2.66 8 3.32 8 4 C6.68 4.33 5.36 4.66 4 5 C4 4.01 4 3.02 4 2 C2.68 2 1.36 2 0 2 C0 1.34 0 0.68 0 0 Z " fill="#5AA7D9" transform="translate(1618,755)"/>
</svg>
