<?xml version="1.0" encoding="UTF-8"?>
<svg version="1.1" xmlns="http://www.w3.org/2000/svg" width="1920" height="1080">
<path d="M0 0 C633.6 0 1267.2 0 1920 0 C1920 356.4 1920 712.8 1920 1080 C1286.4 1080 652.8 1080 0 1080 C0 723.6 0 367.2 0 0 Z " fill="#09446E" transform="translate(0,0)"/>
<path d="M0 0 C7.10848808 -0.07754395 14.21686319 -0.12920812 21.32568359 -0.16479492 C23.73230054 -0.17966638 26.1388915 -0.19996961 28.54541016 -0.22631836 C44.96338925 -0.40126966 60.76738168 0.55025056 77 3 C79.05259195 3.29428938 81.10532749 3.58757893 83.15820312 3.87988281 C99.15986771 6.19374835 114.50999801 10.43444941 130 15 C131.56374199 15.44942788 133.12753469 15.89867943 134.69140625 16.34765625 C166.88813804 25.78930559 198.60805621 41.68675449 226 61 C226.71929688 61.50289551 227.43859375 62.00579102 228.1796875 62.52392578 C238.21362326 69.55923868 247.79861794 76.90800443 257 85 C257.73347656 85.63421875 258.46695312 86.2684375 259.22265625 86.921875 C261.16040071 88.60151036 263.08166501 90.29825122 265 92 C265.7425 92.6496875 266.485 93.299375 267.25 93.96875 C277.10404162 102.68578682 286.53330673 111.92148547 295 122 C295.80566406 122.928125 296.61132812 123.85625 297.44140625 124.8125 C303.24862305 131.53205421 308.70001258 138.44721258 313.94018555 145.61914062 C316.43075785 149.00846066 318.90434372 152.12389381 322 155 C322.22816406 154.3090625 322.45632813 153.618125 322.69140625 152.90625 C324.29284312 149.34962602 326.50335309 146.51001194 328.9375 143.5 C329.42331543 142.89124023 329.90913086 142.28248047 330.40966797 141.65527344 C338.2932577 131.82935 346.49815978 122.29627447 355 113 C355.98192157 111.91289655 356.96368327 110.82564868 357.9453125 109.73828125 C362.73817282 104.45525919 367.49028541 99.29420565 372.9765625 94.71484375 C375.37610855 92.68125163 377.64393551 90.52736908 379.9375 88.375 C431.37979209 41.54477547 500.26320418 10.78046763 569 2 C569.66181274 1.91286743 570.32362549 1.82573486 571.00549316 1.73596191 C586.25412969 -0.21576142 601.39780988 -0.23544741 616.75 -0.125 C619.2122359 -0.11493946 621.67447583 -0.1058191 624.13671875 -0.09765625 C630.09123569 -0.07591099 636.04559818 -0.04268215 642 0 C638.85618508 4.30444094 635.77117175 8.4903421 631.94140625 12.21875 C630.86729492 13.27642578 630.86729492 13.27642578 629.77148438 14.35546875 C629.04251953 15.06316406 628.31355469 15.77085937 627.5625 16.5 C622.72549781 21.22091413 618.07021479 25.98470989 613.66381836 31.11132812 C611.07798745 34.04661616 608.29667201 36.76749314 605.5 39.5 C601.31936924 43.62820159 597.28296715 47.79514409 593.5 52.296875 C591.95022914 54.05651066 590.28996918 55.60398659 588.5625 57.1875 C585.87025263 59.67231015 585.87025263 59.67231015 585.4921875 62.3125 C586.23507393 66.24408359 588.72545285 68.21347985 591.5625 70.8125 C592.6828467 71.88217286 593.80134756 72.95378245 594.91796875 74.02734375 C595.45728027 74.54151855 595.9965918 75.05569336 596.55224609 75.58544922 C598.27026914 77.26407072 599.83495165 79.03251321 601.375 80.875 C604.70736249 84.79832332 608.34415311 88.38208667 612 92 C616.18244625 96.1391385 620.22160727 100.29183294 624.01171875 104.796875 C627.56127976 108.72998386 631.39531862 112.39619652 635.203125 116.078125 C636.08677734 116.944375 636.08677734 116.944375 636.98828125 117.828125 C637.51977783 118.3427832 638.05127441 118.85744141 638.59887695 119.38769531 C640.12552607 121.14444575 641.04712013 122.88503656 642 125 C640.85861572 124.98428955 639.71723145 124.9685791 638.54125977 124.95239258 C601.44195693 124.48801621 565.64596949 126.03498419 531 141 C530.23848633 141.32194336 529.47697266 141.64388672 528.69238281 141.97558594 C505.35288975 151.89371507 484.23623624 164.3938374 465 181 C464.22011719 181.66902344 463.44023438 182.33804688 462.63671875 183.02734375 C450.15407502 193.99817793 438.95415774 205.70606757 429 219 C427.60780392 220.79449442 426.21249495 222.5865833 424.8125 224.375 C423.87462181 225.58303982 422.93694924 226.79123955 422 228 C423.67724368 229.67724368 426.00545775 229.33091634 428.3125 229.5625 C452.09458902 233.12065633 473.16161875 247.86342185 487.48193359 266.81811523 C503.81459037 289.57167629 507.95187388 317.04296659 504.5390625 344.5 C500.27984854 368.15116455 486.26553767 391.54351764 466.5703125 405.51953125 C443.78688281 420.8985813 416.5781978 426.03521013 389.4375 421.1640625 C374.63516961 417.84787921 361.3386221 411.02215287 350 401 C349.12214844 400.33484375 349.12214844 400.33484375 348.2265625 399.65625 C331.14844488 386.50690122 321.35374526 364.24518018 317.6875 343.5625 C316.18145863 331.30105 315.37111573 317.11389872 318 305 C316.03243548 305.03122943 316.03243548 305.03122943 314 306 C313.30052949 307.9887648 312.63947908 309.99114188 312 312 C311.06051816 313.93068135 310.07436754 315.83912305 309.05078125 317.7265625 C308.45773193 318.82629395 307.86468262 319.92602539 307.25366211 321.05908203 C306.60665301 322.24774581 305.9595977 323.43638444 305.3125 324.625 C304.63825168 325.871962 303.96451412 327.11920028 303.29125977 328.36669922 C301.89241479 330.95776765 300.49138298 333.5476356 299.08886719 336.13671875 C295.84978938 342.12105082 292.64615681 348.12431838 289.4375 354.125 C282.8909427 366.34876315 276.32716222 378.56318877 269.74365234 390.76708984 C268.54278727 392.99361676 267.3426334 395.22052736 266.14306641 397.44775391 C264.32634564 400.82031111 262.50723708 404.19156956 260.6875 407.5625 C260.12981934 408.59858398 259.57213867 409.63466797 258.99755859 410.70214844 C258.48660645 411.64735352 257.9756543 412.59255859 257.44921875 413.56640625 C256.99893311 414.40115479 256.54864746 415.23590332 256.0847168 416.09594727 C255 418 255 418 254 419 C251.92737924 419.08767112 249.85179706 419.10695873 247.77734375 419.09765625 C246.51728516 419.09443359 245.25722656 419.09121094 243.95898438 419.08789062 C242.61848891 419.07953403 241.27799412 419.07106907 239.9375 419.0625 C238.59310058 419.0574866 237.2486994 419.05292342 235.90429688 419.04882812 C232.60282059 419.03699488 229.30143197 419.02050971 226 419 C225.45811035 417.94594971 225.45811035 417.94594971 224.90527344 416.87060547 C218.34293501 404.12109705 211.73775201 391.4082308 204.82324219 378.84521484 C200.12187815 370.27927429 195.56008977 361.6416363 191 353 C180.00757029 332.12291601 180.00757029 332.12291601 168.56884766 311.48876953 C167.87927979 310.27423096 167.87927979 310.27423096 167.17578125 309.03515625 C166.75852783 308.30820557 166.34127441 307.58125488 165.91137695 306.83227539 C165 305 165 305 165 303 C180.84 303 196.68 303 213 303 C221.4375 322.25 221.4375 322.25 224.03686523 328.18457031 C229.2857451 340.15594034 234.61422947 352.0896105 240 364 C242.71152003 358.6878135 245.37289321 353.35444457 248 348 C248.63276855 346.72503662 248.63276855 346.72503662 249.27832031 345.42431641 C250.5635568 342.81449947 251.81612869 340.19106672 253.0625 337.5625 C253.46847412 336.74749023 253.87444824 335.93248047 254.29272461 335.09277344 C257.0100324 329.25326297 257.36698098 325.25439746 256 319 C255.81397217 318.08951904 255.62794434 317.17903809 255.4362793 316.2409668 C248.28700399 282.98845965 235.7637058 251.80999824 216 224 C215.54254395 223.3517627 215.08508789 222.70352539 214.61376953 222.03564453 C207.17994278 211.58031045 198.93723224 202.18845653 190 193 C189.24847656 192.20851563 188.49695313 191.41703125 187.72265625 190.6015625 C182.54711188 185.24609123 176.87728535 180.56179188 171 176 C170.33597168 175.48131348 169.67194336 174.96262695 168.98779297 174.42822266 C137.52391313 150.02838216 101.11970425 134.13675971 61.875 127.3125 C61.19518066 127.19285889 60.51536133 127.07321777 59.81494141 126.94995117 C46.16089917 124.73217447 32.41064709 124.87034565 18.625 124.9375 C16.80989708 124.94252933 14.9947928 124.94708968 13.1796875 124.95117188 C8.78642392 124.96205402 4.39322754 124.97923806 0 125 C2.42329218 121.20180229 4.85798899 117.90301718 8.08203125 114.7578125 C9.23348633 113.62279297 9.23348633 113.62279297 10.40820312 112.46484375 C11.20162109 111.69269531 11.99503906 110.92054688 12.8125 110.125 C17.85206276 105.19761217 22.73568131 100.24719154 27.3269043 94.89794922 C30.07162763 91.78435237 33.03533498 88.90221643 36 86 C40.35743817 81.69301638 44.59675357 77.36799638 48.53515625 72.66796875 C50.07123248 70.91888995 51.72264576 69.38477976 53.4375 67.8125 C56.12974737 65.32768985 56.12974737 65.32768985 56.5078125 62.6875 C55.76492917 58.75593282 53.27456317 56.78649966 50.4375 54.1875 C49.31845182 53.11913306 48.20125356 52.04882498 47.0859375 50.9765625 C46.54678711 50.46254883 46.00763672 49.94853516 45.45214844 49.41894531 C43.71202593 47.7186104 42.12508676 45.92649943 40.5625 44.0625 C37.39990018 40.34042307 33.97029304 36.93133928 30.5 33.5 C26.47027991 29.51546248 22.60793237 25.49553707 18.94921875 21.1640625 C15.67364124 17.5274494 12.14160953 14.13667692 8.6171875 10.7421875 C8.07964844 10.21625 7.54210937 9.6903125 6.98828125 9.1484375 C6.50915283 8.68614746 6.03002441 8.22385742 5.53637695 7.74755859 C3.41839298 5.33844858 1.73979522 2.68969015 0 0 Z " fill="#057CA3" transform="translate(639,180)"/>
<path d="M0 0 C0.66 0.33 1.32 0.66 2 1 C1.84015625 1.74636719 1.6803125 2.49273437 1.515625 3.26171875 C-2.06956216 29.25432563 2.39616599 58.29148923 18.05078125 79.8203125 C19.98542775 82.26139188 21.96917527 84.6386685 24 87 C25.16208984 88.45986328 25.16208984 88.45986328 26.34765625 89.94921875 C37.21853272 102.96826956 53.72672643 111.59065159 70.20703125 114.625 C73 116 73 116 74.72265625 119.609375 C75.16974379 121.06654919 75.59530274 122.53048851 76 124 C76.42559338 125.33984903 76.85525306 126.67841353 77.2890625 128.015625 C77.50336914 128.69882812 77.71767578 129.38203125 77.93847656 130.0859375 C89.13898493 165.39223414 109.50392871 196.40393098 135 223 C135.89460938 223.94746094 136.78921875 224.89492188 137.7109375 225.87109375 C148.22694259 236.74174417 160.33464541 245.77374408 173 254 C173.69770508 254.45487793 174.39541016 254.90975586 175.11425781 255.37841797 C200.6178645 271.8080983 232.19067676 286.29794857 262.875 288.5 C270.51800624 289.56735249 274.24605655 294.70275141 278.74316406 300.42480469 C280.60079562 302.75297851 282.61204701 304.9309509 284.625 307.125 C286.80846866 309.55623816 288.99017782 311.98904721 291.171875 314.421875 C295.25694794 318.97050231 299.36428941 323.4973714 303.5 328 C311.08441676 336.25823619 318.56219336 344.60966771 326 353 C322.8848396 359.85335288 317.04905902 365.01417589 311.74609375 370.22265625 C309.93522357 372.06593574 308.24678646 373.97822799 306.5625 375.9375 C304.14382221 378.74576347 301.64100317 381.39970593 299 384 C296.37959391 386.58009215 293.89676588 389.21103607 291.5 392 C288.4871937 395.50581097 285.27696816 398.7428298 281.984375 401.984375 C279.41013297 404.59915628 277.01831818 407.34741262 274.640625 410.140625 C273.82851562 411.06101562 273.82851562 411.06101562 273 412 C272.41863281 412.73863281 271.83726562 413.47726562 271.23828125 414.23828125 C266.47451699 417.98777109 258.76095426 415.67959986 253 415 C252.33178223 414.9292627 251.66356445 414.85852539 250.97509766 414.78564453 C187.74159799 407.80804774 126.36114588 378.06137922 77 339 C76.07960938 338.27425781 75.15921875 337.54851562 74.2109375 336.80078125 C56.02919656 322.20823125 38.18020166 305.52272089 24 287 C23.03314664 285.79560224 22.06282189 284.59398651 21.08984375 283.39453125 C15.16433939 276.0827173 9.43406865 268.68760888 4 261 C-0.33022666 266.3583531 -4.58724159 271.76027814 -8.75 277.25 C-22.69358539 295.50366653 -38.46458683 313.14826745 -56 328 C-56.97839844 328.84433594 -57.95679688 329.68867187 -58.96484375 330.55859375 C-65.56448997 336.23339159 -72.27992013 341.67650539 -79.33203125 346.78710938 C-80.48985986 347.6290433 -81.64321209 348.47715407 -82.79296875 349.33007812 C-95.2736921 358.58125347 -108.46754563 366.39246313 -122 374 C-122.76280273 374.43441406 -123.52560547 374.86882812 -124.31152344 375.31640625 C-148.83573839 389.22531992 -175.77687705 398.91830923 -203 406 C-204.2065625 406.32097656 -204.2065625 406.32097656 -205.4375 406.6484375 C-216.42923258 409.56811647 -227.38599146 412.08265221 -238.65673828 413.64306641 C-241.18260171 414.02781451 -243.67678531 414.51853801 -246.18359375 415.01171875 C-258.50249628 417.18295812 -258.50249628 417.18295812 -262.83496094 415.13085938 C-266.63412898 412.37902955 -269.26477816 408.78723024 -272 405 C-273.23539376 403.57057819 -274.48367918 402.15209701 -275.75 400.75 C-276.56210937 399.79867187 -276.56210937 399.79867187 -277.390625 398.828125 C-279.56493204 396.35828108 -281.90736519 394.08207561 -284.25390625 391.77734375 C-286.06477643 389.93406426 -287.75321354 388.02177201 -289.4375 386.0625 C-291.85617779 383.25423653 -294.35899683 380.60029407 -297 378 C-300.26680069 374.78355462 -303.2844731 371.42609426 -306.26953125 367.94921875 C-308.5649527 365.36363116 -311.02242212 362.96449783 -313.48828125 360.54296875 C-315.18081316 358.8154491 -316.64008685 356.99987228 -318 355 C-316.34942197 350.90814788 -313.42825844 348.02124271 -310.4375 344.875 C-309.34323607 343.70751273 -308.24949015 342.53953974 -307.15625 341.37109375 C-306.61742187 340.7972998 -306.07859375 340.22350586 -305.5234375 339.63232422 C-303.46517852 337.4269525 -301.44883186 335.18567348 -299.4375 332.9375 C-296.11064656 329.22422438 -292.75070101 325.54374253 -289.375 321.875 C-286.39775181 318.63788971 -283.44046979 315.3886208 -280.5625 312.0625 C-276.89961955 307.83062841 -273.08449391 303.74189862 -269.26196289 299.65454102 C-268.52320923 298.86067993 -268.52320923 298.86067993 -267.76953125 298.05078125 C-267.28734131 297.53741211 -266.80515137 297.02404297 -266.30834961 296.49511719 C-264.81704095 294.86044252 -264.81704095 294.86044252 -263.1796875 292.22265625 C-259.96476332 288.94435542 -256.74106219 288.78196546 -252.3125 288.125 C-197.98588957 278.55240453 -146.28471761 249.65116107 -112 206 C-111.20851563 205.01386719 -110.41703125 204.02773438 -109.6015625 203.01171875 C-90.24107915 178.49047564 -75.55512744 150.42092624 -67.203125 120.28515625 C-65.92478377 116.79462062 -64.30963346 114.88139333 -62 112 C-60.90594083 110.15007588 -59.85981738 108.27121705 -58.85546875 106.37109375 C-58.26894531 105.26830078 -57.68242188 104.16550781 -57.078125 103.02929688 C-56.44787503 101.83205316 -55.81766789 100.63478691 -55.1875 99.4375 C-54.52268737 98.18395191 -53.85731232 96.93070195 -53.19140625 95.67773438 C-51.80950753 93.07650598 -50.43002869 90.47401621 -49.05224609 87.87060547 C-45.8907603 81.90164134 -42.69353849 75.95186256 -39.5 70 C-38.25112552 67.66936544 -37.00242819 65.33863594 -35.75390625 63.0078125 C-35.13531738 61.85313477 -34.51672852 60.69845703 -33.87939453 59.50878906 C-31.67473754 55.392742 -29.47082239 51.27629819 -27.26742554 47.15957642 C-25.70690592 44.24435484 -24.14491966 41.32993253 -22.58105469 38.41650391 C-19.71923243 33.08475536 -16.86363181 27.75013848 -14.03797913 22.3991394 C-13.0669321 20.56180922 -12.09274502 18.7261818 -11.11743164 16.89111328 C-9.89837057 14.59579133 -8.68504763 12.29740999 -7.47827148 9.99560547 C-6.93372314 8.97354004 -6.3891748 7.95147461 -5.828125 6.8984375 C-5.3527832 5.99786621 -4.87744141 5.09729492 -4.38769531 4.16943359 C-3 2 -3 2 0 0 Z " fill="#055C91" transform="translate(956,484)"/>
<path d="M0 0 C3.96575907 -0.31222136 6.43791642 -0.32312182 9.765625 1.9765625 C11.89171923 4.02614955 13.7315888 6.16159497 15.578125 8.46484375 C16.76142257 9.82268412 17.94881038 11.17697286 19.140625 12.52734375 C19.99333984 13.51927734 19.99333984 13.51927734 20.86328125 14.53125 C22.53816799 16.41978972 24.27760087 18.19640023 26.078125 19.96484375 C28.51202232 22.35537542 30.79168059 24.81530637 33.015625 27.40234375 C35.43430279 30.21060722 37.93712183 32.86454968 40.578125 35.46484375 C43.82661336 38.66335537 46.82357143 42.00119792 49.7890625 45.4609375 C51.67951741 47.5784121 53.66783608 49.54922587 55.703125 51.52734375 C59.15967332 54.92336885 61.89263436 58.43660779 64.578125 62.46484375 C64.15402344 62.87734375 63.72992187 63.28984375 63.29296875 63.71484375 C59.5709372 67.37961328 56.06260626 71.15109694 52.65234375 75.10546875 C50.05183405 78.06348732 47.38081481 80.95177 44.703125 83.83984375 C40.38297361 88.50141137 36.10443681 93.19591133 31.86328125 97.9296875 C28.77850976 101.35193827 25.6562102 104.73913631 22.53637695 108.12939453 C19.36535187 111.5836971 16.2572081 115.08382242 13.2109375 118.6484375 C12.40269531 119.54755859 12.40269531 119.54755859 11.578125 120.46484375 C10.82660156 121.33496094 10.07507813 122.20507812 9.30078125 123.1015625 C6.031602 125.93922885 4.15038839 126.2780155 -0.109375 126.83984375 C-41.1393119 133.33592603 -81.13753997 152.12305176 -112.421875 179.46484375 C-113.19917969 180.13257813 -113.97648438 180.8003125 -114.77734375 181.48828125 C-127.22415793 192.41223888 -138.65962038 204.07739014 -148.421875 217.46484375 C-149.18886719 218.51027344 -149.95585937 219.55570313 -150.74609375 220.6328125 C-180.31066814 262.16768577 -194.9280969 308.67465623 -194.546875 359.40234375 C-194.53682232 361.7428347 -194.52770053 364.08332984 -194.51953125 366.42382812 C-194.49770566 372.10425958 -194.46441043 377.78453156 -194.421875 383.46484375 C-195.52870396 382.51874543 -196.63515703 381.57220736 -197.74145508 380.62548828 C-198.35765213 380.09843292 -198.97384918 379.57137756 -199.60871887 379.02835083 C-207.11805154 372.55295988 -214.24035476 365.71473398 -221.20410156 358.66333008 C-223.83961156 356.00662179 -226.50691398 353.44924462 -229.359375 351.02734375 C-233.08157914 347.86463585 -236.48950683 344.43427115 -239.921875 340.96484375 C-245.33869285 335.50406192 -245.33869285 335.50406192 -250.921875 330.21484375 C-251.4890625 329.6940625 -252.05625 329.17328125 -252.640625 328.63671875 C-255.13905952 326.99301183 -256.38129603 326.37709255 -259.421875 326.46484375 C-262.01992158 328.31658321 -264.08504763 330.6198848 -266.234375 332.96484375 C-267.4877533 334.27779111 -268.74294393 335.58901092 -270 336.8984375 C-270.89428711 337.83985596 -270.89428711 337.83985596 -271.80664062 338.80029297 C-273.61100068 340.65974382 -275.49633959 342.36639963 -277.484375 344.02734375 C-281.79012172 347.66639421 -285.68231132 351.69985937 -289.64257812 355.70507812 C-293.07795699 359.16439691 -296.59468932 362.43116244 -300.3203125 365.578125 C-303.74580329 368.65342621 -306.93536262 371.971722 -310.12329102 375.29125977 C-313.00297502 378.23997565 -315.78277601 380.52221686 -319.421875 382.46484375 C-320.25161718 379.55358624 -320.56100288 376.9363166 -320.59887695 373.9128418 C-320.61150574 373.01097137 -320.62413452 372.10910095 -320.637146 371.17990112 C-320.64473938 370.20529938 -320.65233276 369.23069763 -320.66015625 368.2265625 C-320.67008606 367.20668243 -320.68001587 366.18680237 -320.69024658 365.13601685 C-321.15339676 305.01468611 -309.60648275 247.82426453 -281.35595703 194.24316406 C-280.41264812 192.44727748 -279.49224417 190.6409531 -278.57421875 188.83203125 C-270.5624464 173.22371186 -260.89190213 158.52532201 -250.421875 144.46484375 C-250.02822754 143.9322998 -249.63458008 143.39975586 -249.22900391 142.85107422 C-246.36770246 138.99504629 -243.42532736 135.21106138 -240.421875 131.46484375 C-240.0079248 130.9450293 -239.59397461 130.42521484 -239.16748047 129.88964844 C-231.20443196 120.01097522 -222.23811843 111.0711661 -213.296875 102.08984375 C-212.39597137 101.18103958 -212.39597137 101.18103958 -211.47686768 100.25387573 C-204.11486762 92.8420697 -196.64486521 85.92391721 -188.421875 79.46484375 C-187.35645172 78.58425413 -186.29340679 77.70076602 -185.234375 76.8125 C-169.28060436 63.85006136 -151.54898075 52.05199513 -133.3515625 42.48779297 C-131.2457517 41.37147879 -129.16241835 40.21846006 -127.078125 39.0625 C-115.40421089 32.66303424 -103.36349422 27.43892426 -91.0078125 22.5 C-88.8792307 21.64792421 -86.75839023 20.78078897 -84.640625 19.90234375 C-76.47866209 16.60458096 -68.10314558 14.2949044 -59.60595703 12.046875 C-57.60197269 11.51283759 -55.60340637 10.95857613 -53.60546875 10.40234375 C-35.95095249 5.52687863 -18.12721397 2.46248683 0 0 Z " fill="#4D93B0" transform="translate(621.421875,181.53515625)"/>
<path d="M0 0 C1.52827736 0.30001218 3.05125669 0.62778573 4.5690918 0.97680664 C7.72677001 1.66415347 10.89038642 2.15127638 14.08569336 2.6340332 C51.55622997 8.41928808 87.87452761 19.92574825 121.47680664 37.62670898 C123.21857221 38.53919823 124.97428169 39.42491424 126.73022461 40.30981445 C144.71315795 49.54966418 161.79411365 60.53336107 177.55395508 73.19018555 C179.08379106 74.41798259 180.62870846 75.62693324 182.17553711 76.83325195 C187.18442817 80.7583026 191.9542155 84.89658147 196.64819336 89.19262695 C198.76382705 91.10932792 200.9050588 92.9804946 203.06616211 94.8449707 C207.32595308 98.56455633 211.34183301 102.49197567 215.32788086 106.5012207 C215.99625977 107.16573242 216.66463867 107.83024414 217.35327148 108.51489258 C221.86258121 113.03296675 226.10832554 117.72155521 230.26538086 122.5637207 C231.56862305 124.04485352 231.56862305 124.04485352 232.89819336 125.5559082 C240.61348884 134.48049764 247.50208891 143.904061 254.26538086 153.5637207 C254.70205078 154.17908691 255.1387207 154.79445313 255.58862305 155.4284668 C274.35217447 181.95188505 288.66288264 211.93611067 299.26538086 242.5637207 C299.54575195 243.36374512 299.82612305 244.16376953 300.11499023 244.98803711 C313.38398034 283.27972152 318.34509841 323.20346353 318.51538086 363.5637207 C318.52073853 364.28875793 318.52609619 365.01379517 318.53161621 365.76080322 C318.54323961 367.82031717 318.53993325 369.87920427 318.53100586 371.9387207 C318.52875 373.12208008 318.52649414 374.30543945 318.52416992 375.5246582 C318.27613355 378.43744761 317.78890899 380.10671009 316.26538086 382.5637207 C309.52249442 376.46963433 302.93873206 370.28681328 296.55053711 363.81762695 C294.57553158 361.86963005 292.56548051 360.04626884 290.45288086 358.2512207 C286.07920539 354.51629702 282.09482231 350.41975395 278.05444336 346.33325195 C274.53227135 342.78644937 270.93556091 339.41181982 267.10131836 336.20043945 C264.25873535 333.66630694 261.74656801 330.81828136 259.22241211 327.9699707 C257.34193371 326.29607443 257.34193371 326.29607443 254.8840332 326.77294922 C251.93885413 327.66232411 250.60859415 328.68513336 248.40991211 330.80981445 C247.70987061 331.47762939 247.0098291 332.14544434 246.28857422 332.83349609 C245.55904541 333.54884521 244.8295166 334.26419434 244.07788086 335.0012207 C243.32192627 335.72752686 242.56597168 336.45383301 241.78710938 337.20214844 C236.91652091 341.89746458 232.12640068 346.67017042 227.37475586 351.4855957 C225.45980689 353.37217506 223.49896875 355.13450953 221.45288086 356.8762207 C217.6940023 360.08613526 214.23819538 363.55181908 210.76538086 367.0637207 C199.60672701 378.3361566 199.60672701 378.3361566 193.26538086 382.5637207 C193.24350708 380.85164429 193.24350708 380.85164429 193.22119141 379.10498047 C192.37161326 317.42732055 181.19370203 260.75710415 141.26538086 211.5637207 C140.78246582 210.9665625 140.29955078 210.3694043 139.80200195 209.75415039 C129.22671979 196.79545739 117.58983231 184.71397578 104.26538086 174.5637207 C103.69706543 174.12962891 103.12875 173.69553711 102.54321289 173.24829102 C94.10017544 166.83239071 85.50300547 160.79579496 76.26538086 155.5637207 C75.5314209 155.14622559 74.79746094 154.72873047 74.04125977 154.29858398 C50.73722169 141.20096938 24.30412013 130.7603665 -2.29711914 127.1262207 C-6.90247531 126.44473447 -10.36793584 125.82964253 -13.54711914 122.1887207 C-14.26834961 121.14071289 -14.26834961 121.14071289 -15.00415039 120.0715332 C-17.28353806 116.76822195 -19.98150147 113.97436233 -22.73461914 111.0637207 C-25.9498673 107.60446913 -29.14581869 104.13703887 -32.23461914 100.5637207 C-35.79212356 96.45089852 -39.49174793 92.47439601 -43.18725586 88.48608398 C-46.99125759 84.37785718 -50.75133611 80.23291535 -54.48852539 76.0637207 C-58.54902561 71.54420741 -62.64387482 67.0558533 -66.73461914 62.5637207 C-62.57308751 56.49977461 -57.78243224 51.48642925 -52.55737305 46.35522461 C-48.97531226 42.83059165 -45.59409095 39.22043195 -42.34008789 35.38793945 C-39.99910199 32.7279871 -37.47024827 30.27398331 -34.92211914 27.8137207 C-30.3694669 23.13099268 -26.18996996 18.15535906 -22.14868164 13.02856445 C-10.2437863 -1.55764192 -10.2437863 -1.55764192 0 0 Z " fill="#4D93B0" transform="translate(1300.734619140625,181.436279296875)"/>
<path d="M0 0 C4.14688239 1.66076601 7.06720903 4.65978702 10.25 7.6875 C11.42114488 8.78593522 12.59301623 9.88359641 13.765625 10.98046875 C14.32701172 11.50688965 14.88839844 12.03331055 15.46679688 12.57568359 C17.27738849 14.2576886 19.12737966 15.88746582 21 17.5 C24.57351786 20.58897307 28.03711114 23.78842213 31.5 27 C35.58163915 30.78508753 39.69457733 34.51565159 43.90625 38.15625 C48.15526849 41.897923 52.31405269 45.75096071 56.4362793 49.63183594 C57.99490086 51.04865379 57.99490086 51.04865379 59.83911133 52.26660156 C64.93035257 55.9294797 66.04537954 59.3009169 67.08691406 65.39916992 C67.24385742 66.46369385 67.40080078 67.52821777 67.5625 68.625 C67.95766136 70.88538198 68.36010246 73.14450247 68.76953125 75.40234375 C68.9701416 76.52108887 69.17075195 77.63983398 69.37744141 78.79248047 C80.50395786 136.11803856 119.74679105 187.59881036 167.3359375 219.984375 C195.5253381 238.77517244 226.69161879 250.56200635 259.98461914 256.46337891 C261.92621626 256.80890805 263.86366494 257.17911597 265.79467773 257.57958984 C277.19875619 259.72287937 288.75683972 259.21698017 300.3125 259.125 C302.51757406 259.11494967 304.72265255 259.10582746 306.92773438 259.09765625 C312.28525436 259.07580655 317.64260602 259.04249185 323 259 C322.06314357 260.10476534 321.1245718 261.20807616 320.18530273 262.31079102 C319.66282455 262.9253566 319.14034637 263.53992218 318.60203552 264.17311096 C316.21609586 266.89392892 313.65181769 269.41222011 311.0625 271.9375 C307.79692811 275.15927879 304.58857058 278.36848519 301.625 281.875 C297.72538607 286.46617108 293.40058517 290.62438841 289.12255859 294.85791016 C285.48860744 298.4685356 282.0201337 302.13945597 278.7265625 306.06640625 C275.70547566 309.44975011 272.35056174 312.50906689 269.0390625 315.60546875 C266.81324962 318.21930648 266.05510301 319.57810314 266 323 C267.00301777 324.95260198 267.00301777 324.95260198 268.75 326.625 C269.39453125 327.30820312 270.0390625 327.99140625 270.703125 328.6953125 C275.3188475 333.33035407 275.3188475 333.33035407 279.95898438 337.94091797 C282.50262519 340.46113508 284.94167638 343.01332767 287.25 345.75 C291.38652541 350.60941335 295.98648567 355.01082374 300.51708984 359.49755859 C304.30143821 363.25927442 307.93750277 367.06821478 311.37109375 371.15625 C314.16312188 374.31653124 317.23408291 377.20094089 320.27734375 380.1171875 C322 382 322 382 322 384 C314.73078412 384.07742734 307.46167813 384.12916225 300.19213867 384.16479492 C297.73018421 384.17968287 295.26825529 384.19999983 292.80639648 384.22631836 C276.59361066 384.39502925 261.00758545 383.6057446 245 381 C243.63686489 380.78791345 242.2736708 380.57620534 240.91040039 380.36499023 C207.45789149 374.98090969 175.73552525 365.31894196 145 351 C144.11586426 350.58814453 143.23172852 350.17628906 142.32080078 349.75195312 C98.57000035 329.12136827 55.96784362 297.46415297 25 260 C24.55221191 259.46600586 24.10442383 258.93201172 23.64306641 258.38183594 C15.19920566 248.29663743 7.36908787 237.89430018 0 227 C-0.47179687 226.30261719 -0.94359375 225.60523438 -1.4296875 224.88671875 C-24.25114569 190.90670227 -40.50300342 153.51850941 -51 114 C-51.23557617 113.11683105 -51.47115234 112.23366211 -51.71386719 111.32373047 C-54.44100661 100.93064491 -56.55800288 90.47498864 -58.3125 79.875 C-58.48418701 78.85607666 -58.65587402 77.83715332 -58.83276367 76.78735352 C-59.29183315 73.86171356 -59.67368693 70.9432941 -60 68 C-60.10940918 67.03255859 -60.21881836 66.06511719 -60.33154297 65.06835938 C-60.64335802 60.12326003 -60.54845219 56.9382515 -57.21875 53.109375 C-56.00689079 51.959637 -54.76577305 50.84010036 -53.5 49.75 C-52.85796631 49.15501709 -52.21593262 48.56003418 -51.55444336 47.94702148 C-49.72828007 46.26660074 -47.87256723 44.62834241 -46 43 C-45.18660156 42.27425781 -44.37320312 41.54851563 -43.53515625 40.80078125 C-42.27462757 39.69001835 -41.00459981 38.58988392 -39.72265625 37.50390625 C-37.28159971 35.37282514 -35.04685876 33.0567791 -32.77734375 30.74609375 C-30.93406426 28.93522357 -29.02177201 27.24678646 -27.0625 25.5625 C-24.25423653 23.14382221 -21.60029407 20.64100317 -19 18 C-15.78818637 14.73790358 -12.43519995 11.72463223 -8.96484375 8.7421875 C-5.83636791 5.96823079 -2.91419887 2.99616071 0 0 Z " fill="#062467" transform="translate(363,516)"/>
<path d="M0 0 C3.93214301 1.58939426 6.33020346 4.16342502 9.25 7.1875 C13.05927994 11.08812654 16.95832887 14.78521343 21.10546875 18.32421875 C23.86660325 20.76654184 26.41468811 23.40554261 29 26.03125 C30.93891002 27.93986455 32.93699551 29.72710552 35 31.5 C38.51001511 34.51641923 41.75051276 37.73095132 44.99609375 41.02734375 C46.95678234 42.9574563 48.97819714 44.76734898 51.0625 46.5625 C51.71347656 47.13613281 52.36445312 47.70976563 53.03515625 48.30078125 C54.34789252 49.43605019 55.69003795 50.53815104 57.05859375 51.60546875 C59.76279964 53.89615422 61.78274584 55.66836826 62.36987305 59.26708984 C62.23055952 67.10589693 61.15995954 74.65849563 59.8125 82.375 C59.69851868 83.03494965 59.58453735 83.69489929 59.46710205 84.37484741 C54.15044606 115.06359795 45.111589 144.71699533 32 173 C31.60989746 173.85948242 31.21979492 174.71896484 30.81787109 175.60449219 C22.95356508 192.91673411 13.8831743 209.39019161 3 225 C2.0988999 226.31506413 1.19786263 227.63017131 0.296875 228.9453125 C-9.05084448 242.48784054 -19.20319311 255.23276969 -30.44140625 267.25390625 C-32.90649808 269.89964603 -35.29917 272.59756077 -37.6875 275.3125 C-40.95611836 278.95983529 -44.37144344 282.20955154 -48.11328125 285.36328125 C-49.9494605 286.95615725 -51.62669033 288.62512156 -53.3125 290.375 C-56.94081565 294.05223676 -60.86620373 297.27862688 -64.89453125 300.5078125 C-67.01804941 302.21196922 -69.1155915 303.92881395 -71.19921875 305.6796875 C-92.60541142 323.48546896 -116.88305287 338.06533065 -142 350 C-142.71607422 350.34740234 -143.43214844 350.69480469 -144.16992188 351.05273438 C-158.26489295 357.86184009 -172.82747452 362.97977166 -187.66674805 367.8894043 C-189.80381385 368.60144651 -191.9360688 369.32819508 -194.06176758 370.07348633 C-201.50452324 372.6604813 -208.9741851 374.47335397 -216.6875 376.0625 C-217.91847412 376.31999023 -219.14944824 376.57748047 -220.41772461 376.84277344 C-245.40130474 382.02435843 -269.1505609 384.3080605 -294.6875 384.125 C-297.15429321 384.11494139 -299.62109042 384.10582068 -302.08789062 384.09765625 C-308.05868306 384.0758913 -314.02932204 384.04264597 -320 384 C-318.15234051 379.97245711 -315.47251602 377.28675469 -312.3125 374.25 C-308.9808715 370.98897554 -305.68804802 367.76145118 -302.6875 364.1875 C-298.57434095 359.34311267 -293.98763118 354.96362509 -289.47607422 350.49560547 C-285.75609477 346.79781829 -282.18893421 343.05831103 -278.82421875 339.03125 C-277.25493421 337.28386679 -275.64597061 335.66047165 -273.95703125 334.03125 C-273.40942139 333.50039795 -272.86181152 332.9695459 -272.29760742 332.42260742 C-271.206209 331.37199107 -270.10641521 330.33000691 -268.99731445 329.2980957 C-266.73023742 327.11254464 -265.12330216 325.31766779 -263.9765625 322.36328125 C-264.00650901 319.34367462 -264.67478039 318.53589382 -266.75 316.375 C-267.39453125 315.69179688 -268.0390625 315.00859375 -268.703125 314.3046875 C-273.31662697 309.67181971 -273.31662697 309.67181971 -277.95458984 305.06347656 C-280.54101798 302.50092315 -283.02034483 299.90138446 -285.375 297.125 C-288.5612939 293.38456803 -292.00879685 289.95195962 -295.5 286.5 C-299.54534825 282.5000732 -303.42650419 278.46383007 -307.1015625 274.1171875 C-310.27628667 270.5766515 -313.69035845 267.27040894 -317.09008789 263.94702148 C-318.41049465 262.64851272 -319.70758407 261.32637103 -321 260 C-321 259.67 -321 259.34 -321 259 C-319.89414551 259.01571045 -318.78829102 259.0314209 -317.64892578 259.04760742 C-285.70478386 259.50149312 -285.70478386 259.50149312 -254 256 C-253.07348633 255.83902832 -252.14697266 255.67805664 -251.19238281 255.51220703 C-209.86187439 247.95068519 -170.07926877 227.5132641 -139.2578125 199.0703125 C-137.23524746 197.21571134 -135.16516016 195.44964839 -133.0625 193.6875 C-115.76513827 178.54362507 -102.422037 158.75144649 -91 139 C-90.34 137.87207031 -89.68 136.74414062 -89 135.58203125 C-78.38109983 116.63500171 -68.88512341 94.23054514 -66.27734375 72.51953125 C-64.70340888 60.00596982 -61.64200039 53.73374925 -51.68359375 45.80078125 C-51.04019043 45.31174316 -50.39678711 44.82270508 -49.73388672 44.31884766 C-47.66757804 42.74714962 -45.73897304 41.05162049 -43.8125 39.3125 C-43.21824219 38.80074219 -42.62398437 38.28898438 -42.01171875 37.76171875 C-39.3437331 35.4252886 -36.73485446 33.02583749 -34.125 30.625 C-28.78368653 25.71199546 -23.40116294 20.84719751 -18 16 C-17.154375 15.236875 -16.30875 14.47375 -15.4375 13.6875 C-10.33088368 9.07909015 -5.19282943 4.51108925 0 0 Z " fill="#062467" transform="translate(1555,516)"/>
<path d="M0 0 C17.70929531 15.19294616 30.71916553 37.15575633 32.72680664 60.69238281 C34.59624455 91.33266055 29.77830459 117.82724558 8.89453125 141.44140625 C-5.66016394 157.70570056 -25.97596095 169.72486631 -48.10546875 171.44140625 C-76.12326924 172.87764112 -100.5283198 169.51334315 -122.10546875 150.44140625 C-122.69070313 149.99796875 -123.2759375 149.55453125 -123.87890625 149.09765625 C-140.95702387 135.94830747 -150.75172349 113.68658643 -154.41796875 93.00390625 C-157.75398715 64.6963326 -153.68574615 38.44363836 -136.10546875 15.44140625 C-120.52530211 -3.72535493 -99.72225718 -18.66146294 -74.6809082 -21.34692383 C-46.37957846 -23.67295027 -22.07532118 -18.34661507 0 0 Z " fill="#FDFDFE" transform="translate(1111.10546875,430.55859375)"/>
<path d="M0 0 C93.47909842 0 93.47909842 0 123.5625 29.125 C142.56616327 48.15911342 148.27978071 71.53205257 148.3894043 97.83056641 C148.26540434 108.17259822 146.41677818 117.28073318 143 127 C142.62746094 128.11375 142.25492188 129.2275 141.87109375 130.375 C133.6824748 152.28740193 114.65371182 169.57538056 93.9140625 179.47265625 C63.41845114 192.03193196 33.43633658 187 0 187 C0 125.29 0 63.58 0 0 Z " fill="#FEFEFE" transform="translate(519,412)"/>
<path d="M0 0 C9.17192082 7.92565983 16.03463078 16.57989217 20.30859375 27.9609375 C20.62828125 28.75371094 20.94796875 29.54648437 21.27734375 30.36328125 C26.57908145 45.90031811 24.10615551 64.59695168 17.8359375 79.44921875 C10.27391411 94.66265115 -1.25560535 104.8059534 -17.28125 110.234375 C-29.87479401 114.03080804 -46.92001003 114.09557752 -58.69140625 107.9609375 C-67.95826842 102.69407533 -67.95826842 102.69407533 -71.69140625 98.9609375 C-72.02140625 121.7309375 -72.35140625 144.5009375 -72.69140625 167.9609375 C-85.89140625 167.9609375 -99.09140625 167.9609375 -112.69140625 167.9609375 C-112.69140625 110.2109375 -112.69140625 52.4609375 -112.69140625 -7.0390625 C-99.49140625 -7.0390625 -86.29140625 -7.0390625 -72.69140625 -7.0390625 C-72.19640625 -1.5940625 -72.19640625 -1.5940625 -71.69140625 3.9609375 C-71.09714844 3.44144531 -70.50289062 2.92195313 -69.890625 2.38671875 C-49.78736187 -14.5275353 -21.4158626 -16.22508023 0 0 Z " fill="#FDFDFE" transform="translate(1275.69140625,490.0390625)"/>
<path d="M0 0 C8.81527283 7.42830101 14.4522412 16.9821503 18.01953125 27.86328125 C18.35791016 28.86681641 18.35791016 28.86681641 18.703125 29.890625 C20.93689598 37.9167952 20.01953125 45.23679824 20.01953125 53.86328125 C-8.03046875 53.86328125 -36.08046875 53.86328125 -64.98046875 53.86328125 C-62.44373248 64.01022634 -61.07452164 69.1811271 -52.1015625 74.734375 C-45.19947137 78.40786365 -34.98321758 77.74436239 -27.36328125 76.40234375 C-21.49855601 74.40032911 -16.32188572 70.20469822 -11.98046875 65.86328125 C-7.97507138 66.22529013 -4.79598314 67.7805333 -1.2421875 69.5859375 C-0.17548828 70.12412109 0.89121094 70.66230469 1.99023438 71.21679688 C3.09302734 71.78076172 4.19582031 72.34472656 5.33203125 72.92578125 C6.45416016 73.49361328 7.57628906 74.06144531 8.73242188 74.64648438 C11.49757533 76.04671102 14.25976841 77.4524679 17.01953125 78.86328125 C17.01953125 84.63143061 11.81481813 88.93671845 8.04296875 92.984375 C-7.83130856 108.23438298 -27.91761742 110.38913151 -48.875 110.140625 C-55.85757216 109.92735999 -61.59174321 108.82256105 -67.98046875 105.86328125 C-69.39779297 105.22712891 -69.39779297 105.22712891 -70.84375 104.578125 C-77.8914816 101.07862895 -83.436022 96.39850263 -88.98046875 90.86328125 C-89.70363281 90.15171875 -90.42679688 89.44015625 -91.171875 88.70703125 C-101.40724525 77.98611212 -106.59242211 64.2039022 -106.35546875 49.48828125 C-106.34531738 48.56998535 -106.33516602 47.65168945 -106.32470703 46.70556641 C-105.94378315 29.98920901 -99.57736145 16.88770917 -87.98046875 4.86328125 C-62.73161461 -17.31240669 -27.34177351 -19.60150735 0 0 Z " fill="#FDFDFD" transform="translate(783.98046875,492.13671875)"/>
<path d="M0 0 C0.87180908 0.00757324 1.74361816 0.01514648 2.6418457 0.02294922 C15.69745591 0.35334889 26.73281849 4.47170144 35.875 13.9375 C48.48467224 29.16316485 50.89773487 48.37447503 49.25 67.4375 C47.13629921 80.61101197 41.26521062 95.32648804 30.25 103.4375 C17.02500467 111.40949019 2.99193972 113.54093138 -12.1953125 110.8203125 C-23.53350153 107.47510268 -32.36138074 100.26614502 -38.75 90.4375 C-39.33007812 89.57125 -39.33007812 89.57125 -39.921875 88.6875 C-48.62284387 73.69506132 -48.58736874 53.45547143 -44.84765625 37.0703125 C-40.73831948 23.47001643 -33.12447744 12.56339274 -21.28125 4.69140625 C-14.26844004 1.21746798 -7.79933884 -0.09569741 0 0 Z " fill="#083556" transform="translate(1048.75,449.5625)"/>
<path d="M0 0 C15.84 0 31.68 0 48 0 C56.4375 19.25 56.4375 19.25 59.03686523 25.18457031 C64.2857451 37.15594034 69.61422947 49.0896105 75 61 C80.79635691 49.67771823 86.13240675 38.20563099 91.25 26.5625 C91.95016343 24.97705566 92.65068327 23.39176866 93.3515625 21.80664062 C94.63793425 18.89622359 95.92220624 15.98490098 97.20410156 13.07250977 C99.12737218 8.71116159 101.06410668 4.35575996 103 0 C118.84 0 134.68 0 151 0 C141.55155936 18.89688129 141.55155936 18.89688129 137.25 27.125 C136.48659302 28.58691772 136.48659302 28.58691772 135.70776367 30.07836914 C131.83711644 37.46291369 127.86552426 44.78826351 123.85253906 52.09619141 C119.32571866 60.35756595 114.90921844 68.67552426 110.5 77 C105.37618004 86.66940408 100.23341895 96.32680567 95 105.9375 C94.50177734 106.85466797 94.00355469 107.77183594 93.49023438 108.71679688 C93.03970703 109.54115234 92.58917969 110.36550781 92.125 111.21484375 C91.73570312 111.92761475 91.34640625 112.64038574 90.9453125 113.37475586 C90 115 90 115 89 116 C86.92737924 116.08767112 84.85179706 116.10695873 82.77734375 116.09765625 C80.88725586 116.09282227 80.88725586 116.09282227 78.95898438 116.08789062 C77.61848891 116.07953403 76.27799412 116.07106907 74.9375 116.0625 C73.59310058 116.0574866 72.2486994 116.05292342 70.90429688 116.04882812 C67.60282059 116.03699488 64.30143197 116.02050971 61 116 C60.45811035 114.94594971 60.45811035 114.94594971 59.90527344 113.87060547 C53.34293501 101.12109705 46.73775201 88.4082308 39.82324219 75.84521484 C35.12187815 67.27927429 30.56008977 58.6416363 26 50 C15.00757029 29.12291601 15.00757029 29.12291601 3.56884766 8.48876953 C3.10913574 7.67907715 2.64942383 6.86938477 2.17578125 6.03515625 C1.54990112 4.94473022 1.54990112 4.94473022 0.91137695 3.83227539 C0 2 0 2 0 0 Z " fill="#FDFDFE" transform="translate(804,483)"/>
<path d="M0 0 C-1.67932952 5.8100941 -4.39208392 11.00868579 -7.125 16.375 C-7.82689453 17.76525391 -7.82689453 17.76525391 -8.54296875 19.18359375 C-9.69169056 21.45759406 -10.84411881 23.72963282 -12 26 C-15.94888384 25.45788444 -19.13652327 24.58482027 -22.75 22.9375 C-28.06136386 20.92006207 -32.88750323 20.62108222 -38.5 20.625 C-39.28987305 20.62363037 -40.07974609 20.62226074 -40.89355469 20.62084961 C-44.75083112 20.69451576 -46.72620372 20.81746914 -50 23 C-50.66721536 25.91440699 -50.66721536 25.91440699 -50 29 C-45.63989139 33.63782254 -39.82292066 34.93776947 -33.9375 36.8125 C-20.79938456 41.20178763 -7.34419254 46.21667263 -0.625 59.25 C3.51054089 68.24030628 3.86817112 81.18641465 0.5625 90.5625 C-4.67570789 101.07567513 -12.8096833 107.13278426 -23.64453125 110.92578125 C-41.81010549 116.67231223 -64.49587171 116.85111637 -82 109 C-82.99 108.56945312 -83.98 108.13890625 -85 107.6953125 C-89.44937525 105.61290141 -93.32597806 103.30661975 -97 100 C-96.45260974 95.22858161 -94.24413172 91.67861209 -91.75 87.6875 C-91.34467041 87.02613037 -90.93934082 86.36476074 -90.52172852 85.68334961 C-89.35532567 83.78412579 -88.17928796 81.89124199 -87 80 C-86.15501953 78.63488281 -86.15501953 78.63488281 -85.29296875 77.2421875 C-84.20324385 75.48983449 -83.10326027 73.74386301 -82 72 C-78.48992426 73.30462992 -75.46572711 74.86318898 -72.3125 76.875 C-64.22768656 81.76182057 -56.65818751 85.45557791 -47 84 C-43.21634468 82.30596911 -43.21634468 82.30596911 -41 79 C-40.24862832 76.1292764 -40.24862832 76.1292764 -41 73 C-45.9422477 68.74862169 -52.31576199 66.51430235 -58.3125 64.1875 C-70.33573104 59.30378913 -81.49945214 52.68266072 -87.65625 40.8046875 C-89.35549612 36.62496462 -89.5364969 32.6600298 -89.5 28.1875 C-89.49359497 26.99882324 -89.49359497 26.99882324 -89.48706055 25.78613281 C-89.29700277 19.22880383 -87.84691422 14.38996616 -84 9 C-82.948125 7.4221875 -82.948125 7.4221875 -81.875 5.8125 C-62.46070688 -15.47087102 -23.28015894 -12.26706268 0 0 Z " fill="#FCFDFD" transform="translate(1406,488)"/>
<path d="M0 0 C17.67973305 0 31.12598509 2.22914602 44.42578125 14.1796875 C56.30942922 26.36292323 60.44436283 40.85057358 60.43603516 57.48925781 C60.14358922 72.5214789 54.27201071 86.06594063 44.015625 97.125 C31.22024907 109.02767528 17.04974014 111 0 111 C0 74.37 0 37.74 0 0 Z " fill="#0A3250" transform="translate(561,450)"/>
<path d="M0 0 C6.68171134 4.39184542 10.51624491 9.67440032 12.22265625 17.4609375 C12.97353967 25.69446146 13.4123194 33.63780661 8.22265625 40.4609375 C3.01370914 46.68273544 -3.55299489 50.96540306 -11.66015625 51.734375 C-20.39897143 52.00812102 -27.01533355 50.7992095 -33.62109375 44.78125 C-39.24972642 38.57319926 -41.29081126 32.85948975 -41.21484375 24.5859375 C-41.23482422 23.82152344 -41.25480469 23.05710937 -41.27539062 22.26953125 C-41.26947303 15.2986081 -39.22024168 10.21411405 -34.59375 5 C-33.47806641 4.05253906 -33.47806641 4.05253906 -32.33984375 3.0859375 C-31.59863281 2.43882812 -30.85742188 1.79171875 -30.09375 1.125 C-21.85448441 -4.79393279 -8.97002457 -4.2229498 0 0 Z " fill="#082D49" transform="translate(1243.77734375,516.5390625)"/>
<path d="M0 0 C0.66 0.33 1.32 0.66 2 1 C1.76023437 2.11955078 1.76023437 2.11955078 1.515625 3.26171875 C-1.8401641 27.59118973 1.92855569 53.12519826 14.7421875 74.1953125 C16 77 16 77 15.9609375 79.59375 C14.7429334 82.64371148 13.19699274 84.19539389 10.75 86.375 C9.59757813 87.43847656 9.59757813 87.43847656 8.421875 88.5234375 C6 90 6 90 3.578125 90.0546875 C0.075233 88.62168623 -2.32850913 86.3496305 -5 83.75 C-5.55743896 83.22220947 -6.11487793 82.69441895 -6.68920898 82.15063477 C-11.44428216 77.61917315 -16.092474 72.97364572 -20.68554688 68.27832031 C-22.82534465 66.10181699 -24.9098726 64.06637059 -27.37109375 62.25390625 C-28.17740234 61.63322266 -28.17740234 61.63322266 -29 61 C-29 60.34 -29 59.68 -29 59 C-29.66 59 -30.32 59 -31 59 C-31.21689369 55.24009852 -30.79549664 53.01921586 -28.9375 49.75390625 C-28.47786865 48.93051758 -28.0182373 48.10712891 -27.54467773 47.25878906 C-27.03493408 46.36901367 -26.52519043 45.47923828 -26 44.5625 C-24.90548339 42.61183639 -23.81316179 40.65994006 -22.72265625 38.70703125 C-22.12855957 37.64564941 -21.53446289 36.58426758 -20.92236328 35.49072266 C-18.81668354 31.66712487 -16.77400097 27.81442028 -14.74609375 23.94921875 C-14.20935532 22.9290139 -14.20935532 22.9290139 -13.66177368 21.88819885 C-12.23048044 19.16716684 -10.7994429 16.44610436 -9.38110352 13.71829224 C-8.3845231 11.80335274 -7.37873201 9.89351314 -6.37109375 7.984375 C-5.5037561 6.32486816 -5.5037561 6.32486816 -4.61889648 4.63183594 C-3 2 -3 2 0 0 Z " fill="#065974" transform="translate(956,484)"/>
<path d="M0 0 C1 2 1 2 -0.07421875 5.421875 C-0.60649987 6.86661387 -1.14466864 8.30919199 -1.6875 9.75 C-5.10129576 19.16604152 -8.41742435 28.45181824 -9.78125 38.41015625 C-12.33247757 56.52173838 -12.33247757 56.52173838 -20.390625 63.08984375 C-21.25171875 63.72019531 -22.1128125 64.35054687 -23 65 C-24.50975104 66.32228196 -26.01069375 67.65473249 -27.5 69 C-28.1290625 69.53625 -28.758125 70.0725 -29.40625 70.625 C-30.65053045 71.69849686 -31.83796959 72.83796959 -33 74 C-37.81807278 56.49146765 -35.57300637 37.14072612 -27.015625 21.23046875 C-21.34966527 12.14956042 -13.48348382 3.72301537 -2.9375 0.625 C-1.968125 0.41875 -0.99875 0.2125 0 0 Z " fill="#055B77" transform="translate(1037,451)"/>
<path d="M0 0 C4.92143662 3.0676955 7.80548317 6.57595161 10.03125 11.8984375 C10.03125 13.5484375 10.03125 15.1984375 10.03125 16.8984375 C-4.15875 16.8984375 -18.34875 16.8984375 -32.96875 16.8984375 C-31.83678185 7.84269234 -31.83678185 7.84269234 -29.28125 5.0859375 C-28.80300781 4.54324219 -28.32476563 4.00054687 -27.83203125 3.44140625 C-20.39221941 -2.71944423 -8.92240845 -3.31068313 0 0 Z " fill="#09304C" transform="translate(753.96875,507.1015625)"/>
<path d="M0 0 C3.48654476 1.4841373 5.64191072 3.46214052 8.25 6.1875 C11.64748652 9.66245364 15.11879685 12.93015154 18.8046875 16.09375 C23.27777685 19.97785605 27.62658334 24.00443368 32 28 C35.40212299 26.38617243 38.10324519 24.41396234 41 22 C43.0625 23.6875 43.0625 23.6875 45 26 C44.84395424 29.26619911 44.21040526 30.74699202 42.109375 33.2734375 C41.33078125 33.96695313 40.5521875 34.66046875 39.75 35.375 C38.59757813 36.43847656 38.59757813 36.43847656 37.421875 37.5234375 C35 39 35 39 32.578125 39.0546875 C29.075233 37.62168623 26.67149087 35.3496305 24 32.75 C23.44256104 32.22220947 22.88512207 31.69441895 22.31079102 31.15063477 C17.55571784 26.61917315 12.907526 21.97364572 8.31445312 17.27832031 C6.17465535 15.10181699 4.0901274 13.06637059 1.62890625 11.25390625 C1.09136719 10.84011719 0.55382812 10.42632813 0 10 C0 9.34 0 8.68 0 8 C-0.66 8 -1.32 8 -2 8 C-2.20086443 4.28400809 -2.1519437 3.22791555 0 0 Z " fill="#073555" transform="translate(927,535)"/>
<path d="M0 0 C-0.33 11.55 -0.66 23.1 -1 35 C-7.82079343 30.45280438 -7.82079343 30.45280438 -10.125 27.3125 C-10.58132813 26.71050781 -11.03765625 26.10851562 -11.5078125 25.48828125 C-13.70531631 21.82385737 -15.32771732 17.92643533 -17 14 C-14.74141867 11.65453302 -12.46623352 9.32587973 -10.1875 7 C-9.54490234 6.33226562 -8.90230469 5.66453125 -8.24023438 4.9765625 C-7.61826172 4.34492187 -6.99628906 3.71328125 -6.35546875 3.0625 C-5.78465576 2.47597656 -5.21384277 1.88945313 -4.62573242 1.28515625 C-3 0 -3 0 0 0 Z " fill="#06476E" transform="translate(1023,517)"/>
</svg>
