<svg width="180" height="180" version="1.1" xmlns="http://www.w3.org/2000/svg" desc="Created with imagetracer.js version 1.2.6" ><path fill="rgb(0,0,0)" stroke="rgb(0,0,0)" stroke-width="1" opacity="1" d="M 85.5 0 L 109.5 2 L 129.5 9 Q 147.7 18.3 160 33.5 Q 171.5 47 177 66.5 L 179 76.5 L 179 84.5 L 180 85.5 L 180 94.5 L 179 95.5 L 179 103.5 L 177 113.5 L 170 131.5 Q 160.9 148.4 146.5 160 Q 133 171.5 113.5 177 L 103.5 179 L 95.5 179 L 94.5 180 L 85.5 180 L 84.5 179 L 76.5 179 L 66.5 177 L 50.5 171 Q 32.3 161.7 20 146.5 Q 8.5 133 3 113.5 L 1 103.5 L 1 95.5 L 0 94.5 L 0 85.5 L 1 84.5 L 1 76.5 L 3 66.5 L 10 48.5 Q 19.2 31.7 33.5 20 Q 44 11.5 57.5 6 L 70.5 2 L 84.5 1 L 85.5 0 Z M 74 31 L 62 34 L 53 39 Q 47 44 44 53 Q 43 62 46 67 Q 49 72 57 73 Q 65 74 69 71 Q 73 69 72 63 L 66 62 L 63 58 L 65 49 Q 70 39 85 40 L 77 92 L 71 121 L 71 126 Q 68 129 63 129 L 58 134 L 59 142 L 65 146 Q 82 148 88 138 L 102 143 L 116 146 L 133 146 L 138 144 Q 143 141 144 134 L 143 128 L 142 126 L 133 129 L 124 129 L 123 130 L 91 129 L 99 87 L 101 70 L 103 64 L 104 53 L 106 47 Q 108 39 105 36 L 100 31 L 74 31 Z " /><path fill="rgb(211,211,211)" stroke="rgb(211,211,211)" stroke-width="1" opacity="1" d="M 77.5 0 L 80 0.5 L 77.5 1 L 77.5 0 Z " /><path fill="rgb(211,211,211)" stroke="rgb(211,211,211)" stroke-width="1" opacity="1" d="M 100.5 0 L 103 0.5 L 100.5 1 L 100.5 0 Z " /><path fill="rgb(211,211,211)" stroke="rgb(211,211,211)" stroke-width="1" opacity="1" d="M 37.5 16 L 36.5 18 L 37.5 16 Z " /><path fill="rgb(211,211,211)" stroke="rgb(211,211,211)" stroke-width="1" opacity="1" d="M 142.5 16 L 143.5 18 L 142.5 16 Z " /><path fill="rgb(211,211,211)" stroke="rgb(211,211,211)" stroke-width="1" opacity="1" d="M 33.5 19 L 31.5 22 L 33.5 19 Z " /><path fill="rgb(211,211,211)" stroke="rgb(211,211,211)" stroke-width="1" opacity="1" d="M 146.5 19 L 148.5 22 L 146.5 19 Z " /><path fill="rgb(211,211,211)" stroke="rgb(211,211,211)" stroke-width="1" opacity="1" d="M 21.5 31 L 19.5 34 L 21.5 31 Z " /><path fill="rgb(211,211,211)" stroke="rgb(211,211,211)" stroke-width="1" opacity="1" d="M 77.5 31 L 97 31.5 L 77.5 32 L 77.5 31 Z " /><path fill="rgb(211,211,211)" stroke="rgb(211,211,211)" stroke-width="1" opacity="1" d="M 158.5 31 L 160.5 34 L 158.5 31 Z " /><path fill="rgb(211,211,211)" stroke="rgb(211,211,211)" stroke-width="1" opacity="1" d="M 69.5 32 L 72 32.5 L 69.5 33 L 69.5 32 Z " /><path fill="rgb(211,211,211)" stroke="rgb(211,211,211)" stroke-width="1" opacity="1" d="M 102.5 33 L 103.5 35 L 102.5 33 Z " /><path fill="rgb(211,211,211)" stroke="rgb(211,211,211)" stroke-width="1" opacity="1" d="M 17.5 36 L 16.5 38 L 17.5 36 Z " /><path fill="rgb(211,211,211)" stroke="rgb(211,211,211)" stroke-width="1" opacity="1" d="M 162.5 36 L 163.5 38 L 162.5 36 Z " /><path fill="rgb(211,211,211)" stroke="rgb(211,211,211)" stroke-width="1" opacity="1" d="M 54.5 38 L 53.5 40 L 54.5 38 Z " /><path fill="rgb(211,211,211)" stroke="rgb(211,211,211)" stroke-width="1" opacity="1" d="M 79.5 39 L 83 39.5 L 79.5 40 L 79.5 39 Z " /><path fill="rgb(211,211,211)" stroke="rgb(211,211,211)" stroke-width="1" opacity="1" d="M 85.5 39 L 86 43.5 L 85 43.5 L 85.5 39 Z " /><path fill="rgb(211,211,211)" stroke="rgb(211,211,211)" stroke-width="1" opacity="1" d="M 105.5 39 L 106 42.5 L 105 42.5 L 105.5 39 Z " /><path fill="rgb(211,211,211)" stroke="rgb(211,211,211)" stroke-width="1" opacity="1" d="M 65.5 47 L 64.5 49 L 65.5 47 Z " /><path fill="rgb(211,211,211)" stroke="rgb(211,211,211)" stroke-width="1" opacity="1" d="M 103.5 53 L 104 55.5 L 103 55.5 L 103.5 53 Z " /><path fill="rgb(211,211,211)" stroke="rgb(211,211,211)" stroke-width="1" opacity="1" d="M 44.5 54 L 45 59.5 L 44 59.5 L 44.5 54 Z " /><path fill="rgb(211,211,211)" stroke="rgb(211,211,211)" stroke-width="1" opacity="1" d="M 64.5 61 L 65.5 63 L 64.5 61 Z " /><path fill="rgb(211,211,211)" stroke="rgb(211,211,211)" stroke-width="1" opacity="1" d="M 68.5 63 Q 73.3 61.3 72 65.5 L 71 65.5 Q 71.8 62.9 68.5 64 L 68.5 63 Z " /><path fill="rgb(211,211,211)" stroke="rgb(211,211,211)" stroke-width="1" opacity="1" d="M 58.5 72 L 62 72.5 L 58.5 73 L 58.5 72 Z " /><path fill="rgb(211,211,211)" stroke="rgb(211,211,211)" stroke-width="1" opacity="1" d="M 0.5 77 L 1 80.5 L 0 80.5 L 0.5 77 Z " /><path fill="rgb(211,211,211)" stroke="rgb(211,211,211)" stroke-width="1" opacity="1" d="M 179.5 77 L 180 80.5 L 179 80.5 L 179.5 77 Z " /><path fill="rgb(211,211,211)" stroke="rgb(211,211,211)" stroke-width="1" opacity="1" d="M 78.5 82 L 79 84.5 L 78 84.5 L 78.5 82 Z " /><path fill="rgb(211,211,211)" stroke="rgb(211,211,211)" stroke-width="1" opacity="1" d="M 0.5 99 L 1 102.5 L 0 102.5 L 0.5 99 Z " /><path fill="rgb(211,211,211)" stroke="rgb(211,211,211)" stroke-width="1" opacity="1" d="M 179.5 99 L 180 102.5 L 179 102.5 L 179.5 99 Z " /><path fill="rgb(211,211,211)" stroke="rgb(211,211,211)" stroke-width="1" opacity="1" d="M 74.5 105 L 75 107.5 L 74 107.5 L 74.5 105 Z " /><path fill="rgb(211,211,211)" stroke="rgb(211,211,211)" stroke-width="1" opacity="1" d="M 93.5 110 L 94 112.5 L 93 112.5 L 93.5 110 Z " /><path fill="rgb(211,211,211)" stroke="rgb(211,211,211)" stroke-width="1" opacity="1" d="M 90.5 128 L 97 129.5 L 91.5 130 L 90.5 128 Z " /><path fill="rgb(211,211,211)" stroke="rgb(211,211,211)" stroke-width="1" opacity="1" d="M 62.5 129 L 59.5 133 L 62.5 129 Z " /><path fill="rgb(211,211,211)" stroke="rgb(211,211,211)" stroke-width="1" opacity="1" d="M 129.5 129 L 132 129.5 L 129.5 130 L 129.5 129 Z " /><path fill="rgb(211,211,211)" stroke="rgb(211,211,211)" stroke-width="1" opacity="1" d="M 58.5 135 L 59 138.5 L 58 138.5 L 58.5 135 Z " /><path fill="rgb(211,211,211)" stroke="rgb(211,211,211)" stroke-width="1" opacity="1" d="M 87.5 137 L 89 137.5 L 84.5 141 L 87.5 137 Z " /><path fill="rgb(211,211,211)" stroke="rgb(211,211,211)" stroke-width="1" opacity="1" d="M 140.5 140 L 138.5 143 L 140.5 140 Z " /><path fill="rgb(211,211,211)" stroke="rgb(211,211,211)" stroke-width="1" opacity="1" d="M 16.5 142 L 17.5 144 L 16.5 142 Z " /><path fill="rgb(211,211,211)" stroke="rgb(211,211,211)" stroke-width="1" opacity="1" d="M 60.5 142 L 61.5 144 L 60.5 142 Z " /><path fill="rgb(211,211,211)" stroke="rgb(211,211,211)" stroke-width="1" opacity="1" d="M 163.5 142 L 162.5 144 L 163.5 142 Z " /><path fill="rgb(211,211,211)" stroke="rgb(211,211,211)" stroke-width="1" opacity="1" d="M 111.5 144 L 114 144.5 L 111.5 145 L 111.5 144 Z " /><path fill="rgb(211,211,211)" stroke="rgb(211,211,211)" stroke-width="1" opacity="1" d="M 71.5 145 L 74 145.5 L 71.5 146 L 71.5 145 Z " /><path fill="rgb(211,211,211)" stroke="rgb(211,211,211)" stroke-width="1" opacity="1" d="M 118.5 145 L 124 145.5 L 118.5 146 L 118.5 145 Z " /><path fill="rgb(211,211,211)" stroke="rgb(211,211,211)" stroke-width="1" opacity="1" d="M 128.5 145 L 131 145.5 L 128.5 146 L 128.5 145 Z " /><path fill="rgb(211,211,211)" stroke="rgb(211,211,211)" stroke-width="1" opacity="1" d="M 19.5 146 L 21.5 149 L 19.5 146 Z " /><path fill="rgb(211,211,211)" stroke="rgb(211,211,211)" stroke-width="1" opacity="1" d="M 160.5 146 L 158.5 149 L 160.5 146 Z " /><path fill="rgb(211,211,211)" stroke="rgb(211,211,211)" stroke-width="1" opacity="1" d="M 31.5 158 L 33.5 161 L 31.5 158 Z " /><path fill="rgb(211,211,211)" stroke="rgb(211,211,211)" stroke-width="1" opacity="1" d="M 148.5 158 L 146.5 161 L 148.5 158 Z " /><path fill="rgb(211,211,211)" stroke="rgb(211,211,211)" stroke-width="1" opacity="1" d="M 36.5 162 L 37.5 164 L 36.5 162 Z " /><path fill="rgb(211,211,211)" stroke="rgb(211,211,211)" stroke-width="1" opacity="1" d="M 143.5 162 L 142.5 164 L 143.5 162 Z " /><path fill="rgb(211,211,211)" stroke="rgb(211,211,211)" stroke-width="1" opacity="1" d="M 77.5 179 L 80 179.5 L 77.5 180 L 77.5 179 Z " /><path fill="rgb(211,211,211)" stroke="rgb(211,211,211)" stroke-width="1" opacity="1" d="M 100.5 179 L 103 179.5 L 100.5 180 L 100.5 179 Z " /><path fill="rgb(254,254,254)" stroke="rgb(254,254,254)" stroke-width="1" opacity="1" d="M 0 0 L 77 0.5 Q 38.4 7.4 19 33.5 Q 4.6 50.1 0.5 77 L 0 0 Z " /><path fill="rgb(254,254,254)" stroke="rgb(254,254,254)" stroke-width="1" opacity="1" d="M 103.5 0 L 180 0 L 180 76.5 L 179 76.5 L 178 67.5 L 168 43.5 Q 159.3 29.2 146.5 19 L 124.5 6 L 108.5 1 L 103.5 1 L 103.5 0 Z " /><path fill="rgb(254,254,254)" stroke="rgb(254,254,254)" stroke-width="1" opacity="1" d="M 72.5 32 L 99.5 32 L 105 36.5 L 105 47.5 L 103 53.5 L 101 70.5 L 99 76.5 L 98 87.5 L 90 128.5 L 91.5 130 L 131.5 130 L 142 127 Q 143.8 129.4 143 135.5 L 137.5 143 L 133.5 145 L 124.5 146 L 123.5 145 L 108.5 144 L 87.5 137 Q 83.6 142.6 76.5 145 L 68.5 146 Q 61.9 145.1 59 140.5 Q 57.3 130.8 63.5 129 L 71 128 L 86 39 Q 70 38.3 64 48.5 L 63 59.5 L 65.5 63 L 71 64 L 68.5 70 Q 64.5 73.5 55.5 72 Q 49.8 70.8 47 66.5 Q 43.2 61.8 45 51.5 Q 47.1 44.1 52.5 40 L 63.5 34 L 72.5 32 Z " /><path fill="rgb(254,254,254)" stroke="rgb(254,254,254)" stroke-width="1" opacity="1" d="M 0.5 103 Q 7.4 141.6 33.5 161 Q 50.1 175.4 77 179.5 L 0 180 L 0.5 103 Z " /><path fill="rgb(254,254,254)" stroke="rgb(254,254,254)" stroke-width="1" opacity="1" d="M 179.5 103 L 180 180 L 103 179.5 Q 141.6 172.6 161 146.5 Q 175.4 129.9 179.5 103 Z " /><path fill="rgb(90,90,90)" stroke="rgb(90,90,90)" stroke-width="1" opacity="1" d="M 80.5 0 L 85 0.5 L 80.5 1 L 80.5 0 Z " /><path fill="rgb(90,90,90)" stroke="rgb(90,90,90)" stroke-width="1" opacity="1" d="M 95.5 0 L 100 0.5 L 95.5 1 L 95.5 0 Z " /><path fill="rgb(90,90,90)" stroke="rgb(90,90,90)" stroke-width="1" opacity="1" d="M 73.5 1 L 76 1.5 L 73.5 2 L 73.5 1 Z " /><path fill="rgb(90,90,90)" stroke="rgb(90,90,90)" stroke-width="1" opacity="1" d="M 104.5 1 L 107 1.5 L 104.5 2 L 104.5 1 Z " /><path fill="rgb(90,90,90)" stroke="rgb(90,90,90)" stroke-width="1" opacity="1" d="M 42.5 13 L 41.5 15 L 42.5 13 Z " /><path fill="rgb(90,90,90)" stroke="rgb(90,90,90)" stroke-width="1" opacity="1" d="M 137.5 13 L 138.5 15 L 137.5 13 Z " /><path fill="rgb(90,90,90)" stroke="rgb(90,90,90)" stroke-width="1" opacity="1" d="M 39.5 15 L 38.5 17 L 39.5 15 Z " /><path fill="rgb(90,90,90)" stroke="rgb(90,90,90)" stroke-width="1" opacity="1" d="M 140.5 15 L 141.5 17 L 140.5 15 Z " /><path fill="rgb(90,90,90)" stroke="rgb(90,90,90)" stroke-width="1" opacity="1" d="M 35.5 18 L 34.5 20 L 35.5 18 Z " /><path fill="rgb(90,90,90)" stroke="rgb(90,90,90)" stroke-width="1" opacity="1" d="M 144.5 18 L 145.5 20 L 144.5 18 Z " /><path fill="rgb(90,90,90)" stroke="rgb(90,90,90)" stroke-width="1" opacity="1" d="M 30.5 22 L 22.5 31 L 30.5 22 Z " /><path fill="rgb(90,90,90)" stroke="rgb(90,90,90)" stroke-width="1" opacity="1" d="M 149.5 22 L 157.5 31 L 149.5 22 Z " /><path fill="rgb(90,90,90)" stroke="rgb(90,90,90)" stroke-width="1" opacity="1" d="M 73.5 31 L 77 31.5 L 73.5 32 L 73.5 31 Z " /><path fill="rgb(90,90,90)" stroke="rgb(90,90,90)" stroke-width="1" opacity="1" d="M 97.5 31 L 100 31.5 L 97.5 32 L 97.5 31 Z " /><path fill="rgb(90,90,90)" stroke="rgb(90,90,90)" stroke-width="1" opacity="1" d="M 19.5 34 L 18.5 36 L 19.5 34 Z " /><path fill="rgb(90,90,90)" stroke="rgb(90,90,90)" stroke-width="1" opacity="1" d="M 160.5 34 L 161.5 36 L 160.5 34 Z " /><path fill="rgb(90,90,90)" stroke="rgb(90,90,90)" stroke-width="1" opacity="1" d="M 16.5 38 L 15.5 40 L 16.5 38 Z " /><path fill="rgb(90,90,90)" stroke="rgb(90,90,90)" stroke-width="1" opacity="1" d="M 163.5 38 L 164.5 40 L 163.5 38 Z " /><path fill="rgb(90,90,90)" stroke="rgb(90,90,90)" stroke-width="1" opacity="1" d="M 52.5 39 L 49.5 43 L 52.5 39 Z " /><path fill="rgb(90,90,90)" stroke="rgb(90,90,90)" stroke-width="1" opacity="1" d="M 14.5 41 L 13.5 43 L 14.5 41 Z " /><path fill="rgb(90,90,90)" stroke="rgb(90,90,90)" stroke-width="1" opacity="1" d="M 165.5 41 L 166.5 43 L 165.5 41 Z " /><path fill="rgb(90,90,90)" stroke="rgb(90,90,90)" stroke-width="1" opacity="1" d="M 69.5 43 L 66.5 47 L 69.5 43 Z " /><path fill="rgb(90,90,90)" stroke="rgb(90,90,90)" stroke-width="1" opacity="1" d="M 105.5 43 L 106 46.5 L 105 46.5 L 105.5 43 Z " /><path fill="rgb(90,90,90)" stroke="rgb(90,90,90)" stroke-width="1" opacity="1" d="M 83.5 51 L 84 53.5 L 83 53.5 L 83.5 51 Z " /><path fill="rgb(90,90,90)" stroke="rgb(90,90,90)" stroke-width="1" opacity="1" d="M 82.5 57 L 83 59.5 L 82 59.5 L 82.5 57 Z " /><path fill="rgb(90,90,90)" stroke="rgb(90,90,90)" stroke-width="1" opacity="1" d="M 102.5 61 L 103 63.5 L 102 63.5 L 102.5 61 Z " /><path fill="rgb(90,90,90)" stroke="rgb(90,90,90)" stroke-width="1" opacity="1" d="M 46.5 66 L 49.5 70 L 46.5 66 Z " /><path fill="rgb(90,90,90)" stroke="rgb(90,90,90)" stroke-width="1" opacity="1" d="M 70.5 68 L 68.5 71 L 70.5 68 Z " /><path fill="rgb(90,90,90)" stroke="rgb(90,90,90)" stroke-width="1" opacity="1" d="M 1.5 73 L 2 75.5 L 1 75.5 L 1.5 73 Z " /><path fill="rgb(90,90,90)" stroke="rgb(90,90,90)" stroke-width="1" opacity="1" d="M 178.5 73 L 179 75.5 L 178 75.5 L 178.5 73 Z " /><path fill="rgb(90,90,90)" stroke="rgb(90,90,90)" stroke-width="1" opacity="1" d="M 79.5 74 L 80 76.5 L 79 76.5 L 79.5 74 Z " /><path fill="rgb(90,90,90)" stroke="rgb(90,90,90)" stroke-width="1" opacity="1" d="M 99.5 78 L 100 80.5 L 99 80.5 L 99.5 78 Z " /><path fill="rgb(90,90,90)" stroke="rgb(90,90,90)" stroke-width="1" opacity="1" d="M 0.5 81 L 1 84.5 L 0 84.5 L 0.5 81 Z " /><path fill="rgb(90,90,90)" stroke="rgb(90,90,90)" stroke-width="1" opacity="1" d="M 179.5 81 L 180 84.5 L 179 84.5 L 179.5 81 Z " /><path fill="rgb(90,90,90)" stroke="rgb(90,90,90)" stroke-width="1" opacity="1" d="M 98.5 84 L 99 86.5 L 98 86.5 L 98.5 84 Z " /><path fill="rgb(90,90,90)" stroke="rgb(90,90,90)" stroke-width="1" opacity="1" d="M 0.5 95 L 1 98.5 L 0 98.5 L 0.5 95 Z " /><path fill="rgb(90,90,90)" stroke="rgb(90,90,90)" stroke-width="1" opacity="1" d="M 96.5 95 L 97 97.5 L 96 97.5 L 96.5 95 Z " /><path fill="rgb(90,90,90)" stroke="rgb(90,90,90)" stroke-width="1" opacity="1" d="M 179.5 95 L 180 98.5 L 179 98.5 L 179.5 95 Z " /><path fill="rgb(90,90,90)" stroke="rgb(90,90,90)" stroke-width="1" opacity="1" d="M 75.5 97 L 76 99.5 L 75 99.5 L 75.5 97 Z " /><path fill="rgb(90,90,90)" stroke="rgb(90,90,90)" stroke-width="1" opacity="1" d="M 95.5 101 L 96 103.5 L 95 103.5 L 95.5 101 Z " /><path fill="rgb(90,90,90)" stroke="rgb(90,90,90)" stroke-width="1" opacity="1" d="M 1.5 104 L 2 106.5 L 1 106.5 L 1.5 104 Z " /><path fill="rgb(90,90,90)" stroke="rgb(90,90,90)" stroke-width="1" opacity="1" d="M 178.5 104 L 179 106.5 L 178 106.5 L 178.5 104 Z " /><path fill="rgb(90,90,90)" stroke="rgb(90,90,90)" stroke-width="1" opacity="1" d="M 72.5 114 L 73 116.5 L 72 116.5 L 72.5 114 Z " /><path fill="rgb(90,90,90)" stroke="rgb(90,90,90)" stroke-width="1" opacity="1" d="M 92.5 118 L 93 120.5 L 92 120.5 L 92.5 118 Z " /><path fill="rgb(90,90,90)" stroke="rgb(90,90,90)" stroke-width="1" opacity="1" d="M 71.5 120 L 72 122.5 L 71 122.5 L 71.5 120 Z " /><path fill="rgb(90,90,90)" stroke="rgb(90,90,90)" stroke-width="1" opacity="1" d="M 70.5 126 L 71 128 L 68 127.5 L 70.5 126 Z " /><path fill="rgb(90,90,90)" stroke="rgb(90,90,90)" stroke-width="1" opacity="1" d="M 97.5 129 L 110 129.5 L 97.5 130 L 97.5 129 Z " /><path fill="rgb(90,90,90)" stroke="rgb(90,90,90)" stroke-width="1" opacity="1" d="M 123.5 129 L 129 129.5 L 123.5 130 L 123.5 129 Z " /><path fill="rgb(90,90,90)" stroke="rgb(90,90,90)" stroke-width="1" opacity="1" d="M 143.5 131 L 144 133.5 L 143 133.5 L 143.5 131 Z " /><path fill="rgb(90,90,90)" stroke="rgb(90,90,90)" stroke-width="1" opacity="1" d="M 13.5 137 L 14.5 139 L 13.5 137 Z " /><path fill="rgb(90,90,90)" stroke="rgb(90,90,90)" stroke-width="1" opacity="1" d="M 166.5 137 L 165.5 139 L 166.5 137 Z " /><path fill="rgb(90,90,90)" stroke="rgb(90,90,90)" stroke-width="1" opacity="1" d="M 15.5 140 L 16.5 142 L 15.5 140 Z " /><path fill="rgb(90,90,90)" stroke="rgb(90,90,90)" stroke-width="1" opacity="1" d="M 164.5 140 L 163.5 142 L 164.5 140 Z " /><path fill="rgb(90,90,90)" stroke="rgb(90,90,90)" stroke-width="1" opacity="1" d="M 83.5 141 L 82.5 143 L 83.5 141 Z " /><path fill="rgb(90,90,90)" stroke="rgb(90,90,90)" stroke-width="1" opacity="1" d="M 18.5 144 L 19.5 146 L 18.5 144 Z " /><path fill="rgb(90,90,90)" stroke="rgb(90,90,90)" stroke-width="1" opacity="1" d="M 161.5 144 L 160.5 146 L 161.5 144 Z " /><path fill="rgb(90,90,90)" stroke="rgb(90,90,90)" stroke-width="1" opacity="1" d="M 115.5 145 L 118 145.5 L 115.5 146 L 115.5 145 Z " /><path fill="rgb(90,90,90)" stroke="rgb(90,90,90)" stroke-width="1" opacity="1" d="M 22.5 149 L 30.5 158 L 22.5 149 Z " /><path fill="rgb(90,90,90)" stroke="rgb(90,90,90)" stroke-width="1" opacity="1" d="M 157.5 149 L 149.5 158 L 157.5 149 Z " /><path fill="rgb(90,90,90)" stroke="rgb(90,90,90)" stroke-width="1" opacity="1" d="M 34.5 160 L 35.5 162 L 34.5 160 Z " /><path fill="rgb(90,90,90)" stroke="rgb(90,90,90)" stroke-width="1" opacity="1" d="M 145.5 160 L 144.5 162 L 145.5 160 Z " /><path fill="rgb(90,90,90)" stroke="rgb(90,90,90)" stroke-width="1" opacity="1" d="M 38.5 163 L 39.5 165 L 38.5 163 Z " /><path fill="rgb(90,90,90)" stroke="rgb(90,90,90)" stroke-width="1" opacity="1" d="M 141.5 163 L 140.5 165 L 141.5 163 Z " /><path fill="rgb(90,90,90)" stroke="rgb(90,90,90)" stroke-width="1" opacity="1" d="M 41.5 165 L 42.5 167 L 41.5 165 Z " /><path fill="rgb(90,90,90)" stroke="rgb(90,90,90)" stroke-width="1" opacity="1" d="M 138.5 165 L 137.5 167 L 138.5 165 Z " /><path fill="rgb(90,90,90)" stroke="rgb(90,90,90)" stroke-width="1" opacity="1" d="M 73.5 178 L 76 178.5 L 73.5 179 L 73.5 178 Z " /><path fill="rgb(90,90,90)" stroke="rgb(90,90,90)" stroke-width="1" opacity="1" d="M 104.5 178 L 107 178.5 L 104.5 179 L 104.5 178 Z " /><path fill="rgb(90,90,90)" stroke="rgb(90,90,90)" stroke-width="1" opacity="1" d="M 80.5 179 L 85 179.5 L 80.5 180 L 80.5 179 Z " /><path fill="rgb(90,90,90)" stroke="rgb(90,90,90)" stroke-width="1" opacity="1" d="M 95.5 179 L 100 179.5 L 95.5 180 L 95.5 179 Z " /></svg>