<svg width="48" height="48" version="1.1" xmlns="http://www.w3.org/2000/svg" desc="Created with imagetracer.js version 1.2.6" ><path fill="rgb(0,0,0)" stroke="rgb(0,0,0)" stroke-width="1" opacity="1" d="M 22.5 0 Q 37.1 0.4 43 9.5 Q 47.8 15.2 48 25.5 L 45 35.5 L 38.5 43 Q 32.8 47.8 22.5 48 L 12.5 45 L 5 38.5 Q 0.2 32.8 0 22.5 L 3 12.5 L 9.5 5 L 14.5 2 L 22.5 0 Z M 18 8 L 16 9 Q 11 11 11 17 Q 12 21 18 20 Q 22 18 19 16 Q 16 17 17 14 L 22 11 L 19 33 L 15 36 L 17 39 Q 22 40 24 37 Q 28 41 37 39 L 39 36 L 38 33 L 37 34 L 25 34 L 29 11 L 27 8 L 18 8 Z " /><path fill="rgb(217,217,217)" stroke="rgb(217,217,217)" stroke-width="1" opacity="1" d="M 17.5 38 L 20 38.5 L 17.5 39 L 17.5 38 Z " /><path fill="rgb(217,217,217)" stroke="rgb(217,217,217)" stroke-width="1" opacity="1" d="M 31.5 38 L 35 38.5 L 31.5 39 L 31.5 38 Z " /><path fill="rgb(162,162,162)" stroke="rgb(162,162,162)" stroke-width="1" opacity="1" d="M 20.5 8 L 26 8.5 L 20.5 9 L 20.5 8 Z " /><path fill="rgb(162,162,162)" stroke="rgb(162,162,162)" stroke-width="1" opacity="1" d="M 18.5 11 L 17.5 13 L 18.5 11 Z " /><path fill="rgb(162,162,162)" stroke="rgb(162,162,162)" stroke-width="1" opacity="1" d="M 12.5 17 L 13.5 19 L 12.5 17 Z " /><path fill="rgb(129,129,129)" stroke="rgb(129,129,129)" stroke-width="1" opacity="1" d="M 7.5 6 L 6.5 8 L 7.5 6 Z " /><path fill="rgb(129,129,129)" stroke="rgb(129,129,129)" stroke-width="1" opacity="1" d="M 40.5 6 L 41.5 8 L 40.5 6 Z " /><path fill="rgb(129,129,129)" stroke="rgb(129,129,129)" stroke-width="1" opacity="1" d="M 6.5 40 L 7.5 42 L 6.5 40 Z " /><path fill="rgb(129,129,129)" stroke="rgb(129,129,129)" stroke-width="1" opacity="1" d="M 41.5 40 L 40.5 42 L 41.5 40 Z " /><path fill="rgb(94,94,94)" stroke="rgb(94,94,94)" stroke-width="1" opacity="1" d="M 27.5 34 L 34 34.5 L 27.5 35 L 27.5 34 Z " /><path fill="rgb(50,50,50)" stroke="rgb(50,50,50)" stroke-width="1" opacity="1" d="M 11.5 14 L 12 16.5 L 11 16.5 L 11.5 14 Z " /><path fill="rgb(50,50,50)" stroke="rgb(50,50,50)" stroke-width="1" opacity="1" d="M 18.5 16 L 19.5 18 L 18.5 16 Z " /><path fill="rgb(50,50,50)" stroke="rgb(50,50,50)" stroke-width="1" opacity="1" d="M 37.5 33 L 39 35.5 L 38 35.5 L 37.5 33 Z " /><path fill="rgb(255,255,255)" stroke="rgb(255,255,255)" stroke-width="1" opacity="1" d="M 0 0 L 17 0.5 Q 7.3 2.8 3 10.5 L 0.5 17 L 0 0 Z " /><path fill="rgb(255,255,255)" stroke="rgb(255,255,255)" stroke-width="1" opacity="1" d="M 31.5 0 L 48 0 L 48 16.5 L 47 16.5 Q 45.1 6.9 37.5 3 L 31.5 1 L 31.5 0 Z " /><path fill="rgb(255,255,255)" stroke="rgb(255,255,255)" stroke-width="1" opacity="1" d="M 18.5 9 L 26.5 9 L 28 10.5 L 24 35 L 36.5 35 L 37.5 34 L 38 35.5 L 37 38 Q 28.4 39.3 23.5 36 Q 21.8 39.5 16 38 Q 14.3 33.9 18.5 35 L 20 33.5 L 23 10 Q 17.4 9 16 13.5 L 17.5 17 L 19 17.5 L 14.5 19 Q 11.5 18.5 12 14.5 L 15.5 10 L 18.5 9 Z " /><path fill="rgb(255,255,255)" stroke="rgb(255,255,255)" stroke-width="1" opacity="1" d="M 0.5 31 Q 2.8 40.7 10.5 45 L 17 47.5 L 0 48 L 0.5 31 Z " /><path fill="rgb(255,255,255)" stroke="rgb(255,255,255)" stroke-width="1" opacity="1" d="M 47.5 31 L 48 48 L 31 47.5 Q 40.7 45.2 45 37.5 L 47.5 31 Z " /></svg>